<?xml version="1.0" encoding="utf-8"?>
<!-- Generator: Adobe Illustrator 15.1.0, SVG Export Plug-In . SVG Version: 6.00 Build 0)  -->
<!DOCTYPE svg PUBLIC "-//W3C//DTD SVG 1.1//EN" "http://www.w3.org/Graphics/SVG/1.1/DTD/svg11.dtd">
<svg version="1.1"
	 id="svg2" xmlns:sodipodi="http://sodipodi.sourceforge.net/DTD/sodipodi-0.dtd" xmlns:svg="http://www.w3.org/2000/svg" xmlns:inkscape="http://www.inkscape.org/namespaces/inkscape" xmlns:dc="http://purl.org/dc/elements/1.1/" xmlns:cc="http://creativecommons.org/ns#" xmlns:rdf="http://www.w3.org/1999/02/22-rdf-syntax-ns#" sodipodi:docname="faceplant.svg" sodipodi:version="0.32" inkscape:version="0.46" inkscape:output_extension="org.inkscape.output.svg.inkscape"
	 xmlns="http://www.w3.org/2000/svg" xmlns:xlink="http://www.w3.org/1999/xlink" x="0px" y="0px" width="3043.993px"
	 height="1917.351px" viewBox="0 0 3043.993 1917.351" enable-background="new 0 0 3043.993 1917.351" xml:space="preserve">
<g id="g2384_1_">
	<path id="path2386_1_" fill="#FFFFFF" d="M1031,1916.511c-20.328-0.76-40.739-2.482-48.5-4.096
		c-8.991-1.867-29.828-9.072-38-13.141c-9.18-4.568-18.175-9.916-31.587-18.775c-10.043-6.633-35.812-19.518-44.913-22.455
		c-3.025-0.977-6.794-2.43-8.375-3.229c-6.056-3.064-44.989-12.123-59.221-13.779c-3.248-0.377-9.279-1.504-13.404-2.504
		c-8.795-2.131-12.226-2.68-25-3.998c-5.225-0.541-14-2.115-19.5-3.5c-5.5-1.387-16.525-3.162-24.5-3.949
		s-19.916-2.549-26.535-3.916c-6.619-1.365-17.645-3-24.5-3.629c-6.854-0.631-14.636-1.559-17.289-2.062
		c-6.521-1.234-50.212-6.676-60.176-7.492c-4.4-0.361-12.95-1.701-19-2.977c-6.05-1.273-15.765-2.787-21.588-3.357
		c-5.822-0.574-14.598-2.176-19.5-3.559c-4.901-1.383-13.412-3.174-18.912-3.98s-13.375-2.559-17.5-3.895
		c-4.125-1.334-10.425-2.734-14-3.113s-13.7-2.439-22.5-4.58s-20.195-4.605-25.323-5.479c-5.128-0.875-11.428-2.404-14-3.398
		c-2.571-0.996-7.587-2.367-11.144-3.051c-3.557-0.682-8.615-2.33-11.241-3.66s-7.633-3.082-11.126-3.893
		c-3.494-0.811-8.11-2.229-10.259-3.152c-4.352-1.871-26.152-9.602-33.907-12.023c-11.243-3.51-24.722-9.078-37-15.283
		c-7.15-3.615-15.025-7.455-17.5-8.537c-23.646-10.33-65.089-37.17-89.068-57.686c-16.139-13.809-47.431-45.215-54.619-54.82
		c-2.264-3.023-6.412-8.199-9.218-11.5c-7.476-8.793-14.33-17.988-20.311-27.256c-2.906-4.502-8.633-13.037-12.726-18.965
		c-6.999-10.139-11.816-18.336-26.317-44.779c-3.317-6.049-7.453-13.25-9.19-16c-3.004-4.756-8.155-15.436-17.606-36.5
		c-3.495-7.789-12.39-25.463-16.105-32c-1.084-1.908-6.074-14.012-10.305-25c-3.685-9.568-17.234-38.99-18.628-40.449
		c-0.5-0.521-0.908-2.217-0.908-3.764c0-2.223,3.716-7.014,17.75-22.889c23.417-26.484,29.563-33.977,40.119-48.898
		c17.26-24.398,23.311-35.717,31.544-59c1.265-3.574,3.433-8.75,4.819-11.5c1.387-2.75,2.856-6.574,3.266-8.5
		c0.41-1.924,2.265-6.646,4.123-10.496c1.858-3.848,3.379-7.975,3.379-9.168s1.549-7.115,3.443-13.154
		c1.894-6.041,4.396-16.09,5.561-22.332c1.165-6.24,3.17-14.725,4.456-18.85s2.667-10.65,3.07-14.5
		c0.402-3.85,2.007-10.475,3.565-14.721s3.528-11.725,4.376-16.615c0.849-4.891,2.437-11.49,3.528-14.664s2.681-9.775,3.53-14.672
		c0.85-4.896,3.28-16.197,5.402-25.115c2.121-8.916,4.162-18.387,4.536-21.045c0.374-2.66,1.354-6.709,2.175-9
		c0.822-2.293,2.365-8.189,3.429-13.105c1.062-4.914,2.846-10.822,3.961-13.125c1.115-2.307,2.929-7.441,4.03-11.416
		s2.957-9.092,4.123-11.373c1.169-2.281,2.916-7.072,3.886-10.646c5.227-19.287,12.28-37.58,22.998-59.645
		c4.312-8.881,9.891-20.703,12.396-26.275c6.021-13.395,12.685-25.668,19.591-36.08c3.102-4.676,7.817-12.326,10.48-17
		c5.396-9.475,13.067-20.996,22.967-34.5c3.628-4.951,9.458-13.275,12.954-18.5c3.497-5.225,9.832-13.541,14.079-18.479
		c4.246-4.938,10.453-12.588,13.792-17s9.548-11.848,13.796-16.521c4.249-4.676,10.962-12.551,14.918-17.5
		c3.957-4.951,10.403-12.408,14.326-16.574s15.524-16.541,25.783-27.5c26.792-28.623,85.84-91.119,104.333-110.426
		c19.878-20.752,40.889-44.365,51.687-58.088c4.581-5.822,10.821-13.697,13.865-17.5c15.533-19.398,24.367-40.326,28.397-67.275
		c1.646-10.994,4.572-17.646,13.92-31.637c8.86-13.26,24.229-25.353,37.604-29.583c21.828-6.906,25.652-7.501,57.044-8.869
		c72.619-3.164,88.373-3.427,133.121-2.215c114.246,3.093,125.908,3.667,156.379,7.69c6.05,0.8,17.75,1.887,26,2.414
		c8.25,0.528,18.601,1.651,23,2.496c4.4,0.845,18.709,3.1,31.797,5.011c13.089,1.912,27.039,4.378,31,5.478
		c3.962,1.1,10.354,2.489,14.203,3.088s9.925,2.394,13.5,3.989c3.575,1.597,9.312,3.59,12.749,4.431
		c3.438,0.841,8.104,2.476,10.371,3.632c2.268,1.156,7.105,3.128,10.751,4.383c3.646,1.253,11.579,4.197,17.629,6.546
		c6.05,2.346,14.662,5.528,19.137,7.069c4.477,1.543,10.533,4.057,13.464,5.588c3.637,1.902,7.271,2.91,11.457,3.176
		c6.67,0.426,10.038-0.793,16.442-5.947c1.925-1.549,7.55-5.842,12.5-9.538c10.297-7.689,50.912-42.805,59.355-51.319
		c8.525-8.597,41.445-38.59,51.643-47.051c4.949-4.106,12.373-10.557,16.5-14.334c4.127-3.775,10.877-9.363,15.002-12.415
		c4.125-3.053,11.326-8.754,16-12.671c12.9-10.808,47.785-36.656,62.992-46.677c10.977-7.232,32.439-21.479,39.395-26.146
		c3.912-2.626,10.775-6.733,15.252-9.13c4.477-2.396,11.449-6.47,15.5-9.055c12.906-8.237,25.541-15.338,39.138-21.995
		c7.271-3.561,17.725-8.985,23.225-12.056c11.969-6.681,28.727-14.83,37-17.995c10.77-4.12,27.584-11.318,28.805-12.332
		c0.658-0.545,4.311-2.164,8.115-3.597c3.807-1.434,7.438-3.031,8.064-3.554c1.521-1.264,18.365-7.311,32.016-11.493
		c13.871-4.251,21.531-6.787,33.5-11.099c5.225-1.882,11.75-3.84,14.5-4.352c2.75-0.513,7.924-2.301,11.5-3.974
		c3.574-1.673,9.66-3.486,13.521-4.033c3.861-0.546,9.037-1.727,11.5-2.625c2.463-0.897,13.254-3.148,23.979-5.002
		s24.354-4.272,30.283-5.378c5.932-1.104,15.832-2.509,22-3.12c6.17-0.609,15.266-1.936,20.217-2.943
		c40.191-8.19,181.096-8.841,225.5-1.04c6.324,1.111,17.623,2.696,25.105,3.521c13.111,1.447,42.041,5.939,58.164,9.033
		c4.273,0.819,9.039,1.49,10.59,1.49s6.379,0.948,10.729,2.106c4.352,1.158,12.41,2.903,17.91,3.878s12.676,2.966,15.945,4.425
		s9.021,3.09,12.783,3.623c3.76,0.532,9.482,2.084,12.719,3.444c3.234,1.361,8.057,2.947,10.717,3.524
		c2.66,0.576,10.461,2.802,17.336,4.945c6.875,2.143,15.201,4.578,18.5,5.408c9.029,2.275,21.385,6.483,27,9.197
		c2.75,1.329,7.477,3.142,10.5,4.024c3.025,0.885,7.977,2.903,11,4.487c5.133,2.688,25.389,10.804,31,12.422
		c4.615,1.33,18.404,7.76,30,13.987c6.326,3.397,17.576,9.046,25,12.554c13.708,6.474,36.437,18.987,42.288,23.284
		c1.77,1.298,7.039,4.532,11.713,7.188c15.92,9.043,23.49,13.911,33.5,21.541c5.5,4.192,13.51,9.94,17.799,12.773
		c8.564,5.656,30.443,22.731,43.115,33.649c52.99,45.652,108.949,101.256,161.477,160.452c5.166,5.82,12.408,13.732,16.1,17.582
		c3.689,3.85,10.117,11.275,14.285,16.5s10.875,13.139,14.9,17.586c11.057,12.205,29.068,34.002,40.824,49.402
		c5.775,7.564,12.988,16.623,16.029,20.133c7.92,9.137,21.457,27.633,50.283,68.699c17.508,24.945,22.988,33.246,30.154,45.68
		c12.504,21.689,13.977,24.205,17.564,30c2.043,3.301,7.77,13.875,12.729,23.5c4.957,9.625,11.371,21.775,14.25,27
		c6.824,12.377,11.537,22.604,14.984,32.5c1.531,4.4,3.955,10.475,5.385,13.5c1.432,3.025,2.605,6.102,2.611,6.838
		s1.52,4.787,3.363,9c1.844,4.215,3.92,10.137,4.611,13.162s2.281,7.301,3.531,9.5s2.803,6.699,3.451,10
		c0.646,3.301,2.248,9.824,3.557,14.5c1.311,4.676,2.873,12.551,3.475,17.5s1.297,9.676,1.545,10.5
		c1.529,5.084,6.684,45.027,7.486,58c0.525,8.525,1.428,20.225,2.002,26s1.932,25.693,3.018,44.264
		c1.682,28.805,1.969,46.203,1.963,118.5c-0.006,87.893-0.654,112.855-3.945,151.736c-1.072,12.65-2.238,27.725-2.594,33.5
		c-0.75,12.203-4.777,44.113-6.943,55c-0.818,4.125-2.145,12.225-2.943,18c-0.797,5.775-2.105,12.074-2.904,14s-2.225,7.324-3.17,12
		c-0.943,4.676-2.516,10.074-3.492,12c-0.975,1.926-2.77,6.875-3.984,11c-1.217,4.125-3.076,9.074-4.133,11
		c-1.059,1.926-2.996,6.875-4.309,11c-5.379,16.914-14.625,40.205-20.842,52.5c-6.252,12.367-13.783,28.52-17.193,36.873
		c-6.287,15.402-10.561,24.848-12.432,27.482c-1.033,1.455-2.629,4.443-3.545,6.645c-0.918,2.199-2.869,6.025-4.34,8.5
		c-1.469,2.475-5.496,10.479-8.949,17.785s-10.24,19.682-15.082,27.5s-12,19.615-15.908,26.215
		c-7.654,12.924-10.248,16.637-23.223,33.215c-32.959,42.119-56.629,62.633-119.514,103.58c-5.738,3.738-17.998,10.754-27.24,15.594
		c-9.244,4.838-20.855,11.109-25.807,13.938c-4.949,2.826-17.324,9.219-27.5,14.201c-10.176,4.984-20.525,10.18-23,11.541
		c-7.887,4.346-38.404,19.168-41,19.918c-2.822,0.814-13.885,5.59-28.062,12.113c-5.26,2.42-10.211,4.406-11,4.412
		c-0.791,0.006-5.262,1.801-9.938,3.988s-9.324,3.982-10.332,3.988c-1.008,0.008-5.059,1.111-9,2.457
		c-12.639,4.314-43.109,8.939-68.668,10.422c-18.059,1.049-46.979,0.262-83.001-2.262c-38.684-2.707-74.529-4.533-101-5.145
		c-14.025-0.324-34.275-1.234-45-2.021c-27.818-2.041-63.178-3.295-111.5-3.953c-23.1-0.314-51.449-1.014-63-1.555
		c-128.795-6.016-273.17-6.391-342.5-0.889c-13.475,1.07-30.256,1.947-37.289,1.951c-17.445,0.008-43.955,1.674-63.211,3.973
		c-8.801,1.051-20.051,2.195-25,2.545c-17.711,1.244-44.254,4.576-59,7.406c-8.25,1.582-18.293,3.377-22.314,3.988
		c-4.023,0.609-8.63,1.791-10.24,2.621c-1.607,0.832-7.092,2.375-12.186,3.428s-11.332,2.836-13.867,3.963
		c-2.533,1.127-7.936,2.738-12,3.58c-4.066,0.844-10.543,2.598-14.393,3.9c-3.85,1.305-16.9,4.684-29,7.51s-26.051,6.451-31,8.057
		c-4.949,1.604-12.6,3.398-17,3.988c-4.4,0.592-11.824,2.393-16.5,4.002c-5.51,1.898-12.369,3.314-19.5,4.025
		c-6.051,0.604-14.262,2.002-18.25,3.109c-3.986,1.105-12.537,2.434-19,2.945c-6.463,0.514-17.6,1.615-24.75,2.449
		s-20.875,2.229-30.5,3.098c-9.625,0.867-21.55,1.988-26.5,2.488c-17.55,1.773-146.148,6.018-173.5,5.725
		C1055.125,1917.265,1041.175,1916.892,1031,1916.511z"/>
</g>
<defs>
	
	
		<inkscape:perspective  inkscape:vp_x="0 : 526.18109 : 1" id="perspective9" inkscape:vp_y="0 : 1000 : 0" inkscape:vp_z="744.09448 : 526.18109 : 1" sodipodi:type="inkscape:persp3d" inkscape:persp3d-origin="372.04724 : 350.78739 : 1">
		</inkscape:perspective>
</defs>
<sodipodi:namedview  id="base" inkscape:current-layer="svg2" inkscape:cy="1800" bordercolor="#666666" pagecolor="#ffffff" showgrid="false" inkscape:window-width="1280" inkscape:window-height="750" inkscape:pageshadow="2" inkscape:pageopacity="0.0" inkscape:window-x="-8" inkscape:window-y="-8" inkscape:zoom="0.15083333" borderopacity="1.0" gridtolerance="10.0" objecttolerance="10.0" guidetolerance="10.0" inkscape:cx="1007.7348">
	</sodipodi:namedview>
<g id="g2384">
	<path id="path2386" fill="#010101" d="M1031.001,1916.511c-20.328-0.76-40.739-2.482-48.5-4.096
		c-8.991-1.867-29.828-9.072-38-13.141c-9.18-4.568-18.175-9.916-31.587-18.775c-10.043-6.633-35.812-19.518-44.913-22.455
		c-3.025-0.977-6.794-2.43-8.375-3.229c-6.056-3.064-44.989-12.123-59.221-13.779c-3.248-0.377-9.279-1.504-13.404-2.504
		c-8.795-2.131-12.226-2.68-25-3.998c-5.225-0.541-14-2.115-19.5-3.5c-5.5-1.387-16.525-3.162-24.5-3.949
		s-19.916-2.549-26.535-3.916c-6.619-1.365-17.645-3-24.5-3.629c-6.854-0.631-14.636-1.559-17.289-2.062
		c-6.521-1.234-50.212-6.676-60.176-7.492c-4.4-0.361-12.95-1.701-19-2.977c-6.05-1.273-15.765-2.787-21.588-3.357
		c-5.822-0.574-14.598-2.176-19.5-3.559c-4.901-1.383-13.412-3.174-18.912-3.98s-13.375-2.559-17.5-3.895
		c-4.125-1.334-10.425-2.734-14-3.113s-13.7-2.439-22.5-4.58s-20.195-4.605-25.323-5.479c-5.128-0.875-11.428-2.404-14-3.398
		c-2.571-0.996-7.587-2.367-11.144-3.051c-3.557-0.682-8.615-2.33-11.241-3.66s-7.633-3.082-11.126-3.893
		c-3.494-0.811-8.11-2.229-10.259-3.152c-4.352-1.871-26.152-9.602-33.907-12.023c-11.243-3.51-24.722-9.078-37-15.283
		c-7.15-3.615-15.025-7.455-17.5-8.537c-23.646-10.33-65.089-37.17-89.068-57.686c-16.139-13.809-47.431-45.215-54.619-54.82
		c-2.264-3.023-6.412-8.199-9.218-11.5c-7.476-8.793-14.33-17.988-20.311-27.256c-2.906-4.502-8.633-13.037-12.726-18.965
		c-6.999-10.139-11.816-18.336-26.317-44.779c-3.317-6.049-7.453-13.25-9.19-16c-3.004-4.756-8.155-15.436-17.606-36.5
		c-3.495-7.789-12.39-25.463-16.105-32c-1.084-1.908-6.074-14.012-10.305-25c-3.685-9.568-17.234-38.99-18.628-40.449
		c-0.5-0.521-0.908-2.217-0.908-3.764c0-2.223,3.716-7.014,17.75-22.889c23.417-26.484,29.563-33.977,40.119-48.898
		c17.26-24.398,23.311-35.717,31.544-59c1.265-3.574,3.433-8.75,4.819-11.5c1.387-2.75,2.856-6.574,3.266-8.5
		c0.41-1.924,2.265-6.646,4.123-10.496c1.858-3.848,3.379-7.975,3.379-9.168s1.549-7.115,3.443-13.154
		c1.894-6.041,4.396-16.09,5.561-22.332c1.165-6.24,3.17-14.725,4.456-18.85s2.667-10.65,3.07-14.5
		c0.402-3.85,2.007-10.475,3.565-14.721s3.528-11.725,4.376-16.615c0.849-4.891,2.437-11.49,3.528-14.664s2.681-9.775,3.53-14.672
		c0.85-4.896,3.28-16.197,5.402-25.115c2.121-8.916,4.162-18.387,4.536-21.045c0.374-2.66,1.354-6.709,2.175-9
		c0.822-2.293,2.365-8.189,3.429-13.105c1.062-4.914,2.846-10.822,3.961-13.125c1.115-2.307,2.929-7.441,4.03-11.416
		s2.957-9.092,4.123-11.373c1.169-2.281,2.916-7.072,3.886-10.646c5.227-19.287,12.28-37.58,22.998-59.645
		c4.312-8.881,9.891-20.703,12.396-26.275c6.021-13.395,12.685-25.668,19.591-36.08c3.102-4.676,7.817-12.326,10.48-17
		c5.396-9.475,13.067-20.996,22.967-34.5c3.628-4.951,9.458-13.275,12.954-18.5c3.497-5.225,9.832-13.541,14.079-18.479
		c4.246-4.938,10.453-12.588,13.792-17s9.548-11.848,13.796-16.521c4.249-4.676,10.962-12.551,14.918-17.5
		c3.957-4.951,10.403-12.408,14.326-16.574s15.524-16.541,25.783-27.5c26.792-28.623,85.84-91.119,104.333-110.426
		c19.878-20.752,40.889-44.365,51.687-58.088c4.581-5.822,10.821-13.697,13.865-17.5c15.533-19.398,24.367-40.326,28.397-67.275
		c1.646-10.994,4.572-17.646,13.92-31.637c8.86-13.26,24.229-25.353,37.604-29.583c21.828-6.906,25.652-7.501,57.044-8.869
		c72.619-3.164,88.373-3.427,133.121-2.215c114.246,3.093,125.908,3.667,156.379,7.69c6.05,0.8,17.75,1.887,26,2.414
		c8.25,0.528,18.601,1.651,23,2.496c4.4,0.845,18.709,3.1,31.797,5.011c13.089,1.912,27.039,4.378,31,5.478
		c3.962,1.1,10.354,2.489,14.203,3.088s9.925,2.394,13.5,3.989c3.575,1.597,9.312,3.59,12.749,4.431
		c3.438,0.841,8.104,2.476,10.371,3.632c2.268,1.156,7.105,3.128,10.751,4.383c3.646,1.253,11.579,4.197,17.629,6.546
		c6.05,2.346,14.662,5.528,19.137,7.069c4.477,1.543,10.533,4.057,13.464,5.588c3.637,1.902,7.271,2.91,11.457,3.176
		c6.67,0.426,10.038-0.793,16.442-5.947c1.925-1.549,7.55-5.842,12.5-9.538c10.297-7.689,50.912-42.805,59.355-51.319
		c8.525-8.597,41.445-38.59,51.643-47.051c4.949-4.106,12.373-10.557,16.5-14.334c4.127-3.775,10.877-9.363,15.002-12.415
		c4.125-3.053,11.326-8.754,16-12.671c12.9-10.808,47.785-36.656,62.992-46.677c10.977-7.232,32.439-21.479,39.395-26.146
		c3.912-2.626,10.775-6.733,15.252-9.13c4.477-2.396,11.449-6.47,15.5-9.055c12.906-8.237,25.541-15.338,39.139-21.995
		c7.271-3.561,17.725-8.985,23.225-12.056c11.969-6.681,28.727-14.83,37-17.995c10.77-4.12,27.584-11.318,28.805-12.332
		c0.658-0.545,4.311-2.164,8.115-3.597c3.807-1.434,7.438-3.031,8.064-3.554c1.521-1.264,18.365-7.311,32.016-11.493
		c13.871-4.251,21.531-6.787,33.5-11.099c5.225-1.882,11.75-3.84,14.5-4.352c2.75-0.513,7.924-2.301,11.5-3.974
		c3.574-1.673,9.66-3.486,13.521-4.033c3.861-0.546,9.037-1.727,11.5-2.625c2.463-0.897,13.254-3.148,23.979-5.002
		s24.354-4.272,30.283-5.378c5.932-1.104,15.832-2.509,22-3.12c6.17-0.609,15.266-1.936,20.217-2.943
		c40.191-8.19,181.096-8.841,225.5-1.04c6.324,1.111,17.623,2.696,25.105,3.521c13.111,1.447,42.041,5.939,58.164,9.033
		c4.273,0.819,9.039,1.49,10.59,1.49s6.379,0.948,10.729,2.106c4.352,1.158,12.41,2.903,17.91,3.878s12.676,2.966,15.945,4.425
		s9.021,3.09,12.783,3.623c3.76,0.532,9.482,2.084,12.719,3.444c3.234,1.361,8.057,2.947,10.717,3.524
		c2.66,0.576,10.461,2.802,17.336,4.945c6.875,2.143,15.201,4.578,18.5,5.408c9.029,2.275,21.385,6.483,27,9.197
		c2.75,1.329,7.477,3.142,10.5,4.024c3.025,0.885,7.977,2.903,11,4.487c5.133,2.688,25.389,10.804,31,12.422
		c4.615,1.33,18.404,7.76,30,13.987c6.326,3.397,17.576,9.046,25,12.554c13.707,6.474,36.436,18.987,42.287,23.284
		c1.77,1.298,7.039,4.532,11.713,7.188c15.92,9.043,23.49,13.911,33.5,21.541c5.5,4.192,13.51,9.94,17.799,12.773
		c8.564,5.656,30.443,22.731,43.115,33.649c52.99,45.652,108.949,101.256,161.477,160.452c5.166,5.82,12.408,13.732,16.1,17.582
		c3.689,3.85,10.117,11.275,14.285,16.5s10.875,13.139,14.9,17.586c11.057,12.205,29.068,34.002,40.824,49.402
		c5.775,7.564,12.988,16.623,16.029,20.133c7.92,9.137,21.457,27.633,50.283,68.699c17.508,24.945,22.988,33.246,30.154,45.68
		c12.504,21.689,13.977,24.205,17.564,30c2.043,3.301,7.77,13.875,12.729,23.5c4.957,9.625,11.371,21.775,14.25,27
		c6.824,12.377,11.537,22.604,14.984,32.5c1.531,4.4,3.955,10.475,5.385,13.5c1.432,3.025,2.605,6.102,2.611,6.838
		s1.52,4.787,3.363,9c1.844,4.215,3.92,10.137,4.611,13.162s2.281,7.301,3.531,9.5s2.803,6.699,3.451,10
		c0.646,3.301,2.248,9.824,3.557,14.5c1.311,4.676,2.873,12.551,3.475,17.5s1.297,9.676,1.545,10.5
		c1.529,5.084,6.684,45.027,7.486,58c0.525,8.525,1.428,20.225,2.002,26s1.932,25.693,3.018,44.264
		c1.682,28.805,1.969,46.203,1.963,118.5c-0.006,87.893-0.654,112.855-3.945,151.736c-1.072,12.65-2.238,27.725-2.594,33.5
		c-0.75,12.203-4.777,44.113-6.943,55c-0.818,4.125-2.145,12.225-2.943,18c-0.797,5.775-2.105,12.074-2.904,14s-2.225,7.324-3.17,12
		c-0.943,4.676-2.516,10.074-3.492,12c-0.975,1.926-2.77,6.875-3.984,11c-1.217,4.125-3.076,9.074-4.133,11
		c-1.059,1.926-2.996,6.875-4.309,11c-5.379,16.914-14.625,40.205-20.842,52.5c-6.252,12.367-13.783,28.52-17.193,36.873
		c-6.287,15.402-10.561,24.848-12.432,27.482c-1.033,1.455-2.629,4.443-3.545,6.645c-0.918,2.199-2.869,6.025-4.34,8.5
		c-1.469,2.475-5.496,10.479-8.949,17.785s-10.24,19.682-15.082,27.5s-12,19.615-15.908,26.215
		c-7.654,12.924-10.248,16.637-23.223,33.215c-32.959,42.119-56.629,62.633-119.514,103.58c-5.738,3.738-17.998,10.754-27.24,15.594
		c-9.244,4.838-20.855,11.109-25.807,13.938c-4.949,2.826-17.324,9.219-27.5,14.201c-10.176,4.984-20.525,10.18-23,11.541
		c-7.887,4.346-38.404,19.168-41,19.918c-2.822,0.814-13.885,5.59-28.062,12.113c-5.26,2.42-10.211,4.406-11,4.412
		c-0.791,0.006-5.262,1.801-9.938,3.988s-9.324,3.982-10.332,3.988c-1.008,0.008-5.059,1.111-9,2.457
		c-12.639,4.314-43.109,8.939-68.668,10.422c-18.059,1.049-46.979,0.262-83-2.262c-38.684-2.707-74.529-4.533-101-5.145
		c-14.025-0.324-34.275-1.234-45-2.021c-27.818-2.041-63.178-3.295-111.5-3.953c-23.1-0.314-51.449-1.014-63-1.555
		c-128.795-6.016-273.17-6.391-342.5-0.889c-13.475,1.07-30.256,1.947-37.289,1.951c-17.445,0.008-43.955,1.674-63.211,3.973
		c-8.801,1.051-20.051,2.195-25,2.545c-17.711,1.244-44.254,4.576-59,7.406c-8.25,1.582-18.293,3.377-22.314,3.988
		c-4.023,0.609-8.631,1.791-10.24,2.621c-1.607,0.832-7.092,2.375-12.186,3.428s-11.332,2.836-13.867,3.963
		c-2.533,1.127-7.936,2.738-12,3.58c-4.066,0.844-10.543,2.598-14.393,3.9c-3.85,1.305-16.9,4.684-29,7.51s-26.051,6.451-31,8.057
		c-4.949,1.604-12.6,3.398-17,3.988c-4.4,0.592-11.824,2.393-16.5,4.002c-5.51,1.898-12.369,3.314-19.5,4.025
		c-6.051,0.604-14.262,2.002-18.25,3.109c-3.986,1.105-12.537,2.434-19,2.945c-6.463,0.514-17.6,1.615-24.75,2.449
		s-20.875,2.229-30.5,3.098c-9.625,0.867-21.55,1.988-26.5,2.488c-17.55,1.773-146.148,6.018-173.5,5.725
		C1055.126,1917.265,1041.176,1916.892,1031.001,1916.511z M2454.501,1804.646c6.049-2.969,13.793-7.604,17.209-10.305
		c7.008-5.539,14.154-15.523,17.836-24.916c1.322-3.373,3.314-7.678,4.43-9.568s2.764-6.666,3.66-10.613
		c0.898-3.947,2.672-9.939,3.943-13.314c1.766-4.691,2.664-10.461,3.814-24.512c2.52-30.76,2.705-36.746,1.676-53.877
		c-2.279-37.936-3.021-44.6-6.076-54.521c-1.621-5.268-3.236-12.592-3.594-16.275c-0.375-3.891-1.848-9.488-3.512-13.348
		c-1.578-3.654-3.576-9.697-4.441-13.43c-2.744-11.834-10.977-35.549-16.119-46.441c-10.15-21.492-34.035-61.307-42.123-70.209
		c-2.135-2.352-6.662-8.1-10.062-12.773c-13.406-18.443-59.523-65.971-79.643-82.078c-31.85-25.498-29.551-23.836-50.229-36.322
		c-5.375-3.244-11.572-7.047-13.771-8.447c-18.408-11.723-36.281-20.105-62.039-29.098c-4.42-1.545-10.271-3.932-13-5.307
		s-7.395-3.016-10.369-3.648c-2.977-0.631-7.385-2.02-9.799-3.088c-2.412-1.068-7.178-2.424-10.59-3.012
		c-3.412-0.59-11.604-2.18-18.203-3.535c-18.926-3.885-36.152-5.613-61.5-6.17c-21.023-0.461-24.811-0.287-35.938,1.643
		c-20.973,3.639-35.635,11.178-49.447,25.43c-17.416,17.967-28.014,32.904-40.881,57.633c-3.293,6.326-7.213,13.525-8.715,16
		c-5.496,9.066-9.91,17.938-14.965,30.078c-8.211,19.721-10.875,25.764-16.062,36.422c-6.217,12.775-10.994,23.234-10.994,24.07
		c0,0.357-1.57,4.539-3.488,9.291c-1.92,4.752-4.355,11.789-5.416,15.639c-3.785,13.771-8.404,25.518-18.09,46
		c-7.078,14.971-11.006,23.588-11.006,24.15c0,1.246-10.451,22.021-13.508,26.85c-6.238,9.855-10.342,17.248-18.529,33.375
		c-4.574,9.006-10.92,20.338-14.105,25.182s-9.123,15.025-13.193,22.625c-4.07,7.602-8.752,16.068-10.4,18.818
		c-7.068,11.789-11.711,19.197-13.789,22c-1.221,1.65-4.611,7.5-7.531,13c-2.922,5.5-9.385,16.975-14.363,25.5
		c-12.047,20.631-22.176,40.9-23.48,46.986c-2.424,11.299,0.484,14.465,15.629,17.012c21.57,3.625,49.432,7.018,65.953,8.027
		c36.58,2.236,235.062,0.971,313.32-1.998c14.025-0.531,39.9-1.232,57.5-1.559c17.602-0.324,33.029-0.801,34.285-1.057
		c3.221-0.66,4.502-4.631,3.137-9.707c-0.91-3.377-4.664-7.725-21.301-24.652c-22.557-22.953-35.412-36.375-66.121-69.035
		c-11.549-12.283-24.883-26.424-29.629-31.426c-4.744-5-11.475-12.467-14.953-16.592c-3.477-4.125-10.402-11.775-15.387-17
		c-4.986-5.227-10.848-11.75-13.029-14.5s-9.848-11.977-17.037-20.502c-7.188-8.525-16.766-20.227-21.283-26
		c-4.52-5.773-11.279-14.324-15.025-18.998c-3.746-4.676-10.107-13.451-14.137-19.5c-4.029-6.051-9.439-13.701-12.023-17
		c-6.297-8.039-15.512-23.855-23.547-40.41c-3.629-7.477-8.121-16.58-9.98-20.234c-1.861-3.654-3.932-8.83-4.6-11.5
		c-0.666-2.672-2.256-7.105-3.529-9.855c-3.143-6.775-3.123-10.5,0.051-10.5c1.662,0,4.102,1.9,8.021,6.25
		c9.123,10.121,27.141,34.004,39.166,51.92c6.152,9.166,14.086,20.416,17.629,25c3.543,4.582,9.982,13.506,14.311,19.83
		c4.326,6.326,11.979,16.9,17.002,23.5s10.646,14.25,12.492,17c1.848,2.75,7.229,9.5,11.959,15c4.729,5.5,11.105,13.15,14.168,17
		c6.096,7.66,10.447,12.541,33.959,38.08c21.436,23.283,57.146,57.17,79.838,75.758c22.268,18.24,29.537,23.861,47.418,36.666
		c17.314,12.396,24.484,16.994,44.148,28.297c3.85,2.215,9.025,5.277,11.502,6.809c13.508,8.348,26.404,14.596,39.998,19.375
		c5.225,1.838,11.102,4.025,13.061,4.861c1.959,0.838,6.684,2.232,10.5,3.102c3.816,0.867,9.422,2.676,12.455,4.018
		c8.002,3.537,15.949,4.396,38.984,4.205l20.5-0.168L2454.501,1804.646z M890.001,1791.357c6.722-1.275,16.614-5.686,20.02-8.922
		c4.31-4.098,7.627-8.998,15.521-22.93c4.197-7.406,8.45-14.365,9.45-15.465c1-1.102,3.147-4.25,4.772-7s5.318-8.826,8.206-13.5
		c2.89-4.676,6.592-11.154,8.23-14.396c1.638-3.244,7.363-12.918,12.723-21.5c5.36-8.582,11.688-19.203,14.061-23.604
		c5.971-11.07,12.943-22.52,15.533-25.5c1.193-1.375,4.632-6.102,7.64-10.5c11.664-17.062,18.418-26.365,25.893-35.668
		c4.271-5.316,9.658-12.453,11.97-15.857c2.312-3.404,9.226-12.104,15.362-19.332c6.138-7.229,15.601-18.729,21.028-25.557
		c5.428-6.826,13.521-16.455,17.98-21.395c4.461-4.938,10.033-11.395,12.381-14.344c2.35-2.949,8.666-9.973,14.036-15.605
		c5.371-5.633,12.638-13.617,16.146-17.742c7.099-8.348,70.168-74,71.088-74c0.32,0,6.287-5.615,13.259-12.477
		c6.974-6.861,17.521-16.857,23.441-22.213c5.918-5.354,13.947-12.715,17.838-16.355c3.893-3.641,10.418-9.164,14.5-12.273
		c4.084-3.107,10.574-8.145,14.424-11.191c11.801-9.34,21.582-15.914,31.146-20.934c19.312-10.139,36.611-27.773,51.062-52.057
		c8.201-13.785,19.729-44.477,21.781-58c0.334-2.201,1.898-7.826,3.479-12.5c1.58-4.676,3.367-12.684,3.979-17.795
		c0.607-5.113,1.996-12.988,3.082-17.5c5.404-22.43,7.33-89.463,4.473-155.705c-1.549-35.904-2.521-47.256-5.082-59.326
		c-0.836-3.945-1.947-13.434-2.469-21.084c-1.039-15.27-2.482-24.965-4.625-31.064c-0.768-2.188-2.045-9.83-2.838-16.986
		c-0.795-7.156-2.562-17.967-3.926-24.023c-1.365-6.059-3.182-15.516-4.037-21.016c-2.127-13.688-8.064-38.285-11.615-48.133
		c-1.613-4.473-3.416-10.771-4.006-14c-0.59-3.227-2.346-8.117-3.902-10.867c-1.559-2.75-3.521-7.475-4.363-10.5
		c-4.756-17.062-14.988-42.301-22.912-56.5c-17.09-30.621-26.336-43.963-38.883-56.104c-9.424-9.121-14.461-11.791-22.342-11.848
		c-7.246-0.049-11.676,2.264-24.654,12.875c-13.312,10.885-23.45,15.35-49.846,21.951c-5.225,1.309-13.775,3.105-19,3.996
		c-5.225,0.893-13.1,2.389-17.5,3.326c-11.75,2.502-48.335,2.463-57.5-0.064c-3.575-0.982-11.225-2.844-17-4.129
		c-14.627-3.258-32.033-9.711-41.5-15.387c-11.707-7.02-36.489-25.998-51.12-39.15c-7.015-6.307-25.157-23.432-40.315-38.057
		c-54.669-52.738-68.194-64.719-93.636-82.934c-20.111-14.4-32.846-19.771-51.929-21.908c-31.701-3.547-62.09-1.436-92.011,6.398
		c-4.956,1.297-11.8,2.863-15.208,3.482c-3.408,0.617-8.671,2.217-11.695,3.555c-3.022,1.338-8.447,3.115-12.051,3.951
		s-8.719,2.617-11.365,3.959c-2.646,1.34-7.57,3.152-10.943,4.027c-3.37,0.873-8.063,2.4-10.429,3.393
		c-2.364,0.992-7.448,2.623-11.298,3.627s-11.104,3.561-16.121,5.682s-9.656,3.857-10.309,3.857
		c-0.653,0-13.874,6.252-29.379,13.895c-27.771,13.686-35.948,18.562-58.691,35c-11.581,8.371-16.864,12.492-42.5,33.154
		c-50.259,40.512-128.537,119.438-171,172.42c-4.95,6.176-12.378,15.234-16.506,20.131c-4.129,4.895-10.422,12.951-13.985,17.9
		c-3.562,4.949-9.635,13.104-13.492,18.121c-3.858,5.018-10.615,14.807-15.017,21.752c-4.4,6.947-9.986,15.668-12.413,19.381
		c-10.327,15.787-17.271,29.281-24.564,47.738c-2.607,6.596-6.207,14.92-8,18.5c-1.793,3.578-3.576,7.633-3.964,9.008
		c-0.389,1.375-1.988,5.65-3.559,9.5c-4.129,10.135-8.623,24.709-12.079,39.168c-1.659,6.945-3.687,14.229-4.505,16.188
		s-2.188,7.629-3.047,12.604c-0.857,4.973-2.675,11.697-4.04,14.943s-3.142,9.771-3.946,14.5
		c-0.806,4.729-2.559,11.973-3.896,16.098s-2.705,9.525-3.039,12s-1.672,10.125-2.974,17c-4.176,22.068-6.368,35.326-7.03,42.5
		c-0.355,3.85-1.685,11.5-2.952,17s-2.813,14.217-3.434,19.367c-0.62,5.154-2.252,12.578-3.625,16.5
		c-1.374,3.924-3.183,11.363-4.018,16.535c-0.836,5.172-2.566,11.922-3.846,15c-1.28,3.078-2.849,8.654-3.485,12.391
		c-0.636,3.734-2.237,9.809-3.556,13.5c-1.319,3.688-3.354,10.531-4.521,15.207s-3.158,10.525-4.423,13
		c-1.265,2.475-2.873,6.301-3.572,8.5c-1.183,3.721-4.787,10.352-10.867,20c-1.387,2.199-3.992,6.596-5.789,9.77
		c-5.853,10.328-18.564,25.848-33.106,40.416l-14.253,14.277v4.752c0,4.555,0.254,4.979,6.148,10.27
		c28.464,25.543,45.182,42.768,49.224,50.717c2.011,3.955,2.107,11.473,0.194,15.172c-0.788,1.525-4.051,4.955-7.25,7.623
		c-18.08,15.076-24.39,26.254-21.455,38.006c3.435,13.75,13.155,34.562,22.686,48.568c14.817,21.773,38.025,52.646,43.926,58.432
		c1.122,1.1,6.601,7.4,12.172,14c18.096,21.436,56.879,58.025,82.221,77.574c6.746,5.205,48.684,33.105,55.135,36.684
		c6.188,3.432,30.616,16.025,45.006,23.203c14.644,7.307,35.61,15.316,55.494,21.205c3.85,1.141,9.025,3.092,11.5,4.336
		c2.475,1.246,7.2,2.814,10.5,3.49c3.3,0.674,8.65,2.332,11.89,3.688s9.539,3.273,14,4.266c4.462,0.992,14.396,3.244,22.079,5.006
		c7.685,1.76,18.708,3.811,24.5,4.551c5.792,0.742,14.059,2.275,18.367,3.404c4.311,1.131,13.112,2.484,19.562,3.006
		c6.448,0.521,15.298,1.852,19.664,2.953c12.43,3.135,18.754,4.035,35.974,5.117c8.817,0.553,20.519,1.662,26,2.465
		c16.384,2.396,31.391,3.484,62.985,4.562c16.488,0.561,42.578,1.674,57.979,2.471
		C819.078,1793.238,875.538,1794.103,890.001,1791.357z M572.001,1497.853c-9.895-0.74-53.93-5.352-60.411-6.322
		c-3.801-0.572-8.896-1.916-11.322-2.99c-2.426-1.072-7.19-2.459-10.589-3.078c-6.354-1.158-10.567-2.467-28.678-8.906
		c-31.812-11.309-35.77-13.389-64.368-33.822c-13.628-9.738-32.845-28.26-40.146-38.691c-2.695-3.85-7.421-10.375-10.503-14.5
		c-7.243-9.695-12.203-18.721-16.012-29.137c-7.468-20.432-13.729-40.875-14.327-46.785c-0.356-3.531-1.646-11.406-2.864-17.5
		c-3.391-16.957-3.222-43.49,0.416-65.078c1.481-8.801,3-19.15,3.374-23c0.373-3.85,1.729-9.814,3.012-13.254
		c1.283-3.441,2.837-9.064,3.453-12.5c1.299-7.236,6.989-27.865,10.688-38.746c6.319-18.588,7.38-21.402,9.717-25.812
		c1.364-2.578,8-16.578,14.742-31.111c9.326-20.1,15.106-30.975,24.157-45.453c13.537-21.654,17.813-26.982,29.419-36.66
		c10.854-9.051,14.895-11.314,26.66-14.938c8.828-2.719,11.17-3.025,23.018-3.025c9.988,0,15.046,0.486,20.847,2.006
		c4.212,1.105,11.13,2.488,15.373,3.08c4.679,0.65,9.916,2.184,13.306,3.895c3.075,1.553,7.604,3.334,10.065,3.957
		s7.175,2.219,10.475,3.545c3.3,1.328,10.5,4.068,16,6.094c13.128,4.83,28.921,12.842,39.603,20.088
		c29.187,19.803,30.01,20.439,53.897,41.711c16.293,14.506,42.245,41.041,51.961,53.127c3.537,4.4,8.967,10.924,12.065,14.5
		c8.15,9.404,14.455,17.779,24.46,32.5c4.859,7.15,11.629,17.049,15.042,22c3.412,4.949,9.253,14.625,12.979,21.5
		c3.727,6.875,8.885,16.324,11.463,21c7.522,13.637,7.811,14.186,11.009,21c3.377,7.197,7.84,19.285,11.629,31.5
		c1.364,4.4,3.109,10.025,3.878,12.5s2.09,6.525,2.937,9c2.491,7.275,6.683,36.441,7.257,50.5c0.469,11.459,0.153,15.311-2.661,32.5
		c-2.018,12.311-4.046,21.4-5.507,24.656c-1.272,2.836-3.049,7.684-3.946,10.771c-2.152,7.402-10.57,23.438-15.996,30.465
		c-12.835,16.629-35.013,31.975-49.226,34.062c-20.138,2.957-32.093,4.355-43.343,5.074
		C673.079,1498.332,581.429,1498.56,572.001,1497.853z M506.663,1303.97c2.213-2.213,2.479-3.133,1.926-6.604
		c-0.908-5.684-2.611-8.576-10.923-18.562c-9.153-10.998-14.81-15.992-24.514-21.646c-16.867-9.828-31.327-9.881-34.021-0.125
		c-1.284,4.652,0.147,9.615,4.062,14.076c4.618,5.26,16.907,14.928,25.603,20.143c4.237,2.541,10.18,6.203,13.205,8.137
		c5.877,3.758,14.721,7.012,19.295,7.102C503.019,1306.519,505.079,1305.554,506.663,1303.97z M1952.544,1277.087
		c1.35-1.348,4.189-5.961,6.311-10.25c2.121-4.287,5.014-10.047,6.428-12.797c4.344-8.455,9.465-21.768,10.195-26.5
		c0.381-2.475,1.336-7.061,2.119-10.188c0.785-3.129,1.891-10.553,2.457-16.5c2.02-21.188,7.188-31.34,25.314-49.725
		c13.242-13.428,42.689-35.479,57.219-42.846c23.619-11.977,38.926-19.922,39.852-20.691c2.504-2.076,49.645-18.035,53.363-18.064
		c0.936-0.006,5.523-1.365,10.199-3.018s13.176-3.68,18.891-4.504c5.713-0.826,14.938-2.656,20.5-4.066
		c5.561-1.41,15.219-2.951,21.463-3.424c10.914-0.824,14.016-1.566,37.189-8.895c9.58-3.027,19.455-9.646,31.6-21.174
		c6.332-6.01,13.896-13.736,16.812-17.168c10.807-12.719,37.1-52.947,48.521-74.238c2.359-4.4,7.73-12.951,11.936-19
		c4.203-6.051,11.555-16.85,16.338-24c29.082-43.475,79.84-97.812,125.25-134.08c18.805-15.02,26.1-20.172,51.838-36.625
		c15.121-9.666,36.338-20.162,48.162-23.828c2.199-0.682,6.193-2.34,8.873-3.684c2.682-1.344,8.082-3.098,12-3.898
		c3.92-0.799,11.082-2.809,15.918-4.465c8.773-3.004,8.838-3.012,32.029-3.041c24.826-0.029,26.078,0.105,34.959,3.779
		c3.18,1.316,9.479,2.889,14,3.494c4.521,0.607,10.695,2.227,13.721,3.6s8.65,3.314,12.5,4.312
		c15.979,4.145,43.375,14.504,59.256,22.406c6.191,3.08,14.855,7.158,19.25,9.064c20.059,8.691,24.109,10.521,33.494,15.117
		c5.5,2.691,17.875,8.99,27.5,13.992c9.625,5.004,18.625,9.426,20,9.828c1.375,0.4,9.25,4.023,17.5,8.053
		c27.666,13.504,30.51,14.65,37.5,15.129c15.299,1.045,19.404-9.355,11.596-29.367c-1.979-5.066-3.596-9.693-3.596-10.283
		c0-1.523-9.492-25.881-12.971-33.281c-6.842-14.557-17.908-39.414-18.572-41.725c-1.264-4.387-12.877-27.143-19.285-37.793
		c-3.406-5.66-8.217-14.211-10.688-19c-2.473-4.789-6.404-11.717-8.738-15.395c-18.258-28.756-37.064-56.752-47.014-69.982
		c-4.271-5.682-10.771-14.379-14.447-19.33c-9.342-12.584-30.732-39.221-45.773-57c-6.98-8.25-15.908-18.824-19.842-23.5
		c-7.062-8.395-32.807-35.611-58.797-62.158c-27.826-28.423-69.924-67.941-89.373-83.897c-5.5-4.513-13.15-10.998-17-14.413
		c-7.43-6.591-19.914-16.691-44.129-35.708c-27.539-21.625-39.771-30.625-62.371-45.892c-12.375-8.358-24.076-16.408-26-17.888
		c-1.926-1.479-7.551-5.097-12.5-8.038c-9.52-5.657-18.807-11.304-40-24.312c-7.15-4.39-19.301-11.015-27-14.724
		c-7.701-3.708-16.629-8.343-19.842-10.296c-3.213-1.954-9.738-5.424-14.5-7.709c-4.762-2.286-10.264-4.996-12.227-6.021
		c-1.961-1.025-7.135-3.183-11.5-4.794c-12.053-4.449-20.311-7.857-26.934-11.113c-16.414-8.068-42.494-16.979-61.633-21.059
		c-5.152-1.099-11.393-2.652-13.867-3.454c-2.475-0.803-7.65-1.944-11.5-2.538c-3.85-0.593-11.049-2.364-16-3.937
		c-4.949-1.571-12.15-3.18-16-3.571c-3.85-0.393-13.441-2.013-21.314-3.602c-7.873-1.588-19.799-3.344-26.5-3.901
		c-6.701-0.56-21.859-1.906-33.686-2.994c-85.367-7.856-219.576-7.63-275.5,0.465c-5.5,0.797-15.174,1.92-21.5,2.498
		c-6.324,0.577-15.549,2.176-20.5,3.553c-4.949,1.377-13.232,2.986-18.406,3.576c-5.928,0.676-12.148,2.162-16.828,4.021
		c-4.084,1.62-10.779,3.414-14.887,3.985c-4.104,0.57-9.354,1.707-11.67,2.525c-2.314,0.817-9.609,2.812-16.209,4.433
		c-14.857,3.646-29.365,8.099-40.5,12.428c-4.674,1.817-10.074,3.638-12,4.045c-1.924,0.405-5.975,1.971-9,3.477
		s-7.975,3.311-11,4.01c-10.197,2.358-15.398,6.055-17.025,12.1c-1.053,3.908,0.121,21.896,3.975,60.904
		c1.061,10.726,2.182,26.476,2.494,35c0.713,19.419,3.027,44.326,4.975,53.5c0.816,3.851,1.979,14.65,2.584,24
		c1.131,17.483,2.234,27.12,4.016,35.067c0.561,2.503,1.674,10.712,2.475,18.242c1.809,17.013,4.834,36.778,6.842,44.69
		c0.838,3.301,2.039,9.51,2.672,13.797c0.631,4.287,2.254,11.037,3.605,15c1.35,3.963,2.896,10.289,3.436,14.062
		s2.32,9.916,3.961,13.652c1.639,3.734,3.666,10.098,4.504,14.141c0.838,4.041,2.191,9.045,3.008,11.121
		c0.818,2.074,2.43,8.125,3.58,13.441c1.152,5.318,3.389,13.174,4.967,17.457c1.578,4.281,3.594,10.607,4.479,14.057
		c0.883,3.449,2.293,7.336,3.133,8.639s3.006,6.703,4.812,12c1.807,5.299,4.732,13.457,6.502,18.133
		c1.768,4.674,5.381,14.574,8.027,22c10.285,28.844,13.598,37.223,19.564,49.5c3.768,7.746,6.936,15.469,11.9,29
		c5.771,15.738,8.984,23.41,19.047,45.5c5.201,11.42,11.471,26.756,11.471,28.062c0,0.643,1.801,5.221,4,10.178
		c2.201,4.957,3.994,9.518,3.986,10.135c-0.01,0.619,1.51,4.275,3.377,8.125c12.143,25.057,12.355,25.545,20.152,46.5
		c9.275,24.932,15.359,39.877,19.805,48.646c2.807,5.537,10.68,25.723,10.68,27.379c0,1.666,8.963,25.932,12.549,33.975
		c1.84,4.125,3.658,8.852,4.043,10.5c0.383,1.65,1.949,5.512,3.48,8.58s3.516,8.469,4.408,12s2.482,8.67,3.535,11.42
		c2.277,5.957,8.271,27.037,11.66,41c1.336,5.5,3.475,12.926,4.756,16.5c1.279,3.576,2.654,8.977,3.057,12
		c0.4,3.025,2.01,9.23,3.576,13.787c1.566,4.559,3.348,11.982,3.955,16.5c0.607,4.52,1.992,11.725,3.076,16.016
		c1.086,4.289,2.848,15.314,3.92,24.5c2.379,20.396,6.689,53.721,7.922,61.197c0.496,3.025,1.197,10,1.555,15.5
		s1.936,16.75,3.504,25s3.371,21.242,4.004,28.871s2.027,17.08,3.1,21c1.068,3.922,2.668,11.404,3.551,16.629
		c2.029,11.998,6.018,25.309,8.549,28.525C1940.994,1280.619,1949.003,1280.63,1952.544,1277.087z"/>
</g>
</svg>
