<?xml version="1.0" encoding="utf-8"?>
<!-- Generator: Adobe Illustrator 15.1.0, SVG Export Plug-In . SVG Version: 6.00 Build 0)  -->
<!DOCTYPE svg PUBLIC "-//W3C//DTD SVG 1.1//EN" "http://www.w3.org/Graphics/SVG/1.1/DTD/svg11.dtd">
<svg version="1.1"
	 id="svg2" xmlns:sodipodi="http://sodipodi.sourceforge.net/DTD/sodipodi-0.dtd" inkscape:version="0.46" xmlns:inkscape="http://www.inkscape.org/namespaces/inkscape" inkscape:output_extension="org.inkscape.output.svg.inkscape" xmlns:svg="http://www.w3.org/2000/svg" xmlns:dc="http://purl.org/dc/elements/1.1/" xmlns:cc="http://creativecommons.org/ns#" xmlns:rdf="http://www.w3.org/1999/02/22-rdf-syntax-ns#" sodipodi:docname="faceplant.svg" sodipodi:version="0.32"
	 xmlns="http://www.w3.org/2000/svg" xmlns:xlink="http://www.w3.org/1999/xlink" x="0px" y="0px" width="3043.993px"
	 height="1917.351px" viewBox="276 597.461 3043.993 1917.351" enable-background="new 276 597.461 3043.993 1917.351"
	 xml:space="preserve">
<g id="g2384_1_">
	<path id="path2386_1_" fill="#FFFFFF" d="M1307,2513.971c-20.328-0.761-40.739-2.484-48.5-4.096
		c-8.991-1.868-29.828-9.073-38-13.141c-9.18-4.569-18.175-9.915-31.587-18.775c-10.043-6.634-35.812-19.518-44.913-22.455
		c-3.025-0.977-6.794-2.43-8.375-3.229c-6.056-3.064-44.989-12.123-59.221-13.779c-3.248-0.378-9.279-1.505-13.404-2.504
		c-8.795-2.131-12.226-2.68-25-3.999c-5.225-0.54-14-2.115-19.5-3.5s-16.525-3.162-24.5-3.948
		c-7.975-0.787-19.916-2.549-26.535-3.916c-6.619-1.366-17.645-3-24.5-3.63c-6.855-0.631-14.636-1.558-17.289-2.061
		c-6.521-1.235-50.212-6.677-60.176-7.494c-4.4-0.361-12.95-1.7-19-2.975c-6.05-1.275-15.765-2.787-21.588-3.359
		c-5.822-0.573-14.598-2.174-19.5-3.557c-4.901-1.383-13.412-3.174-18.912-3.981c-5.5-0.807-13.375-2.559-17.5-3.894
		c-4.125-1.334-10.425-2.736-14-3.115s-13.7-2.439-22.5-4.579s-20.195-4.605-25.323-5.479c-5.128-0.875-11.428-2.404-14-3.399
		s-7.587-2.367-11.144-3.05c-3.557-0.682-8.615-2.329-11.241-3.66c-2.626-1.33-7.633-3.082-11.126-3.893
		c-3.494-0.811-8.11-2.229-10.259-3.152c-4.351-1.871-26.152-9.602-33.907-12.023c-11.243-3.51-24.722-9.078-37-15.284
		c-7.15-3.614-15.025-7.455-17.5-8.536c-23.646-10.33-65.089-37.171-89.068-57.687c-16.139-13.808-47.431-45.215-54.619-54.819
		c-2.264-3.025-6.412-8.2-9.218-11.5c-7.476-8.793-14.33-17.989-20.311-27.256c-2.906-4.502-8.633-13.037-12.726-18.965
		c-6.999-10.139-11.816-18.336-26.317-44.779c-3.317-6.05-7.453-13.25-9.19-16c-3.004-4.756-8.155-15.436-17.606-36.5
		c-3.495-7.789-12.39-25.463-16.105-32c-1.084-1.908-6.074-14.013-10.305-25c-3.685-9.569-17.234-38.991-18.628-40.45
		c-0.5-0.522-0.908-2.216-0.908-3.763c0-2.224,3.716-7.015,17.75-22.889c23.417-26.484,29.563-33.977,40.119-48.898
		c17.26-24.399,23.311-35.717,31.544-59c1.265-3.575,3.433-8.75,4.819-11.5c1.387-2.75,2.856-6.575,3.266-8.5
		c0.41-1.925,2.265-6.648,4.123-10.496c1.858-3.849,3.379-7.975,3.379-9.169s1.549-7.114,3.443-13.154
		c1.894-6.04,4.396-16.089,5.561-22.331s3.17-14.725,4.456-18.85c1.286-4.125,2.667-10.65,3.07-14.5
		c0.402-3.85,2.007-10.475,3.565-14.722c1.558-4.246,3.528-11.723,4.376-16.614c0.849-4.891,2.437-11.49,3.528-14.664
		s2.681-9.776,3.53-14.673c0.85-4.896,3.28-16.197,5.402-25.114c2.121-8.917,4.162-18.388,4.536-21.046
		c0.374-2.659,1.353-6.709,2.175-9c0.822-2.292,2.365-8.189,3.428-13.105c1.063-4.915,2.846-10.822,3.961-13.126
		c1.115-2.305,2.929-7.44,4.03-11.415c1.102-3.974,2.957-9.092,4.124-11.373c1.168-2.281,2.916-7.072,3.885-10.647
		c5.227-19.287,12.28-37.579,22.998-59.644c4.312-8.88,9.891-20.703,12.396-26.275c6.02-13.395,12.684-25.668,19.591-36.081
		c3.101-4.675,7.817-12.325,10.48-17c5.397-9.474,13.067-20.995,22.967-34.5c3.628-4.95,9.458-13.275,12.954-18.5
		c3.497-5.225,9.832-13.54,14.079-18.478c4.246-4.938,10.453-12.587,13.792-17c3.339-4.412,9.548-11.848,13.796-16.522
		c4.249-4.675,10.962-12.55,14.918-17.5c3.957-4.95,10.403-12.408,14.326-16.574s15.525-16.541,25.783-27.5
		c26.792-28.623,85.84-91.119,104.333-110.426c19.878-20.752,40.889-44.364,51.687-58.087c4.581-5.823,10.821-13.698,13.865-17.5
		c15.533-19.399,24.367-40.327,28.398-67.276c1.646-10.994,4.572-17.646,13.92-31.637c8.86-13.26,24.229-25.352,37.603-29.583
		c21.828-6.906,25.652-7.501,57.044-8.869c72.619-3.164,88.373-3.427,133.121-2.215c114.246,3.093,125.908,3.667,156.379,7.691
		c6.05,0.799,17.75,1.886,26,2.414s18.6,1.651,23,2.496c4.4,0.844,18.709,3.099,31.797,5.011c13.089,1.912,27.039,4.377,31,5.477
		c3.962,1.1,10.354,2.489,14.203,3.088s9.925,2.394,13.5,3.989c3.575,1.597,9.312,3.59,12.749,4.431
		c3.437,0.841,8.104,2.475,10.371,3.632c2.268,1.156,7.105,3.128,10.751,4.382c3.646,1.253,11.579,4.198,17.629,6.546
		c6.05,2.347,14.662,5.528,19.137,7.07c4.476,1.542,10.533,4.056,13.463,5.588c3.637,1.901,7.271,2.909,11.457,3.175
		c6.67,0.425,10.039-0.793,16.443-5.947c1.925-1.55,7.55-5.842,12.5-9.538c10.297-7.689,50.912-42.805,59.355-51.319
		c8.525-8.597,41.445-38.59,51.643-47.051c4.948-4.107,12.373-10.557,16.5-14.334c4.126-3.776,10.877-9.363,15.002-12.415
		c4.125-3.053,11.325-8.754,16-12.671c12.9-10.808,47.785-36.656,62.991-46.677c10.977-7.232,32.44-21.478,39.395-26.146
		c3.913-2.626,10.776-6.734,15.252-9.13s11.45-6.47,15.5-9.055c12.907-8.237,25.542-15.338,39.138-21.995
		c7.273-3.561,17.725-8.985,23.225-12.056c11.969-6.68,28.727-14.83,37-17.995c10.77-4.12,27.584-11.318,28.806-12.332
		c0.657-0.545,4.309-2.164,8.115-3.597s7.436-3.031,8.063-3.553c1.523-1.264,18.366-7.311,32.016-11.493
		c13.871-4.251,21.531-6.788,33.5-11.099c5.225-1.882,11.75-3.84,14.5-4.352s7.925-2.3,11.5-3.973s9.66-3.487,13.522-4.033
		s9.038-1.727,11.5-2.625c2.463-0.898,13.253-3.149,23.978-5.002c10.725-1.854,24.353-4.273,30.283-5.378
		c5.932-1.105,15.832-2.509,22-3.12c6.17-0.61,15.267-1.936,20.217-2.944c40.192-8.19,181.096-8.841,225.5-1.04
		c6.325,1.111,17.623,2.696,25.106,3.522c13.112,1.447,42.04,5.939,58.164,9.033c4.273,0.819,9.039,1.49,10.59,1.49
		s6.379,0.948,10.729,2.106c4.351,1.159,12.41,2.904,17.91,3.878c5.5,0.975,12.676,2.966,15.945,4.425s9.021,3.09,12.782,3.623
		s9.484,2.084,12.719,3.445c3.235,1.361,8.058,2.947,10.718,3.524c2.66,0.576,10.461,2.802,17.336,4.945s15.2,4.578,18.5,5.409
		c9.029,2.275,21.384,6.483,27,9.197c2.75,1.329,7.475,3.141,10.5,4.024c3.025,0.885,7.975,2.904,11,4.488
		c5.133,2.688,25.388,10.803,31,12.421c4.615,1.33,18.404,7.76,30,13.988c6.325,3.397,17.575,9.046,25,12.553
		c13.706,6.474,36.435,18.988,42.287,23.285c1.768,1.298,7.038,4.532,11.713,7.188c15.92,9.043,23.49,13.911,33.5,21.541
		c5.5,4.193,13.51,9.941,17.799,12.774c8.564,5.656,30.442,22.731,43.115,33.649c52.989,45.652,108.948,101.256,161.476,160.452
		c5.165,5.82,12.409,13.732,16.099,17.582s10.118,11.275,14.286,16.5s10.874,13.139,14.901,17.586
		c11.055,12.205,29.067,34.002,40.824,49.402c5.775,7.564,12.988,16.624,16.029,20.133c7.92,9.137,21.456,27.632,50.283,68.7
		c17.508,24.944,22.988,33.246,30.155,45.679c12.503,21.689,13.975,24.205,17.563,30c2.043,3.3,7.771,13.875,12.729,23.5
		s11.371,21.775,14.251,27c6.823,12.377,11.537,22.603,14.983,32.5c1.531,4.4,3.955,10.475,5.386,13.5s2.604,6.102,2.61,6.838
		s1.52,4.786,3.363,9c1.845,4.214,3.92,10.137,4.612,13.162s2.281,7.3,3.531,9.5c1.251,2.2,2.804,6.7,3.451,10
		s2.249,9.825,3.558,14.5c1.31,4.675,2.873,12.55,3.474,17.5c0.602,4.95,1.296,9.675,1.545,10.5c1.528,5.084,6.684,45.028,7.485,58
		c0.526,8.525,1.428,20.225,2.002,26c0.575,5.775,1.933,25.693,3.018,44.263c1.682,28.806,1.97,46.203,1.964,118.5
		c-0.007,87.894-0.656,112.856-3.947,151.737c-1.071,12.65-2.237,27.725-2.593,33.5c-0.75,12.202-4.778,44.113-6.943,55
		c-0.819,4.125-2.145,12.225-2.943,18s-2.106,12.075-2.905,14c-0.798,1.925-2.225,7.325-3.169,12s-2.516,10.075-3.492,12
		s-2.771,6.875-3.986,11s-3.075,9.075-4.132,11c-1.058,1.925-2.995,6.875-4.308,11c-5.38,16.914-14.626,40.205-20.842,52.5
		c-6.252,12.367-13.784,28.519-17.193,36.872c-6.288,15.404-10.56,24.848-12.432,27.484c-1.033,1.454-2.629,4.443-3.545,6.644
		c-0.918,2.2-2.87,6.025-4.339,8.5c-1.47,2.475-5.497,10.479-8.95,17.785c-3.454,7.306-10.24,19.681-15.082,27.5
		c-4.841,7.818-12,19.615-15.908,26.215c-7.654,12.924-10.249,16.636-23.223,33.215c-32.959,42.118-56.629,62.633-119.513,103.58
		c-5.739,3.737-17.998,10.754-27.241,15.593c-9.244,4.839-20.856,11.11-25.807,13.937c-4.95,2.827-17.325,9.219-27.5,14.203
		s-20.525,10.178-23,11.541c-7.887,4.344-38.404,19.168-41,19.918c-2.822,0.814-13.884,5.589-28.063,12.113
		c-5.26,2.42-10.21,4.405-11,4.411s-5.262,1.802-9.937,3.989s-9.324,3.983-10.332,3.989s-5.058,1.111-9,2.457
		c-12.639,4.313-43.109,8.938-68.668,10.421c-18.059,1.049-46.979,0.261-83-2.261c-38.684-2.708-74.529-4.534-101-5.146
		c-14.025-0.324-34.275-1.233-45-2.021c-27.818-2.041-63.178-3.295-111.5-3.953c-23.1-0.315-51.45-1.014-63-1.554
		c-128.795-6.017-273.17-6.392-342.5-0.889c-13.475,1.069-30.255,1.946-37.289,1.95c-17.445,0.008-43.955,1.675-63.211,3.974
		c-8.8,1.051-20.05,2.195-25,2.544c-17.711,1.245-44.254,4.577-59,7.406c-8.25,1.583-18.292,3.378-22.314,3.988
		c-4.023,0.61-8.632,1.791-10.241,2.622c-1.608,0.832-7.092,2.374-12.185,3.428c-5.093,1.053-11.333,2.836-13.867,3.963
		s-7.935,2.737-12,3.58c-4.066,0.843-10.543,2.598-14.393,3.901c-3.85,1.303-16.9,4.682-29,7.509c-12.1,2.826-26.05,6.451-31,8.056
		c-4.95,1.604-12.6,3.399-17,3.989c-4.4,0.591-11.825,2.392-16.5,4.002c-5.51,1.898-12.37,3.314-19.5,4.025
		c-6.05,0.604-14.262,2.003-18.249,3.11c-3.987,1.106-12.538,2.433-19,2.945c-6.463,0.514-17.601,1.616-24.751,2.449
		c-7.15,0.834-20.875,2.228-30.5,3.097s-21.55,1.989-26.5,2.489c-17.55,1.774-146.149,6.018-173.5,5.725
		C1331.125,2514.724,1317.175,2514.352,1307,2513.971z"/>
</g>
<defs>
	
	
		<inkscape:perspective  inkscape:vp_x="0 : 526.18109 : 1" id="perspective9" inkscape:vp_y="0 : 1000 : 0" inkscape:vp_z="744.09448 : 526.18109 : 1" sodipodi:type="inkscape:persp3d" inkscape:persp3d-origin="372.04724 : 350.78739 : 1">
		</inkscape:perspective>
</defs>
<sodipodi:namedview  bordercolor="#666666" id="base" inkscape:cy="1800" pagecolor="#ffffff" showgrid="false" inkscape:window-width="1280" inkscape:window-height="750" inkscape:pageshadow="2" inkscape:pageopacity="0.0" inkscape:window-x="-8" inkscape:window-y="-8" inkscape:current-layer="svg2" inkscape:zoom="0.15083333" gridtolerance="10.0" objecttolerance="10.0" borderopacity="1.0" guidetolerance="10.0" inkscape:cx="1007.7348">
	</sodipodi:namedview>
<g id="g2384">
	<path id="path2386" fill="#010101" d="M1307,2513.971c-20.328-0.761-40.739-2.484-48.5-4.096c-8.991-1.868-29.828-9.073-38-13.141
		c-9.18-4.569-18.175-9.915-31.587-18.775c-10.043-6.634-35.812-19.518-44.913-22.455c-3.025-0.977-6.794-2.43-8.375-3.229
		c-6.056-3.064-44.989-12.123-59.221-13.779c-3.248-0.378-9.279-1.505-13.404-2.504c-8.795-2.131-12.226-2.68-25-3.999
		c-5.225-0.54-14-2.115-19.5-3.5s-16.525-3.162-24.5-3.948c-7.975-0.787-19.916-2.549-26.535-3.916c-6.619-1.366-17.645-3-24.5-3.63
		c-6.855-0.631-14.636-1.558-17.289-2.061c-6.521-1.235-50.212-6.677-60.176-7.494c-4.4-0.361-12.95-1.7-19-2.975
		c-6.05-1.275-15.765-2.787-21.588-3.359c-5.822-0.573-14.598-2.174-19.5-3.557c-4.901-1.383-13.412-3.174-18.912-3.981
		c-5.5-0.807-13.375-2.559-17.5-3.894c-4.125-1.334-10.425-2.736-14-3.115s-13.7-2.439-22.5-4.579s-20.195-4.605-25.323-5.479
		c-5.128-0.875-11.428-2.404-14-3.399s-7.587-2.367-11.144-3.05c-3.557-0.682-8.615-2.329-11.241-3.66
		c-2.626-1.33-7.633-3.082-11.126-3.893c-3.494-0.811-8.11-2.229-10.259-3.152c-4.351-1.871-26.152-9.602-33.907-12.023
		c-11.243-3.51-24.722-9.078-37-15.284c-7.15-3.614-15.025-7.455-17.5-8.536c-23.646-10.33-65.089-37.171-89.068-57.687
		c-16.139-13.808-47.431-45.215-54.619-54.819c-2.264-3.025-6.412-8.2-9.218-11.5c-7.476-8.793-14.33-17.989-20.311-27.256
		c-2.906-4.502-8.633-13.037-12.726-18.965c-6.999-10.139-11.816-18.336-26.317-44.779c-3.317-6.05-7.453-13.25-9.19-16
		c-3.004-4.756-8.155-15.436-17.606-36.5c-3.495-7.789-12.39-25.463-16.105-32c-1.084-1.908-6.074-14.013-10.305-25
		c-3.685-9.569-17.234-38.991-18.628-40.45c-0.5-0.522-0.908-2.216-0.908-3.763c0-2.224,3.716-7.015,17.75-22.889
		c23.417-26.484,29.563-33.977,40.119-48.898c17.26-24.399,23.311-35.717,31.544-59c1.265-3.575,3.433-8.75,4.819-11.5
		c1.387-2.75,2.856-6.575,3.266-8.5c0.41-1.925,2.265-6.648,4.123-10.496c1.858-3.849,3.379-7.975,3.379-9.169
		s1.549-7.114,3.443-13.154c1.894-6.04,4.396-16.089,5.561-22.331s3.17-14.725,4.456-18.85c1.286-4.125,2.667-10.65,3.07-14.5
		c0.402-3.85,2.007-10.475,3.565-14.722c1.558-4.246,3.528-11.723,4.376-16.614c0.849-4.891,2.437-11.49,3.528-14.664
		s2.681-9.776,3.53-14.673c0.85-4.896,3.28-16.197,5.402-25.114c2.121-8.917,4.162-18.388,4.536-21.046
		c0.374-2.659,1.353-6.709,2.175-9c0.822-2.292,2.365-8.189,3.428-13.105c1.063-4.915,2.846-10.822,3.961-13.126
		c1.115-2.305,2.929-7.44,4.03-11.415c1.102-3.974,2.957-9.092,4.124-11.373c1.168-2.281,2.916-7.072,3.885-10.647
		c5.227-19.287,12.28-37.579,22.998-59.644c4.312-8.88,9.891-20.703,12.396-26.275c6.02-13.395,12.684-25.668,19.591-36.081
		c3.101-4.675,7.817-12.325,10.48-17c5.397-9.474,13.067-20.995,22.967-34.5c3.628-4.95,9.458-13.275,12.954-18.5
		c3.497-5.225,9.832-13.54,14.079-18.478c4.246-4.938,10.453-12.587,13.792-17c3.339-4.412,9.548-11.848,13.796-16.522
		c4.249-4.675,10.962-12.55,14.918-17.5c3.957-4.95,10.403-12.408,14.326-16.574s15.525-16.541,25.783-27.5
		c26.792-28.623,85.84-91.119,104.333-110.426c19.878-20.752,40.889-44.364,51.687-58.087c4.581-5.823,10.821-13.698,13.865-17.5
		c15.533-19.399,24.367-40.327,28.398-67.276c1.646-10.994,4.572-17.646,13.92-31.637c8.86-13.26,24.229-25.352,37.603-29.583
		c21.828-6.906,25.652-7.501,57.044-8.869c72.619-3.164,88.373-3.427,133.121-2.215c114.246,3.093,125.908,3.667,156.379,7.691
		c6.05,0.799,17.75,1.886,26,2.414s18.6,1.651,23,2.496c4.4,0.844,18.709,3.099,31.797,5.011c13.089,1.912,27.039,4.377,31,5.477
		c3.962,1.1,10.354,2.489,14.203,3.088s9.925,2.394,13.5,3.989c3.575,1.597,9.312,3.59,12.749,4.431
		c3.437,0.841,8.104,2.475,10.371,3.632c2.268,1.156,7.105,3.128,10.751,4.382c3.646,1.253,11.579,4.198,17.629,6.546
		c6.05,2.347,14.662,5.528,19.137,7.07c4.476,1.542,10.533,4.056,13.463,5.588c3.637,1.901,7.271,2.909,11.457,3.175
		c6.67,0.425,10.039-0.793,16.443-5.947c1.925-1.55,7.55-5.842,12.5-9.538c10.297-7.689,50.912-42.805,59.355-51.319
		c8.525-8.597,41.445-38.59,51.643-47.051c4.948-4.107,12.373-10.557,16.5-14.334c4.126-3.776,10.877-9.363,15.002-12.415
		c4.125-3.053,11.325-8.754,16-12.671c12.9-10.808,47.785-36.656,62.991-46.677c10.977-7.232,32.44-21.478,39.395-26.146
		c3.913-2.626,10.776-6.734,15.252-9.13s11.45-6.47,15.5-9.055c12.907-8.237,25.542-15.338,39.138-21.995
		c7.273-3.561,17.725-8.985,23.225-12.056c11.969-6.68,28.727-14.83,37-17.995c10.77-4.12,27.584-11.318,28.806-12.332
		c0.657-0.545,4.309-2.164,8.115-3.597s7.436-3.031,8.063-3.553c1.523-1.264,18.366-7.311,32.016-11.493
		c13.871-4.251,21.531-6.788,33.5-11.099c5.225-1.882,11.75-3.84,14.5-4.352s7.925-2.3,11.5-3.973s9.66-3.487,13.522-4.033
		s9.038-1.727,11.5-2.625c2.463-0.898,13.253-3.149,23.978-5.002c10.725-1.854,24.353-4.273,30.283-5.378
		c5.932-1.105,15.832-2.509,22-3.12c6.17-0.61,15.267-1.936,20.217-2.944c40.192-8.19,181.096-8.841,225.5-1.04
		c6.325,1.111,17.623,2.696,25.106,3.522c13.112,1.447,42.04,5.939,58.164,9.033c4.273,0.819,9.039,1.49,10.59,1.49
		s6.379,0.948,10.729,2.106c4.351,1.159,12.41,2.904,17.91,3.878c5.5,0.975,12.676,2.966,15.945,4.425s9.021,3.09,12.782,3.623
		s9.484,2.084,12.719,3.445c3.235,1.361,8.058,2.947,10.718,3.524c2.66,0.576,10.461,2.802,17.336,4.945s15.2,4.578,18.5,5.409
		c9.029,2.275,21.384,6.483,27,9.197c2.75,1.329,7.475,3.141,10.5,4.024c3.025,0.885,7.975,2.904,11,4.488
		c5.133,2.688,25.388,10.803,31,12.421c4.615,1.33,18.404,7.76,30,13.988c6.325,3.397,17.575,9.046,25,12.553
		c13.706,6.474,36.435,18.988,42.287,23.285c1.768,1.298,7.038,4.532,11.713,7.188c15.92,9.043,23.49,13.911,33.5,21.541
		c5.5,4.193,13.51,9.941,17.799,12.774c8.564,5.656,30.442,22.731,43.115,33.649c52.989,45.652,108.948,101.256,161.476,160.452
		c5.165,5.82,12.409,13.732,16.099,17.582s10.118,11.275,14.286,16.5s10.874,13.139,14.901,17.586
		c11.055,12.205,29.067,34.002,40.824,49.402c5.775,7.564,12.988,16.624,16.029,20.133c7.92,9.137,21.456,27.632,50.283,68.7
		c17.508,24.944,22.988,33.246,30.155,45.679c12.503,21.689,13.975,24.205,17.563,30c2.043,3.3,7.771,13.875,12.729,23.5
		s11.371,21.775,14.251,27c6.823,12.377,11.537,22.603,14.983,32.5c1.531,4.4,3.955,10.475,5.386,13.5s2.604,6.102,2.61,6.838
		s1.52,4.786,3.363,9c1.845,4.214,3.92,10.137,4.612,13.162s2.281,7.3,3.531,9.5c1.251,2.2,2.804,6.7,3.451,10
		s2.249,9.825,3.558,14.5c1.31,4.675,2.873,12.55,3.474,17.5c0.602,4.95,1.296,9.675,1.545,10.5c1.528,5.084,6.684,45.028,7.485,58
		c0.526,8.525,1.428,20.225,2.002,26c0.575,5.775,1.933,25.693,3.018,44.263c1.682,28.806,1.97,46.203,1.964,118.5
		c-0.007,87.894-0.656,112.856-3.947,151.737c-1.071,12.65-2.237,27.725-2.593,33.5c-0.75,12.202-4.778,44.113-6.943,55
		c-0.819,4.125-2.145,12.225-2.943,18s-2.106,12.075-2.905,14c-0.798,1.925-2.225,7.325-3.169,12s-2.516,10.075-3.492,12
		s-2.771,6.875-3.986,11s-3.075,9.075-4.132,11c-1.058,1.925-2.995,6.875-4.308,11c-5.38,16.914-14.626,40.205-20.842,52.5
		c-6.252,12.367-13.784,28.519-17.193,36.872c-6.288,15.404-10.56,24.848-12.432,27.484c-1.033,1.454-2.629,4.443-3.545,6.644
		c-0.918,2.2-2.87,6.025-4.339,8.5c-1.47,2.475-5.497,10.479-8.95,17.785c-3.454,7.306-10.24,19.681-15.082,27.5
		c-4.841,7.818-12,19.615-15.908,26.215c-7.654,12.924-10.249,16.636-23.223,33.215c-32.959,42.118-56.629,62.633-119.513,103.58
		c-5.739,3.737-17.998,10.754-27.241,15.593c-9.244,4.839-20.856,11.11-25.807,13.937c-4.95,2.827-17.325,9.219-27.5,14.203
		s-20.525,10.178-23,11.541c-7.887,4.344-38.404,19.168-41,19.918c-2.822,0.814-13.884,5.589-28.063,12.113
		c-5.26,2.42-10.21,4.405-11,4.411s-5.262,1.802-9.937,3.989s-9.324,3.983-10.332,3.989s-5.058,1.111-9,2.457
		c-12.639,4.313-43.109,8.938-68.668,10.421c-18.059,1.049-46.979,0.261-83-2.261c-38.684-2.708-74.529-4.534-101-5.146
		c-14.025-0.324-34.275-1.233-45-2.021c-27.818-2.041-63.178-3.295-111.5-3.953c-23.1-0.315-51.45-1.014-63-1.554
		c-128.795-6.017-273.17-6.392-342.5-0.889c-13.475,1.069-30.255,1.946-37.289,1.95c-17.445,0.008-43.955,1.675-63.211,3.974
		c-8.8,1.051-20.05,2.195-25,2.544c-17.711,1.245-44.254,4.577-59,7.406c-8.25,1.583-18.292,3.378-22.314,3.988
		c-4.023,0.61-8.632,1.791-10.241,2.622c-1.608,0.832-7.092,2.374-12.185,3.428c-5.093,1.053-11.333,2.836-13.867,3.963
		s-7.935,2.737-12,3.58c-4.066,0.843-10.543,2.598-14.393,3.901c-3.85,1.303-16.9,4.682-29,7.509c-12.1,2.826-26.05,6.451-31,8.056
		c-4.95,1.604-12.6,3.399-17,3.989c-4.4,0.591-11.825,2.392-16.5,4.002c-5.51,1.898-12.37,3.314-19.5,4.025
		c-6.05,0.604-14.262,2.003-18.249,3.11c-3.987,1.106-12.538,2.433-19,2.945c-6.463,0.514-17.601,1.616-24.751,2.449
		c-7.15,0.834-20.875,2.228-30.5,3.097s-21.55,1.989-26.5,2.489c-17.55,1.774-146.149,6.018-173.5,5.725
		C1331.125,2514.724,1317.175,2514.352,1307,2513.971z M2730.5,2402.105c6.05-2.968,13.794-7.604,17.209-10.304
		c7.008-5.54,14.155-15.524,17.836-24.916c1.322-3.373,3.315-7.679,4.431-9.569c1.115-1.89,2.763-6.666,3.66-10.613
		c0.897-3.948,2.672-9.939,3.942-13.314c1.766-4.692,2.664-10.462,3.815-24.513c2.52-30.759,2.706-36.745,1.677-53.876
		c-2.28-37.935-3.023-44.6-6.077-54.521c-1.621-5.268-3.237-12.592-3.593-16.277c-0.375-3.89-1.848-9.488-3.513-13.346
		c-1.577-3.655-3.575-9.698-4.441-13.431c-2.744-11.833-10.976-35.548-16.12-46.441c-10.15-21.493-34.035-61.306-42.122-70.209
		c-2.135-2.351-6.663-8.1-10.062-12.774c-13.407-18.443-59.524-65.971-79.643-82.078c-31.85-25.498-29.551-23.836-50.229-36.322
		c-5.374-3.245-11.571-7.047-13.771-8.447c-18.408-11.722-36.281-20.105-62.039-29.098c-4.421-1.544-10.271-3.932-13-5.307
		s-7.395-3.016-10.37-3.647c-2.975-0.631-7.384-2.021-9.797-3.089s-7.179-2.423-10.591-3.012s-11.604-2.18-18.203-3.534
		c-18.926-3.886-36.152-5.614-61.5-6.17c-21.023-0.461-24.811-0.288-35.938,1.643c-20.973,3.638-35.635,11.177-49.447,25.428
		c-17.416,17.968-28.013,32.906-40.881,57.634c-3.292,6.325-7.213,13.525-8.714,16c-5.497,9.066-9.911,17.938-14.965,30.078
		c-8.21,19.721-10.875,25.764-16.062,36.422c-6.217,12.774-10.994,23.234-10.994,24.069c0,0.358-1.57,4.54-3.489,9.292
		c-1.92,4.751-4.356,11.789-5.415,15.639c-3.786,13.771-8.405,25.517-18.091,46c-7.078,14.97-11.005,23.587-11.005,24.15
		c0,1.246-10.452,22.021-13.509,26.85c-6.237,9.855-10.342,17.248-18.529,33.375c-4.573,9.006-10.92,20.338-14.105,25.181
		c-3.186,4.844-9.123,15.025-13.194,22.626c-4.07,7.6-8.751,16.068-10.4,18.818c-7.068,11.789-11.711,19.196-13.788,22
		c-1.222,1.65-4.612,7.5-7.533,13s-9.384,16.975-14.362,25.5c-12.047,20.631-22.177,40.9-23.481,46.985
		c-2.424,11.3,0.484,14.466,15.629,17.012c21.57,3.626,49.432,7.018,65.953,8.028c36.581,2.236,235.062,0.971,313.321-1.998
		c14.025-0.532,39.9-1.233,57.5-1.558c17.6-0.325,33.028-0.801,34.285-1.058c3.22-0.659,4.502-4.63,3.136-9.707
		c-0.91-3.377-4.664-7.723-21.301-24.652c-22.556-22.953-35.411-36.375-66.12-69.034c-11.55-12.283-24.883-26.425-29.629-31.426
		c-4.745-5.001-11.475-12.468-14.953-16.593s-10.403-11.775-15.388-17s-10.847-11.75-13.029-14.5
		c-2.182-2.75-9.848-11.976-17.036-20.502c-7.188-8.525-16.767-20.226-21.285-26c-4.518-5.773-11.279-14.323-15.025-18.998
		s-10.107-13.45-14.136-19.5c-4.029-6.05-9.44-13.7-12.024-17c-6.296-8.039-15.512-23.854-23.547-40.409
		c-3.628-7.476-8.12-16.581-9.981-20.235c-1.861-3.655-3.93-8.83-4.598-11.5c-0.667-2.671-2.256-7.105-3.53-9.855
		c-3.142-6.775-3.123-10.5,0.051-10.5c1.661,0,4.102,1.9,8.021,6.25c9.124,10.12,27.141,34.004,39.166,51.919
		c6.153,9.167,14.087,20.417,17.63,25c3.543,4.582,9.981,13.506,14.31,19.831c4.326,6.325,11.978,16.9,17.002,23.5
		c5.023,6.6,10.646,14.25,12.492,17c1.848,2.75,7.229,9.5,11.958,15s11.106,13.15,14.169,17c6.095,7.66,10.447,12.54,33.959,38.08
		c21.436,23.282,57.146,57.17,79.837,75.758c22.268,18.24,29.538,23.861,47.418,36.665c17.316,12.397,24.486,16.994,44.149,28.298
		c3.85,2.214,9.025,5.276,11.502,6.807c13.508,8.349,26.405,14.597,39.998,19.376c5.225,1.838,11.102,4.026,13.061,4.862
		c1.958,0.838,6.683,2.232,10.5,3.101c3.816,0.867,9.422,2.675,12.455,4.017c8.002,3.538,15.949,4.396,38.984,4.206l20.5-0.169
		L2730.5,2402.105z M1166,2388.816c6.722-1.275,16.614-5.686,20.019-8.922c4.31-4.098,7.627-8.998,15.521-22.929
		c4.197-7.406,8.45-14.366,9.45-15.466s3.148-4.25,4.773-7s5.318-8.825,8.206-13.5c2.889-4.675,6.592-11.153,8.23-14.396
		c1.638-3.243,7.363-12.918,12.723-21.5s11.687-19.203,14.06-23.604c5.971-11.069,12.944-22.518,15.534-25.5
		c1.193-1.375,4.631-6.1,7.639-10.5c11.664-17.061,18.418-26.364,25.893-35.668c4.271-5.316,9.658-12.452,11.97-15.857
		c2.312-3.404,9.225-12.104,15.362-19.332c6.137-7.229,15.6-18.729,21.028-25.556s13.521-16.455,17.981-21.394
		c4.461-4.939,10.033-11.395,12.381-14.344c2.349-2.949,8.665-9.973,14.036-15.606s12.637-13.618,16.145-17.743
		c7.099-8.347,70.168-74,71.088-74c0.32,0,6.287-5.614,13.259-12.476c6.973-6.861,17.521-16.857,23.44-22.213
		c5.919-5.354,13.947-12.715,17.839-16.356c3.893-3.641,10.418-9.163,14.5-12.272c4.083-3.108,10.574-8.146,14.424-11.192
		c11.8-9.34,21.581-15.914,31.146-20.934c19.312-10.138,36.612-27.773,51.062-52.057c8.202-13.784,19.729-44.477,21.782-58
		c0.334-2.2,1.898-7.825,3.478-12.5s3.368-12.683,3.978-17.795c0.608-5.113,1.996-12.988,3.083-17.5
		c5.403-22.43,7.329-89.463,4.472-155.705c-1.549-35.904-2.521-47.256-5.081-59.325c-0.837-3.946-1.948-13.435-2.469-21.085
		c-1.04-15.27-2.483-24.965-4.625-31.064c-0.768-2.187-2.045-9.83-2.839-16.986c-0.795-7.156-2.561-17.968-3.926-24.025
		c-1.364-6.058-3.181-15.514-4.036-21.014c-2.128-13.688-8.064-38.285-11.616-48.133c-1.613-4.473-3.415-10.772-4.006-14
		c-0.59-3.227-2.346-8.117-3.902-10.867c-1.558-2.75-3.521-7.475-4.363-10.5c-4.755-17.064-14.989-42.301-22.913-56.5
		c-17.089-30.622-26.335-43.964-38.882-56.105c-9.424-9.12-14.461-11.791-22.342-11.846c-7.245-0.05-11.675,2.263-24.654,12.875
		c-13.312,10.884-23.45,15.349-49.846,21.951c-5.225,1.307-13.775,3.105-19,3.996c-5.225,0.892-13.1,2.388-17.5,3.325
		c-11.75,2.503-48.335,2.463-57.5-0.063c-3.575-0.984-11.225-2.844-17-4.129c-14.627-3.258-32.033-9.712-41.5-15.387
		c-11.707-7.02-36.489-25.999-51.12-39.151c-7.015-6.307-25.157-23.432-40.316-38.056c-54.669-52.739-68.194-64.719-93.635-82.935
		c-20.112-14.399-32.846-19.771-51.929-21.907c-31.701-3.548-62.09-1.436-92.011,6.398c-4.956,1.297-11.8,2.864-15.208,3.482
		s-8.671,2.218-11.695,3.555c-3.023,1.338-8.447,3.116-12.051,3.952c-3.604,0.835-8.719,2.616-11.365,3.958
		c-2.647,1.341-7.571,3.153-10.943,4.027c-3.371,0.873-8.064,2.4-10.429,3.393s-7.448,2.624-11.298,3.627
		c-3.85,1.004-11.104,3.561-16.121,5.682c-5.018,2.121-9.656,3.857-10.309,3.857c-0.653,0-13.874,6.252-29.379,13.895
		c-27.77,13.686-35.948,18.563-58.691,35c-11.581,8.37-16.864,12.491-42.5,33.154c-50.259,40.511-128.537,119.438-171,172.42
		c-4.95,6.176-12.378,15.234-16.506,20.13c-4.129,4.896-10.422,12.951-13.985,17.901c-3.562,4.95-9.635,13.104-13.493,18.121
		c-3.858,5.018-10.615,14.806-15.016,21.753s-9.986,15.668-12.413,19.379c-10.327,15.789-17.271,29.283-24.565,47.739
		c-2.607,6.596-6.207,14.921-8,18.5s-3.576,7.633-3.964,9.008s-1.988,5.65-3.558,9.5c-4.129,10.134-8.623,24.709-12.079,39.168
		c-1.659,6.945-3.687,14.229-4.505,16.188c-0.818,1.958-2.189,7.629-3.047,12.602c-0.857,4.974-2.675,11.698-4.04,14.944
		s-3.142,9.771-3.946,14.5c-0.806,4.729-2.559,11.973-3.896,16.098c-1.337,4.125-2.705,9.525-3.039,12s-1.672,10.125-2.973,17
		c-4.176,22.069-6.369,35.326-7.031,42.5c-0.355,3.85-1.684,11.5-2.952,17s-2.813,14.216-3.434,19.368
		c-0.62,5.153-2.251,12.578-3.625,16.5c-1.374,3.923-3.182,11.363-4.017,16.534c-0.836,5.172-2.566,11.922-3.846,15
		c-1.28,3.079-2.849,8.654-3.485,12.39s-2.237,9.81-3.556,13.5c-1.319,3.689-3.354,10.533-4.521,15.208s-3.158,10.525-4.423,13
		c-1.265,2.475-2.873,6.3-3.572,8.5c-1.183,3.72-4.787,10.352-10.867,20c-1.387,2.2-3.992,6.596-5.789,9.769
		c-5.852,10.328-18.564,25.848-33.106,40.417L335,1930.963v4.751c0,4.555,0.254,4.979,6.148,10.269
		c28.464,25.543,45.182,42.769,49.224,50.718c2.011,3.955,2.107,11.472,0.194,15.171c-0.788,1.525-4.051,4.955-7.25,7.623
		c-18.08,15.076-24.39,26.254-21.455,38.006c3.435,13.751,13.155,34.562,22.686,48.569c14.817,21.774,38.025,52.646,43.926,58.431
		c1.122,1.1,6.6,7.4,12.171,14c18.096,21.435,56.879,58.026,82.221,77.575c6.746,5.204,48.684,33.106,55.135,36.683
		c6.188,3.432,30.616,16.025,45.006,23.204c14.643,7.305,35.61,15.316,55.494,21.205c3.85,1.14,9.025,3.091,11.5,4.336
		s7.2,2.814,10.5,3.489c3.3,0.674,8.65,2.333,11.89,3.688c3.239,1.355,9.539,3.274,14,4.266s14.396,3.243,22.079,5.005
		c7.684,1.761,18.708,3.81,24.5,4.552s14.058,2.274,18.367,3.404c4.31,1.131,13.112,2.483,19.562,3.006
		c6.449,0.521,15.298,1.851,19.664,2.952c12.43,3.136,18.754,4.036,35.974,5.117c8.818,0.554,20.519,1.663,26,2.465
		c16.384,2.397,31.391,3.484,62.985,4.562c16.489,0.562,42.579,1.674,57.979,2.471
		C1095.077,2390.696,1151.537,2391.562,1166,2388.816z M848,2095.313c-9.894-0.741-53.93-5.352-60.411-6.324
		c-3.801-0.571-8.896-1.916-11.322-2.989c-2.426-1.073-7.191-2.459-10.589-3.078c-6.354-1.159-10.568-2.468-28.678-8.906
		c-31.812-11.31-35.769-13.389-64.368-33.824c-13.628-9.737-32.845-28.259-40.146-38.691c-2.695-3.85-7.421-10.375-10.503-14.5
		c-7.243-9.694-12.203-18.721-16.011-29.137c-7.468-20.431-13.729-40.874-14.327-46.784c-0.357-3.532-1.646-11.407-2.865-17.5
		c-3.39-16.958-3.221-43.49,0.416-65.079c1.482-8.8,3-19.15,3.374-23c0.373-3.85,1.729-9.814,3.012-13.254s2.837-9.064,3.453-12.5
		c1.299-7.235,6.989-27.864,10.688-38.746c6.319-18.587,7.379-21.402,9.716-25.813c1.365-2.577,8-16.577,14.743-31.11
		c9.326-20.101,15.106-30.976,24.157-45.453c13.537-21.654,17.813-26.982,29.419-36.661c10.853-9.051,14.894-11.314,26.66-14.937
		c8.828-2.718,11.17-3.025,23.017-3.025c9.989,0,15.046,0.486,20.847,2.006c4.212,1.104,11.13,2.488,15.373,3.079
		c4.679,0.65,9.916,2.184,13.306,3.895c3.075,1.553,7.604,3.333,10.065,3.956s7.175,2.22,10.475,3.546
		c3.3,1.327,10.5,4.068,16,6.093c13.128,4.83,28.921,12.842,39.603,20.089c29.186,19.802,30.009,20.439,53.897,41.71
		c16.293,14.507,42.245,41.042,51.961,53.127c3.537,4.4,8.967,10.925,12.065,14.5c8.151,9.405,14.455,17.78,24.46,32.5
		c4.86,7.15,11.629,17.05,15.042,22c3.412,4.95,9.253,14.625,12.979,21.5s8.885,16.325,11.463,21
		c7.522,13.637,7.81,14.185,11.008,21.001c3.377,7.197,7.84,19.285,11.629,31.499c1.364,4.4,3.11,10.025,3.878,12.5
		c0.769,2.475,2.09,6.525,2.937,9c2.491,7.276,6.682,36.441,7.256,50.5c0.469,11.46,0.154,15.311-2.661,32.5
		c-2.017,12.311-4.046,21.401-5.507,24.656c-1.272,2.836-3.048,7.684-3.946,10.773c-2.152,7.402-10.57,23.437-15.996,30.465
		c-12.835,16.628-35.013,31.974-49.226,34.061c-20.137,2.958-32.092,4.357-43.342,5.074
		C949.078,2095.79,857.428,2096.02,848,2095.313z M782.662,1901.429c2.213-2.212,2.48-3.133,1.926-6.604
		c-0.908-5.682-2.611-8.575-10.923-18.561c-9.153-10.998-14.81-15.993-24.514-21.647c-16.867-9.829-31.327-9.882-34.021-0.126
		c-1.284,4.654,0.147,9.617,4.062,14.076c4.619,5.261,16.907,14.929,25.603,20.143c4.237,2.541,10.18,6.203,13.205,8.138
		c5.877,3.757,14.721,7.012,19.295,7.1C779.018,1903.979,781.078,1903.013,782.662,1901.429z M2228.543,1874.547
		c1.35-1.349,4.189-5.961,6.311-10.25c2.121-4.288,5.014-10.047,6.427-12.797c4.345-8.456,9.466-21.768,10.195-26.5
		c0.382-2.475,1.336-7.06,2.12-10.188c0.785-3.128,1.891-10.553,2.457-16.5c2.019-21.188,7.188-31.34,25.315-49.724
		c13.242-13.429,42.688-35.479,57.218-42.846c23.62-11.977,38.926-19.923,39.852-20.691c2.503-2.077,49.644-18.036,53.363-18.065
		c0.935-0.007,5.524-1.365,10.199-3.018s13.176-3.68,18.89-4.504c5.714-0.826,14.939-2.655,20.5-4.066
		c5.561-1.41,15.219-2.951,21.463-3.423c10.915-0.825,14.017-1.567,37.191-8.895c9.579-3.028,19.455-9.646,31.599-21.174
		c6.332-6.011,13.897-13.736,16.813-17.168c10.806-12.719,37.099-52.947,48.521-74.239c2.36-4.4,7.731-12.95,11.935-19
		s11.555-16.85,16.338-24c29.083-43.475,79.841-97.812,125.25-134.08c18.806-15.02,26.099-20.172,51.839-36.625
		c15.121-9.665,36.337-20.161,48.161-23.828c2.2-0.682,6.193-2.339,8.874-3.683s8.081-3.099,12-3.898s11.082-2.81,15.917-4.466
		c8.773-3.004,8.839-3.011,32.029-3.04c24.826-0.03,26.079,0.104,34.96,3.779c3.18,1.315,9.479,2.888,14,3.494
		s10.694,2.226,13.72,3.6c3.025,1.373,8.65,3.314,12.5,4.312c15.978,4.144,43.376,14.503,59.257,22.405
		c6.19,3.081,14.854,7.16,19.25,9.065c20.058,8.692,24.108,10.521,33.493,15.117c5.5,2.693,17.875,8.991,27.5,13.993
		c9.625,5.003,18.625,9.426,20,9.827c1.375,0.402,9.25,4.025,17.5,8.053c27.667,13.505,30.51,14.651,37.5,15.129
		c15.3,1.046,19.405-9.354,11.596-29.367c-1.978-5.067-3.596-9.693-3.596-10.282c0-1.525-9.491-25.881-12.97-33.282
		c-6.842-14.556-17.908-39.415-18.573-41.724c-1.264-4.388-12.876-27.143-19.285-37.793c-3.407-5.661-8.217-14.211-10.688-19
		c-2.472-4.789-6.403-11.717-8.738-15.395c-18.258-28.756-37.064-56.752-47.013-69.983c-4.271-5.681-10.772-14.379-14.447-19.329
		c-9.342-12.584-30.734-39.222-45.775-57c-6.98-8.25-15.908-18.825-19.841-23.5c-7.062-8.396-32.806-35.612-58.797-62.16
		c-27.826-28.422-69.924-67.94-89.373-83.896c-5.5-4.513-13.15-10.998-17-14.413c-7.43-6.591-19.914-16.692-44.129-35.708
		c-27.539-21.625-39.771-30.625-62.371-45.892c-12.375-8.358-24.075-16.408-26-17.887c-1.925-1.479-7.55-5.097-12.5-8.038
		c-9.519-5.658-18.807-11.304-40-24.313c-7.15-4.39-19.3-11.015-27-14.724c-7.7-3.708-16.629-8.342-19.842-10.296
		s-9.737-5.423-14.5-7.709c-4.762-2.286-10.263-4.996-12.225-6.021c-1.961-1.025-7.136-3.183-11.5-4.794
		c-12.053-4.449-20.312-7.857-26.934-11.113c-16.414-8.069-42.494-16.98-61.634-21.059c-5.151-1.098-11.392-2.652-13.866-3.454
		c-2.475-0.803-7.65-1.944-11.5-2.538c-3.85-0.593-11.05-2.364-16-3.937c-4.95-1.571-12.15-3.179-16-3.571
		s-13.441-2.013-21.314-3.601c-7.874-1.588-19.799-3.344-26.5-3.902c-6.702-0.559-21.86-1.906-33.686-2.994
		c-85.368-7.856-219.576-7.63-275.5,0.465c-5.5,0.797-15.175,1.92-21.5,2.498c-6.325,0.577-15.55,2.176-20.5,3.553
		s-13.232,2.986-18.406,3.576c-5.929,0.676-12.149,2.162-16.829,4.021c-4.083,1.621-10.78,3.415-14.886,3.986
		c-4.104,0.57-9.355,1.707-11.67,2.525c-2.315,0.818-9.609,2.812-16.209,4.433c-14.857,3.646-29.365,8.098-40.5,12.427
		c-4.675,1.818-10.075,3.638-12,4.045c-1.925,0.406-5.975,1.971-9,3.477s-7.975,3.311-11,4.01
		c-10.198,2.358-15.398,6.054-17.025,12.099c-1.053,3.909,0.121,21.896,3.974,60.905c1.06,10.725,2.182,26.475,2.494,35
		c0.712,19.419,3.027,44.326,4.974,53.5c0.816,3.85,1.979,14.65,2.584,24c1.131,17.483,2.234,27.12,4.016,35.067
		c0.561,2.503,1.674,10.712,2.475,18.242c1.809,17.013,4.834,36.779,6.842,44.69c0.838,3.3,2.039,9.509,2.671,13.797
		s2.254,11.038,3.605,15c1.351,3.962,2.897,10.29,3.437,14.062c0.538,3.773,2.32,9.916,3.96,13.652
		c1.64,3.735,3.667,10.099,4.505,14.141c0.838,4.041,2.191,9.046,3.008,11.121s2.428,8.125,3.58,13.443
		c1.152,5.317,3.387,13.173,4.966,17.456c1.579,4.282,3.594,10.608,4.478,14.057c0.883,3.449,2.293,7.336,3.133,8.639
		s3.006,6.703,4.812,12c1.808,5.298,4.733,13.457,6.502,18.132s5.381,14.575,8.029,22c10.284,28.844,13.596,37.223,19.564,49.5
		c3.767,7.746,6.936,15.468,11.899,29c5.773,15.739,8.985,23.41,19.048,45.5c5.201,11.42,11.471,26.757,11.471,28.063
		c0,0.642,1.8,5.221,4,10.178c2.2,4.956,3.993,9.517,3.985,10.135c-0.009,0.618,1.511,4.274,3.377,8.124
		c12.144,25.057,12.356,25.546,20.153,46.5c9.275,24.931,15.36,39.877,19.805,48.646c2.807,5.538,10.68,25.723,10.68,27.38
		c0,1.666,8.963,25.931,12.549,33.975c1.84,4.125,3.658,8.85,4.042,10.5s1.95,5.511,3.481,8.58c1.531,3.068,3.516,8.469,4.408,12
		s2.483,8.67,3.535,11.42c2.277,5.957,8.272,27.037,11.661,41c1.335,5.5,3.474,12.925,4.755,16.5c1.28,3.575,2.655,8.975,3.057,12
		c0.4,3.025,2.01,9.229,3.577,13.787s3.347,11.982,3.954,16.5c0.608,4.518,1.993,11.723,3.077,16.014
		c1.085,4.29,2.848,15.315,3.919,24.5c2.379,20.398,6.691,53.722,7.922,61.199c0.497,3.025,1.197,10,1.555,15.5
		c0.358,5.5,1.935,16.75,3.504,25c1.568,8.25,3.371,21.242,4.004,28.871c0.634,7.629,2.027,17.079,3.099,21
		c1.07,3.921,2.669,11.404,3.552,16.629c2.029,11.998,6.018,25.308,8.548,28.524
		C2216.992,1878.077,2225.002,1878.09,2228.543,1874.547z"/>
</g>
</svg>
