<?xml version="1.0" encoding="utf-8"?>
<!-- Generator: Adobe Illustrator 15.1.0, SVG Export Plug-In . SVG Version: 6.00 Build 0)  -->
<!DOCTYPE svg PUBLIC "-//W3C//DTD SVG 1.1//EN" "http://www.w3.org/Graphics/SVG/1.1/DTD/svg11.dtd">
<svg version="1.1"
	 id="svg2" xmlns:sodipodi="http://sodipodi.sourceforge.net/DTD/sodipodi-0.dtd" xmlns:svg="http://www.w3.org/2000/svg" xmlns:inkscape="http://www.inkscape.org/namespaces/inkscape" xmlns:dc="http://purl.org/dc/elements/1.1/" xmlns:cc="http://creativecommons.org/ns#" xmlns:rdf="http://www.w3.org/1999/02/22-rdf-syntax-ns#" sodipodi:docname="run.svg" sodipodi:version="0.32" inkscape:version="0.46" inkscape:output_extension="org.inkscape.output.svg.inkscape"
	 xmlns="http://www.w3.org/2000/svg" xmlns:xlink="http://www.w3.org/1999/xlink" x="0px" y="0px" width="2152.633px"
	 height="3046.676px" viewBox="0 0 2152.633 3046.676" enable-background="new 0 0 2152.633 3046.676" xml:space="preserve">
<g id="g2384_1_">
	<path id="path2386_1_" fill="#FFFFFF" d="M524.545,3046.037c-14.066-0.868-43.175-4.959-52.864-7.429
		c-27.086-6.905-49.003-13.898-57.991-18.506c-11.757-6.022-32.125-15.456-41.382-19.163c-5.105-2.045-10.8-5.325-37.127-21.391
		c-8.8-5.371-19.375-11.819-23.5-14.332c-4.125-2.514-11.922-7.965-17.326-12.114c-5.404-4.15-13.279-9.963-17.5-12.916
		c-8.815-6.17-14.742-10.989-24.653-20.048c-3.86-3.528-9.271-8.194-12.021-10.368c-14.209-11.23-59.916-58.804-79.5-82.743
		c-4.675-5.715-10.758-12.936-13.518-16.047c-9.935-11.198-37-50.708-45.144-65.897c-3.088-5.76-7.055-12.733-8.813-15.5
		c-8.587-13.495-14.396-24.729-24.06-46.526c-4.639-10.467-15.034-31.602-16.479-33.5c-1.312-1.728-9.763-23.1-18.085-45.741
		c-1.564-4.259-3.493-8.759-4.286-10c-0.793-1.242-2.433-5.634-3.644-9.759c-1.21-4.125-3.238-9.555-4.509-12.062
		c-1.271-2.51-2.815-7.46-3.438-11c-0.621-3.541-1.992-8.985-3.048-12.1c-2.877-8.498-6.772-42.327-7.928-68.838
		c-1.028-23.627-0.272-48.648,1.922-63.552c2.934-19.921,3.95-25.334,5.43-28.872c0.891-2.132,2.314-6.62,3.165-9.976
		c0.851-3.356,3.096-8.646,4.989-11.752c1.894-3.108,3.441-6.046,3.441-6.529c0-1.445,10.686-18.988,15.252-25.041
		c5.046-6.688,19.404-18.826,28.646-24.216c8.212-4.788,22.218-9.417,36.603-12.098c26.678-4.968,40.872-7.1,53-7.961
		c30.81-2.187,68.312-4.055,99.5-4.957c33.76-0.978,45.568-1.996,51.353-4.434c4.468-1.882,13.25-10.08,16.211-15.131
		c3.52-6.008,5.314-20.418,6.414-51.484c0.855-24.215,1.932-40.298,4.047-60.5c0.518-4.949,0.949-11.824,0.959-15.277
		c0.01-3.45,1.356-13.127,2.995-21.5c1.638-8.371,3.46-19.723,4.049-25.223s1.258-10.675,1.485-11.5
		c0.987-3.57,7.41-40.046,8.013-45.5c0.363-3.3,1.73-10.05,3.038-15c1.308-4.949,2.885-12.375,3.504-16.5s2.382-10.425,3.917-14
		c1.534-3.574,3.317-9.649,3.962-13.5c0.645-3.85,2.225-9.315,3.512-12.147s2.642-6.657,3.011-8.5
		c0.369-1.845,2.196-8.076,4.062-13.853c1.863-5.774,4.559-15.187,5.988-20.913c1.431-5.728,3.197-11.577,3.927-13
		c0.729-1.423,2.022-5.962,2.876-10.087c0.853-4.125,2.669-10.021,4.037-13.102c4.468-10.063,5.939-23.859,3.235-30.33
		c-0.901-2.161-3.501-4.795-7.25-7.352c-3.214-2.189-10.667-7.521-16.562-11.851c-5.896-4.327-15.977-11.467-22.399-15.867
		c-6.425-4.399-16.899-11.855-23.28-16.569s-16.326-11.737-22.104-15.607c-5.776-3.87-14.778-10.363-20.003-14.43
		c-5.226-4.065-14.686-11.101-21.021-15.63c-6.336-4.53-15.56-11.744-20.495-16.029c-4.938-4.286-13.478-11.252-18.978-15.48
		c-10.662-8.196-15.562-12.39-39.68-33.945c-29.223-26.119-72.563-70.479-89.698-91.808c-1.989-2.475-7.947-9.675-13.241-16
		c-5.293-6.324-13.33-17.125-17.858-24c-4.527-6.875-9.683-14.3-11.452-16.5c-6.87-8.535-11.646-16.731-20.976-36
		c-5.326-11-10.367-21.125-11.201-22.5c-6.188-10.191-10.957-22.766-15.551-41c-4.822-19.149-4.947-20.038-6.972-49.5
		c-3.244-47.252-1.241-93.072,4.496-102.863c5.934-10.125,14.619-16.584,39.313-29.232c9.25-4.738,19.293-10.075,22.318-11.859
		c30.451-17.967,36.232-22.262,45.402-33.723c6.923-8.651,12.598-20.482,12.598-26.262c0-1.917-0.877-5.71-1.948-8.429
		s-2.675-7.745-3.562-11.174c-0.889-3.427-2.938-8.708-4.553-11.734c-1.614-3.027-2.938-6.337-2.938-7.353
		s-1.371-6.127-3.047-11.357c-1.675-5.229-3.676-12.998-4.446-17.262c-1.3-7.19-3.189-16.105-6.841-32.252
		c-0.809-3.574-1.762-9.425-2.119-13c-0.355-3.574-1.948-11.449-3.537-17.5c-1.589-6.05-3.371-15.992-3.961-22.093
		c-0.59-6.103-2.199-14.877-3.575-19.5c-1.683-5.653-2.976-13.812-3.948-24.907c-0.797-9.075-2.348-22.125-3.444-29
		c-2.146-13.436-4.724-64.396-3.823-75.605c0.812-10.12,6.688-18.084,22.743-30.825c12.287-9.751,37.117-25.995,49.5-32.385
		c2.2-1.136,7.375-4.529,11.5-7.544s12.668-9.004,18.985-13.311c14.903-10.161,38.449-32.88,46.809-45.166
		c7.936-11.664,18.916-35.756,21.62-47.436c0.861-3.725,2.417-8.449,3.455-10.5c1.039-2.052,2.446-7.066,3.129-11.147
		c0.683-4.08,2.094-10.38,3.137-14c1.044-3.619,3.291-12.656,4.993-20.081s4.104-16.2,5.334-19.5c1.232-3.3,2.571-7.786,2.977-9.969
		c0.404-2.183,2.244-6.907,4.089-10.5c1.845-3.592,3.67-7.881,4.056-9.531c0.387-1.649,1.605-4.8,2.709-7
		c1.104-2.2,3.486-8.05,5.294-13c10.064-27.561,14.724-39.335,18.397-46.5c1.551-3.024,6.408-12.925,10.792-22
		c15.714-32.521,20.271-41.609,24.568-49c4.828-8.3,8.521-14.654,17.069-29.368c3.153-5.428,9.092-14.428,13.196-20
		c4.104-5.571,10.259-14.013,13.677-18.756c17.277-23.979,52.049-61.07,78.214-83.431c18.673-15.958,50.287-39.551,64.5-48.135
		c6.325-3.821,15.325-9.347,20-12.28c13.998-8.783,20.855-12.494,37.062-20.056c8.489-3.962,16.562-7.953,17.938-8.87
		c8.327-5.55,25.303-12.706,52.5-22.13c11-3.812,21.125-7.565,22.5-8.34s6.09-2.387,10.479-3.582
		c4.388-1.194,9.42-3.063,11.182-4.152c1.763-1.089,6.382-2.643,10.266-3.453s9.201-2.31,11.817-3.335
		c2.616-1.024,11.731-3.292,20.257-5.04s18.426-4.04,22.002-5.094c3.576-1.054,9.876-2.388,14-2.965s10.873-2.156,14.998-3.509
		c4.125-1.354,12-3.161,17.5-4.016s12.771-2.647,16.156-3.981c3.802-1.498,11.07-3.03,19-4.006
		c7.063-0.87,15.729-2.249,19.255-3.065s11.851-1.921,18.5-2.457c6.647-0.535,20.639-1.662,31.089-2.505
		c66.604-5.369,77.708-6.064,119.5-7.479c33.321-1.128,67.24-3.2,90.26-5.514c8.117-0.816,18.918-1.493,24-1.503
		c11.746-0.025,28.603-2.292,35.861-4.824c3.091-1.078,8.621-2.427,12.287-2.998c12.671-1.973,27.422-11.924,32.41-21.864
		c2.271-4.529,6.869-20.084,8.766-29.659c2.732-13.795,17.997-34.854,32.007-44.153c7.398-4.911,20.835-10.712,37.409-16.152
		c12.712-4.172,14.463-4.487,30-5.386c9.075-0.525,20.1-1.406,24.5-1.957c26.146-3.274,65.962-5.036,114-5.042
		c26.95-0.003,56.65,0.455,66,1.019c25.91,1.562,44.985,2.965,55.682,4.096c5.325,0.563,17.476,1.413,27,1.888
		c14.805,0.739,19.352,1.383,31.318,4.44c16.592,4.238,36.771,11.211,46.236,15.978c6.928,3.489,22.609,15.431,33.479,25.493
		c9.752,9.029,31.426,38.745,39.915,54.731c4.054,7.63,8.114,15.681,9.024,17.891c1.412,3.427,10.951,21.732,14.602,28.018
		c0.639,1.1,2.781,6.275,4.762,11.5c10.356,27.334,13.014,34.137,16.008,41c1.8,4.125,3.57,8.85,3.936,10.5
		c0.364,1.65,1.996,5.76,3.627,9.133c1.631,3.373,3.596,9.723,4.367,14.112s2.145,9.729,3.05,11.867
		c3.583,8.458,5.79,34.627,5.896,69.888c0.146,49.41-1.938,59.194-17.166,80.601c-9.069,12.746-32.211,32.923-52.734,45.976
		c-11.799,7.504-23.428,15.984-25.003,18.232c-2.158,3.082-1.888,10.553,0.532,14.708c1.116,1.916,3.556,6.64,5.42,10.496
		c1.865,3.856,6.478,12.448,10.246,19.094c3.771,6.644,10.871,20.588,15.781,30.986c4.907,10.399,11.938,24.532,15.62,31.407
		c6.813,12.726,14.902,29.96,14.902,31.756c0,0.993,5.127,13.177,11.468,27.244c10.866,24.115,12.157,27.35,17.565,44
		c4.235,13.038,9.943,31.883,11.057,36.5c0.664,2.75,2.015,6.62,3.002,8.601c0.986,1.979,2.707,8.055,3.82,13.5
		c1.115,5.444,3.122,12.601,4.461,15.899s2.735,8.925,3.104,12.5c0.368,3.575,1.762,11.226,3.096,17
		c1.334,5.775,3.074,16.575,3.867,24c0.794,7.425,2.135,19.8,2.98,27.5c5.002,45.518,7.021,103.441,4.688,134.5
		c-1.453,19.354-4.86,51.859-6.132,58.5c-0.525,2.75-1.428,9.275-2.004,14.5c-0.575,5.226-2.118,13.55-3.43,18.5
		c-1.311,4.95-2.898,12.15-3.531,16c-0.632,3.851-2.034,9.009-3.117,11.463s-2.824,8.38-3.869,13.167
		c-1.045,4.788-2.802,10.476-3.905,12.638c-1.103,2.161-2.681,6.812-3.506,10.332c-0.826,3.521-2.851,10.469-4.497,15.439
		c-1.648,4.972-3.754,12.396-4.68,16.5c-0.926,4.104-2.493,9.062-3.483,11.021c-0.989,1.957-2.534,6.396-3.435,9.866
		c-0.898,3.47-2.915,8.617-4.481,11.439c-1.565,2.823-3.169,6.708-3.562,8.633c-0.394,1.925-1.973,6.29-3.51,9.699
		c-1.537,3.41-3.548,8.791-4.468,11.957c-0.921,3.167-2.709,7.803-3.975,10.301c-1.267,2.499-3.021,6.97-3.9,9.937
		c-2.763,9.311-6.442,18.115-14.051,33.606c-4.051,8.25-11.444,23.326-16.431,33.502c-4.987,10.176-12.851,24.353-17.476,31.5
		c-4.626,7.148-11.28,17.596-14.788,23.216c-5.697,9.126-13.404,19.419-30.879,41.243c-12.379,15.459-43.223,47.96-84.395,88.931
		l-43.607,43.395v4.721c0,3.503,0.697,5.723,2.703,8.609c12.652,18.211,22.443,32.536,28.285,41.39
		c3.811,5.775,12.842,19.275,20.067,30c24.05,35.689,35.667,53.359,45.043,68.5c5.108,8.25,13.629,21.75,18.936,30
		c5.306,8.25,12.73,20.625,16.503,27.5c3.771,6.875,9.701,16.921,13.179,22.325c3.478,5.402,11.202,19.354,17.167,31
		c5.964,11.646,12.229,23.425,13.921,26.175c5.41,8.791,13.007,23.377,15.128,29.047c2.465,6.589,16.559,35.512,19.711,40.453
		c1.229,1.925,4.309,8.9,6.844,15.5c2.536,6.6,6.113,15.6,7.95,20s3.673,9.098,4.079,10.439c0.406,1.341,2.48,6.041,4.611,10.445
		c2.131,4.405,3.873,8.652,3.873,9.439s1.308,3.735,2.906,6.553s3.577,7.372,4.398,10.122c0.82,2.75,2.367,7.024,3.438,9.5
		c1.069,2.475,2.759,7.875,3.754,12c0.994,4.125,3.275,11.325,5.068,16s3.585,10.3,3.983,12.5c0.397,2.2,1.773,6.097,3.059,8.658
		c1.283,2.562,3.265,8.131,4.401,12.373c1.137,4.243,2.72,8.978,3.519,10.521c1.763,3.407,7.888,20.014,10.679,28.947
		c4.195,13.438,14.408,29.494,25.625,40.287c13.267,12.768,29.295,17.939,59.67,19.253c7.699,0.333,22.1,1.464,32,2.513
		c9.899,1.051,24.975,2.416,33.5,3.036c13.713,0.998,16.506,1.521,24.229,4.521c4.801,1.864,9.211,3.392,9.8,3.392
		c1.899,0,7.306,3.129,14.302,8.28c12.594,9.271,17.552,16.99,40.603,63.22c7.408,14.856,10.896,23.373,18.049,44.062
		c1.533,4.436,3.716,9.879,4.847,12.1c1.133,2.221,2.754,7.033,3.604,10.696s2.708,8.957,4.131,11.764s3.018,7.865,3.544,11.241
		c0.527,3.376,2.037,9.963,3.357,14.638c1.318,4.675,2.917,13.217,3.552,18.981c0.634,5.765,1.329,10.766,1.544,11.112
		s1.302,10.64,2.416,22.871c3.34,36.671,2.528,66.656-3.033,112.034c-1.111,9.075-2.285,18.741-2.606,21.479
		c-0.321,2.739-1.22,6.776-1.993,8.974c-0.773,2.194-2.092,8.235-2.927,13.423c-0.834,5.188-2.627,12.064-3.982,15.287
		c-1.354,3.221-3.161,8.859-4.013,12.529c-0.852,3.671-2.646,9.287-3.991,12.479c-1.345,3.194-2.944,8.145-3.558,10.999
		c-0.613,2.855-2.363,8.147-3.893,11.762c-1.527,3.611-3.746,9.846-4.931,13.853c-1.185,4.006-3.646,10.756-5.472,15
		c-5.92,13.763-32.453,66.219-36.443,72.048c-2.134,3.117-5.448,8.144-7.365,11.168c-13.365,21.096-16.965,26.506-22.945,34.5
		c-14.642,19.57-23.34,30.312-35.922,44.35c-13.471,15.028-45.785,46.838-51.951,51.136c-1.896,1.321-9.334,7.284-16.528,13.25
		c-11.942,9.901-44.776,33.102-56.895,40.198c-2.735,1.603-14.436,7.742-26,13.646c-11.563,5.903-23.275,11.896-26.025,13.319
		c-14.774,7.646-35.122,13.322-55.5,15.482c-26.056,2.764-78.52,1.984-91.268-1.354c-9.271-2.428-15.737-6.236-23.558-13.874
		c-14.305-13.97-24.739-32.075-26.688-46.309c-2.747-20.062-4.67-28.167-8.702-36.668c-4.304-9.067-8.725-14.122-13.377-15.29
		c-5.403-1.355-16.996,0.182-21.565,2.858c-2.402,1.407-7.062,3.312-10.354,4.229c-3.293,0.919-15.213,4.835-26.487,8.703
		c-18.702,6.416-25.157,9.017-48,19.339c-15.284,6.906-23.783,10.482-24.91,10.482c-1.646,0-22.996,8.365-33.09,12.965
		c-4.675,2.131-9.625,4.181-11,4.557s-4.075,1.596-6,2.711c-6.572,3.809-24.838,9.538-62.586,19.639
		c-6.097,1.631-12.82,3.689-14.939,4.575c-2.12,0.886-8.381,2.248-13.914,3.027c-5.532,0.779-13.211,2.614-17.061,4.077
		c-5.08,1.931-10.154,2.91-18.5,3.57c-6.325,0.5-17.575,1.993-25,3.317c-7.425,1.325-18.226,2.679-24,3.007
		c-5.775,0.328-22.2,1.471-36.5,2.539c-42.429,3.168-107.698,6.836-142.904,8.029c-18.097,0.613-43.746,1.987-57,3.055
		c-13.252,1.065-35.796,2.39-50.096,2.939c-52.761,2.032-70.323,3.087-84,5.043c-7.7,1.102-21.425,2.441-30.5,2.979
		c-23.433,1.388-37.965,2.782-45.753,4.396c-3.711,0.768-10.797,1.705-15.747,2.081c-19.163,1.457-47.054,8.822-62.299,16.452
		c-29.955,14.99-55.669,28.275-62.701,32.396c-18.891,11.07-39.032,19.108-67,26.735c-11.868,3.237-12.271,3.274-36.5,3.501
		C549.206,3046.775,532.045,3046.498,524.545,3046.037z"/>
</g>
<defs>
	
	
		<inkscape:perspective  inkscape:vp_x="0 : 526.18109 : 1" id="perspective9" inkscape:vp_y="0 : 1000 : 0" inkscape:vp_z="744.09448 : 526.18109 : 1" sodipodi:type="inkscape:persp3d" inkscape:persp3d-origin="372.04724 : 350.78739 : 1">
		</inkscape:perspective>
</defs>
<sodipodi:namedview  id="base" inkscape:current-layer="svg2" inkscape:cy="1800" bordercolor="#666666" pagecolor="#ffffff" showgrid="false" inkscape:window-width="1280" inkscape:window-height="750" inkscape:pageshadow="2" inkscape:pageopacity="0.0" inkscape:window-x="-8" inkscape:window-y="-8" inkscape:zoom="0.12833333" borderopacity="1.0" gridtolerance="10.0" objecttolerance="10.0" guidetolerance="10.0" inkscape:cx="868.83117">
	</sodipodi:namedview>
<g id="g2384">
	<path id="path2386" fill="#010101" d="M524.543,3046.037c-14.066-0.868-43.175-4.959-52.864-7.429
		c-27.086-6.905-49.003-13.898-57.991-18.506c-11.757-6.022-32.125-15.456-41.382-19.163c-5.105-2.045-10.8-5.325-37.127-21.391
		c-8.8-5.371-19.375-11.819-23.5-14.332c-4.125-2.514-11.922-7.965-17.326-12.114c-5.404-4.15-13.279-9.963-17.5-12.916
		c-8.815-6.17-14.742-10.989-24.653-20.048c-3.86-3.528-9.271-8.194-12.021-10.368c-14.209-11.23-59.916-58.804-79.5-82.743
		c-4.675-5.715-10.758-12.936-13.518-16.047c-9.935-11.198-37-50.708-45.144-65.897c-3.088-5.76-7.055-12.733-8.813-15.5
		c-8.587-13.495-14.396-24.729-24.06-46.526c-4.639-10.467-15.034-31.602-16.479-33.5c-1.312-1.728-9.763-23.1-18.085-45.741
		c-1.564-4.259-3.493-8.759-4.286-10c-0.793-1.242-2.433-5.634-3.644-9.759c-1.21-4.125-3.238-9.555-4.509-12.062
		c-1.271-2.51-2.815-7.46-3.438-11c-0.621-3.541-1.992-8.985-3.048-12.1c-2.877-8.498-6.772-42.327-7.928-68.838
		c-1.028-23.627-0.272-48.648,1.922-63.552c2.934-19.921,3.95-25.334,5.43-28.872c0.891-2.132,2.314-6.62,3.165-9.976
		c0.851-3.356,3.096-8.646,4.989-11.752c1.894-3.108,3.441-6.046,3.441-6.529c0-1.445,10.686-18.988,15.252-25.041
		c5.046-6.688,19.404-18.826,28.646-24.216c8.212-4.788,22.218-9.417,36.603-12.098c26.678-4.968,40.872-7.1,53-7.961
		c30.81-2.187,68.312-4.055,99.5-4.957c33.76-0.978,45.568-1.996,51.353-4.434c4.468-1.882,13.25-10.08,16.211-15.131
		c3.52-6.008,5.314-20.418,6.414-51.484c0.855-24.215,1.932-40.298,4.047-60.5c0.518-4.949,0.949-11.824,0.959-15.277
		c0.01-3.45,1.356-13.127,2.995-21.5c1.638-8.371,3.46-19.723,4.049-25.223s1.258-10.675,1.485-11.5
		c0.987-3.57,7.41-40.046,8.013-45.5c0.363-3.3,1.73-10.05,3.038-15c1.308-4.949,2.885-12.375,3.504-16.5s2.382-10.425,3.917-14
		c1.534-3.574,3.317-9.649,3.962-13.5c0.645-3.85,2.225-9.315,3.512-12.147s2.642-6.657,3.011-8.5
		c0.369-1.845,2.196-8.076,4.062-13.853c1.863-5.774,4.559-15.187,5.988-20.913c1.431-5.728,3.197-11.577,3.927-13
		c0.729-1.423,2.022-5.962,2.876-10.087c0.853-4.125,2.669-10.021,4.037-13.102c4.468-10.063,5.939-23.859,3.235-30.33
		c-0.901-2.161-3.501-4.795-7.25-7.352c-3.214-2.189-10.667-7.521-16.562-11.851c-5.896-4.327-15.977-11.467-22.399-15.867
		c-6.425-4.399-16.899-11.855-23.28-16.569s-16.326-11.737-22.104-15.607c-5.776-3.87-14.778-10.363-20.003-14.43
		c-5.226-4.065-14.686-11.101-21.021-15.63c-6.336-4.53-15.56-11.744-20.495-16.029c-4.938-4.286-13.478-11.252-18.978-15.48
		c-10.662-8.196-15.562-12.39-39.68-33.945c-29.223-26.119-72.563-70.479-89.698-91.808c-1.989-2.475-7.947-9.675-13.241-16
		c-5.293-6.324-13.33-17.125-17.858-24c-4.527-6.875-9.683-14.3-11.452-16.5c-6.87-8.535-11.646-16.731-20.976-36
		c-5.326-11-10.367-21.125-11.201-22.5c-6.188-10.191-10.957-22.766-15.551-41c-4.822-19.149-4.947-20.038-6.972-49.5
		c-3.244-47.252-1.241-93.072,4.496-102.863c5.934-10.125,14.619-16.584,39.313-29.232c9.25-4.738,19.293-10.075,22.318-11.859
		c30.451-17.967,36.232-22.262,45.402-33.723c6.923-8.651,12.598-20.482,12.598-26.262c0-1.917-0.877-5.71-1.948-8.429
		s-2.675-7.745-3.562-11.174c-0.889-3.427-2.938-8.708-4.553-11.734c-1.614-3.027-2.938-6.337-2.938-7.353
		s-1.371-6.127-3.047-11.357c-1.675-5.229-3.676-12.998-4.446-17.262c-1.3-7.19-3.189-16.105-6.841-32.252
		c-0.809-3.574-1.762-9.425-2.119-13c-0.355-3.574-1.948-11.449-3.537-17.5c-1.589-6.05-3.371-15.992-3.961-22.093
		c-0.59-6.103-2.199-14.877-3.575-19.5c-1.683-5.653-2.976-13.812-3.948-24.907c-0.797-9.075-2.348-22.125-3.444-29
		c-2.146-13.436-4.724-64.396-3.823-75.605c0.812-10.12,6.688-18.084,22.743-30.825c12.287-9.751,37.117-25.995,49.5-32.385
		c2.2-1.136,7.375-4.529,11.5-7.544s12.668-9.004,18.985-13.311c14.903-10.161,38.449-32.88,46.809-45.166
		c7.936-11.664,18.916-35.756,21.62-47.436c0.861-3.725,2.417-8.449,3.455-10.5c1.039-2.052,2.446-7.066,3.129-11.147
		c0.683-4.08,2.094-10.38,3.137-14c1.044-3.619,3.291-12.656,4.993-20.081s4.104-16.2,5.334-19.5c1.232-3.3,2.571-7.786,2.977-9.969
		c0.404-2.183,2.244-6.907,4.089-10.5c1.845-3.592,3.67-7.881,4.056-9.531c0.387-1.649,1.605-4.8,2.709-7
		c1.104-2.2,3.486-8.05,5.294-13c10.064-27.561,14.724-39.335,18.397-46.5c1.551-3.024,6.408-12.925,10.792-22
		c15.714-32.521,20.271-41.609,24.568-49c4.828-8.3,8.521-14.654,17.069-29.368c3.153-5.428,9.092-14.428,13.196-20
		c4.104-5.571,10.259-14.013,13.677-18.756c17.277-23.979,52.049-61.07,78.214-83.431c18.673-15.958,50.287-39.551,64.5-48.135
		c6.325-3.821,15.325-9.347,20-12.28c13.998-8.783,20.855-12.494,37.062-20.056c8.489-3.962,16.562-7.953,17.938-8.87
		c8.327-5.55,25.303-12.706,52.5-22.13c11-3.812,21.125-7.565,22.5-8.34s6.09-2.387,10.479-3.582
		c4.388-1.194,9.42-3.063,11.182-4.152c1.763-1.089,6.382-2.643,10.266-3.453s9.201-2.31,11.817-3.335
		c2.616-1.024,11.731-3.292,20.257-5.04s18.426-4.04,22.002-5.094c3.576-1.054,9.876-2.388,14-2.965s10.873-2.156,14.998-3.509
		c4.125-1.354,12-3.161,17.5-4.016s12.771-2.647,16.156-3.981c3.802-1.498,11.07-3.03,19-4.006
		c7.063-0.87,15.729-2.249,19.255-3.065s11.851-1.921,18.5-2.457c6.647-0.535,20.639-1.662,31.089-2.505
		c66.604-5.369,77.708-6.064,119.5-7.479c33.321-1.128,67.241-3.2,90.26-5.514c8.117-0.816,18.918-1.493,24-1.503
		c11.746-0.025,28.602-2.292,35.861-4.824c3.09-1.078,8.621-2.427,12.287-2.998c12.67-1.973,27.422-11.924,32.41-21.864
		c2.27-4.529,6.869-20.084,8.766-29.659c2.732-13.795,17.996-34.854,32.006-44.153c7.398-4.911,20.836-10.712,37.41-16.152
		c12.711-4.172,14.463-4.487,30-5.386c9.074-0.525,20.1-1.406,24.5-1.957c26.146-3.274,65.961-5.036,114-5.042
		c26.949-0.003,56.65,0.455,66,1.019c25.91,1.562,44.984,2.965,55.682,4.096c5.324,0.563,17.475,1.413,27,1.888
		c14.805,0.739,19.352,1.383,31.318,4.44c16.592,4.238,36.771,11.211,46.236,15.978c6.928,3.489,22.609,15.431,33.479,25.493
		c9.752,9.029,31.426,38.745,39.914,54.731c4.055,7.63,8.115,15.681,9.025,17.891c1.412,3.427,10.951,21.732,14.602,28.018
		c0.639,1.1,2.781,6.275,4.762,11.5c10.355,27.334,13.014,34.137,16.008,41c1.799,4.125,3.57,8.85,3.936,10.5
		c0.363,1.65,1.996,5.76,3.627,9.133c1.631,3.373,3.596,9.723,4.367,14.112s2.145,9.729,3.049,11.867
		c3.584,8.458,5.791,34.627,5.896,69.888c0.146,49.41-1.938,59.194-17.166,80.601c-9.068,12.746-32.211,32.923-52.734,45.976
		c-11.799,7.504-23.428,15.984-25.002,18.232c-2.158,3.082-1.889,10.553,0.531,14.708c1.117,1.916,3.557,6.64,5.42,10.496
		c1.865,3.856,6.479,12.448,10.246,19.094c3.771,6.644,10.871,20.588,15.781,30.986c4.908,10.399,11.938,24.532,15.621,31.407
		c6.812,12.726,14.902,29.96,14.902,31.756c0,0.993,5.127,13.177,11.467,27.244c10.867,24.115,12.158,27.35,17.566,44
		c4.234,13.038,9.943,31.883,11.057,36.5c0.664,2.75,2.014,6.62,3.002,8.601c0.986,1.979,2.707,8.055,3.82,13.5
		c1.115,5.444,3.121,12.601,4.461,15.899c1.338,3.299,2.734,8.925,3.104,12.5s1.762,11.226,3.096,17
		c1.334,5.775,3.074,16.575,3.867,24c0.795,7.425,2.135,19.8,2.98,27.5c5.002,45.518,7.021,103.441,4.688,134.5
		c-1.453,19.354-4.859,51.859-6.131,58.5c-0.525,2.75-1.428,9.275-2.004,14.5c-0.576,5.226-2.119,13.55-3.43,18.5
		s-2.898,12.15-3.531,16c-0.633,3.851-2.035,9.009-3.117,11.463c-1.084,2.454-2.824,8.38-3.869,13.167
		c-1.045,4.788-2.803,10.476-3.906,12.638c-1.102,2.161-2.68,6.812-3.506,10.332s-2.85,10.469-4.496,15.439
		c-1.648,4.972-3.754,12.396-4.68,16.5c-0.926,4.104-2.494,9.062-3.484,11.021c-0.988,1.957-2.533,6.396-3.434,9.866
		c-0.898,3.47-2.916,8.617-4.482,11.439c-1.564,2.823-3.168,6.708-3.561,8.633c-0.395,1.925-1.973,6.29-3.51,9.699
		c-1.537,3.41-3.549,8.791-4.469,11.957c-0.92,3.167-2.709,7.803-3.975,10.301c-1.266,2.499-3.021,6.97-3.9,9.937
		c-2.762,9.311-6.441,18.115-14.051,33.606c-4.051,8.25-11.443,23.326-16.43,33.502c-4.988,10.176-12.852,24.353-17.477,31.5
		c-4.625,7.148-11.279,17.596-14.787,23.216c-5.697,9.126-13.404,19.419-30.879,41.243c-12.379,15.459-43.223,47.96-84.395,88.931
		l-43.607,43.395v4.721c0,3.503,0.697,5.723,2.703,8.609c12.652,18.211,22.443,32.536,28.285,41.39
		c3.811,5.775,12.842,19.275,20.066,30c24.051,35.689,35.668,53.359,45.043,68.5c5.109,8.25,13.629,21.75,18.936,30
		s12.73,20.625,16.504,27.5c3.771,6.875,9.701,16.921,13.178,22.325c3.479,5.402,11.203,19.354,17.168,31
		c5.963,11.646,12.229,23.425,13.92,26.175c5.41,8.791,13.008,23.377,15.129,29.047c2.465,6.589,16.559,35.512,19.711,40.453
		c1.229,1.925,4.309,8.9,6.844,15.5s6.113,15.6,7.949,20c1.838,4.4,3.674,9.098,4.08,10.439c0.406,1.341,2.48,6.041,4.611,10.445
		c2.131,4.405,3.873,8.652,3.873,9.439s1.307,3.735,2.906,6.553c1.598,2.817,3.576,7.372,4.398,10.122
		c0.82,2.75,2.367,7.024,3.438,9.5c1.068,2.475,2.758,7.875,3.754,12c0.994,4.125,3.275,11.325,5.068,16s3.584,10.3,3.982,12.5
		s1.773,6.097,3.059,8.658c1.283,2.562,3.266,8.131,4.402,12.373c1.137,4.243,2.719,8.978,3.518,10.521
		c1.764,3.407,7.889,20.014,10.68,28.947c4.195,13.438,14.408,29.494,25.625,40.287c13.266,12.768,29.295,17.939,59.67,19.253
		c7.699,0.333,22.1,1.464,32,2.513c9.898,1.051,24.975,2.416,33.5,3.036c13.713,0.998,16.506,1.521,24.229,4.521
		c4.801,1.864,9.211,3.392,9.799,3.392c1.9,0,7.307,3.129,14.303,8.28c12.594,9.271,17.551,16.99,40.602,63.22
		c7.408,14.856,10.896,23.373,18.049,44.062c1.533,4.436,3.717,9.879,4.848,12.1c1.133,2.221,2.754,7.033,3.604,10.696
		c0.852,3.663,2.709,8.957,4.131,11.764c1.424,2.807,3.018,7.865,3.545,11.241s2.037,9.963,3.357,14.638
		c1.318,4.675,2.916,13.217,3.551,18.981s1.33,10.766,1.545,11.112s1.301,10.64,2.416,22.871
		c3.34,36.671,2.527,66.656-3.033,112.034c-1.111,9.075-2.285,18.741-2.607,21.479c-0.32,2.739-1.219,6.776-1.992,8.974
		c-0.773,2.194-2.092,8.235-2.928,13.423c-0.834,5.188-2.627,12.064-3.982,15.287c-1.354,3.221-3.16,8.859-4.012,12.529
		c-0.852,3.671-2.646,9.287-3.992,12.479c-1.344,3.194-2.943,8.145-3.557,10.999c-0.613,2.855-2.363,8.147-3.893,11.762
		c-1.527,3.611-3.746,9.846-4.932,13.853c-1.184,4.006-3.645,10.756-5.471,15c-5.92,13.763-32.453,66.219-36.443,72.048
		c-2.135,3.117-5.449,8.144-7.365,11.168c-13.365,21.096-16.965,26.506-22.945,34.5c-14.643,19.57-23.34,30.312-35.922,44.35
		c-13.471,15.028-45.785,46.838-51.951,51.136c-1.896,1.321-9.334,7.284-16.529,13.25c-11.941,9.901-44.775,33.102-56.895,40.198
		c-2.734,1.603-14.436,7.742-26,13.646c-11.562,5.903-23.275,11.896-26.025,13.319c-14.773,7.646-35.121,13.322-55.5,15.482
		c-26.055,2.764-78.52,1.984-91.268-1.354c-9.27-2.428-15.736-6.236-23.557-13.874c-14.305-13.97-24.74-32.075-26.689-46.309
		c-2.746-20.062-4.67-28.167-8.701-36.668c-4.305-9.067-8.725-14.122-13.377-15.29c-5.404-1.355-16.996,0.182-21.566,2.858
		c-2.402,1.407-7.061,3.312-10.354,4.229c-3.293,0.919-15.213,4.835-26.488,8.703c-18.701,6.416-25.156,9.017-48,19.339
		c-15.283,6.906-23.783,10.482-24.91,10.482c-1.645,0-22.996,8.365-33.09,12.965c-4.674,2.131-9.625,4.181-11,4.557
		s-4.074,1.596-6,2.711c-6.572,3.809-24.838,9.538-62.586,19.639c-6.096,1.631-12.82,3.689-14.939,4.575s-8.381,2.248-13.914,3.027
		c-5.531,0.779-13.211,2.614-17.061,4.077c-5.08,1.931-10.154,2.91-18.5,3.57c-6.324,0.5-17.574,1.993-25,3.317
		c-7.424,1.325-18.225,2.679-24,3.007s-22.199,1.471-36.5,2.539c-42.428,3.168-107.697,6.836-142.904,8.029
		c-18.097,0.613-43.746,1.987-57,3.055c-13.252,1.065-35.796,2.39-50.096,2.939c-52.761,2.032-70.323,3.087-84,5.043
		c-7.7,1.102-21.425,2.441-30.5,2.979c-23.433,1.388-37.965,2.782-45.753,4.396c-3.711,0.768-10.797,1.705-15.747,2.081
		c-19.163,1.457-47.054,8.822-62.299,16.452c-29.955,14.99-55.669,28.275-62.701,32.396c-18.891,11.07-39.032,19.108-67,26.735
		c-11.868,3.237-12.271,3.274-36.5,3.501C549.205,3046.775,532.043,3046.498,524.543,3046.037z M1207.285,2916.085
		c7.092-0.534,17.619-1.433,23.395-1.994c5.775-0.563,15.449-1.497,21.5-2.077c6.049-0.58,15.949-2.136,22-3.458
		c6.049-1.321,14.375-2.858,18.5-3.416c4.125-0.557,10.76-2.125,14.744-3.485s11.037-3.186,15.676-4.055s10.201-2.204,12.361-2.966
		c2.162-0.763,7.707-2.151,12.324-3.085c11.309-2.289,39.967-11.016,44.082-13.424c1.82-1.066,5.561-2.473,8.311-3.125
		c2.75-0.651,7.428-2.521,10.395-4.153c2.967-1.633,8.365-4.002,12-5.265c20.055-6.971,39.492-15.598,59.105-26.231
		c9.076-4.92,21.586-11.514,27.801-14.65c6.215-3.14,15.891-8.775,21.5-12.527s12.9-8.524,16.199-10.606
		c25.371-16.009,62.402-43.048,77.682-56.721c5.125-4.587,12.244-10.748,15.818-13.69c9.363-7.708,42.051-40.086,59.227-58.667
		c8.1-8.762,18.631-21.104,23.402-27.43c4.771-6.326,10.521-13.791,12.773-16.59c12.361-15.349,46.621-68.587,55.584-86.374
		c1.793-3.555,4.375-8.231,5.74-10.396c6.166-9.768,13.795-23.723,22.525-41.205c5.201-10.414,13.094-26.082,17.541-34.817
		c7.215-14.171,13.598-29.003,20.277-47.118c1.217-3.3,2.984-7.125,3.93-8.5c0.943-1.375,2.742-5.649,3.994-9.5
		c1.252-3.85,2.936-8.3,3.738-9.889c4.557-9.007,7.236-36.15,5.344-54.111c-0.639-6.05-1.559-18.425-2.043-27.5
		c-0.617-11.511-1.664-19.889-3.467-27.705c-1.42-6.162-3.037-15.838-3.598-21.5c-1.225-12.416-2.477-18.957-4.998-26.135
		c-1.045-2.973-2.375-9.626-2.955-14.783c-0.58-5.156-2.148-14.552-3.486-20.877c-1.336-6.324-3.602-18.024-5.031-26
		c-1.43-7.975-3.645-19-4.918-24.5s-2.836-12.779-3.475-16.178c-0.635-3.397-2.014-8.123-3.062-10.5s-2.441-7.473-3.096-11.322
		c-0.652-3.849-2.65-10.824-4.439-15.5c-1.789-4.675-3.555-10.899-3.926-13.834s-1.535-7.658-2.586-10.5
		c-1.053-2.842-3.061-10.053-4.459-16.024c-1.4-5.972-3.865-15.198-5.475-20.5c-1.609-5.303-3.238-11.216-3.619-13.141
		c-0.381-1.926-1.721-5.544-2.979-8.043c-1.26-2.498-3.062-7.225-4.004-10.5c-0.943-3.276-2.631-7.757-3.752-9.957
		s-3.285-7.825-4.812-12.5c-10.826-33.202-14.945-43.019-31.051-74c-7.029-13.521-7.648-14.452-10.92-16.385
		c-4.408-2.604-10.529-1.988-19.428,1.95c-4.4,1.949-10.773,4.608-14.164,5.911c-3.393,1.303-12.615,5.506-20.5,9.341
		c-17.77,8.641-24.924,11.874-31.336,14.16c-7.91,2.82-24.701,9.964-28.08,11.947c-1.695,0.994-4.846,2.368-7,3.053
		c-2.156,0.685-5.945,2.359-8.42,3.721c-6.951,3.825-31.525,12.418-56.5,19.756c-4.4,1.293-10.15,3.321-12.779,4.509
		c-2.629,1.187-7.963,2.819-11.852,3.632c-3.891,0.811-9.215,2.56-11.832,3.886c-2.617,1.327-7.859,2.951-11.648,3.609
		c-3.789,0.657-9.35,2.042-12.355,3.073c-3.01,1.033-11.783,3.021-19.5,4.416c-7.719,1.396-19.883,3.812-27.031,5.372
		c-7.15,1.561-15.926,3.141-19.5,3.513c-3.576,0.373-12.352,1.972-19.5,3.551c-7.15,1.579-17.951,3.171-24,3.536
		c-6.051,0.363-16.176,1.55-22.5,2.634c-26.688,4.573-30.4,4.818-82,5.421c-61.873,0.723-94.902-0.417-117.5-4.053
		c-8.801-1.416-22.525-3.067-30.5-3.669s-23.912-2.621-35.416-4.488c-11.502-1.867-22.752-3.406-25-3.419
		c-2.246-0.014-5.885-0.455-8.084-0.981c-2.2-0.525-17.5-2.981-34-5.457c-16.5-2.477-32.996-5.365-36.658-6.423
		c-3.662-1.057-10.823-2.463-15.913-3.124c-5.089-0.662-12.177-2.304-15.749-3.647c-3.572-1.345-10.127-3.134-14.564-3.976
		c-4.438-0.843-9.655-2.231-11.592-3.089c-1.938-0.854-8.022-2.562-13.522-3.792c-14.761-3.3-45.375-11.407-49.355-13.07
		c-1.901-0.795-6.426-2.129-10.052-2.963s-9.293-2.811-12.593-4.394s-7.8-3.199-10-3.593c-2.2-0.395-7.601-2.194-12-4.003
		c-7.577-3.113-10.549-4.173-28.5-10.16c-26.851-8.957-32.378-10.947-37.09-13.352c-7.275-3.712-24.123-10.603-46.41-18.98
		c-15.095-5.675-22.062-8.601-32.5-13.646c-20.971-10.136-39.072-18.327-40.5-18.327c-1.161,0-16.479-6.979-34-15.494
		c-8.25-4.01-16.125-7.614-17.5-8.012c-1.375-0.396-3.896-1.564-5.599-2.596c-1.703-1.03-6.203-3.017-10-4.413
		c-7.554-2.778-8.826-3.362-34.401-15.752c-19.131-9.268-32.112-15.126-36-16.246c-3.806-1.097-23.187-9.581-25.849-11.314
		c-1.291-0.842-4.517-1.562-7.168-1.601c-6.186-0.093-8.983,2.402-11.424,10.183c-0.989,3.16-2.811,7.771-4.045,10.246
		c-1.232,2.475-2.804,6.3-3.488,8.5c-2.324,7.455-9.863,24.119-20.584,45.5c-4.093,8.161-14.104,36.166-19.305,54
		c-1.522,5.225-3.58,11.041-4.569,12.924c-0.989,1.884-2.646,6.963-3.679,11.288c-1.032,4.324-2.555,9.172-3.382,10.771
		c-0.826,1.6-2.356,6.419-3.4,10.712s-3.489,14.105-5.434,21.807c-1.943,7.699-4.052,17.521-4.685,21.826
		c-0.633,4.304-2.017,10.341-3.073,13.416c-1.058,3.073-2.575,9.901-3.372,15.174c-0.796,5.271-2.568,12.322-3.937,15.668
		c-1.37,3.347-2.992,10.097-3.607,15c-0.614,4.904-2.415,13.416-4.001,18.916s-3.16,12.925-3.498,16.5
		c-0.337,3.574-1.458,11.225-2.491,17c-2.441,13.652-6.584,41.072-7.93,52.5c-0.583,4.949-1.947,13.949-3.031,20
		c-1.084,6.05-2.268,15.725-2.629,21.5c-0.362,5.774-1.729,16.29-3.036,23.365c-3.113,16.842-4.22,29.6-5.303,61.135
		c-1.008,29.334,0.056,61.412,2.277,68.74c1.827,6.021,6.024,13.215,8.877,15.214c2.616,1.832,8.018,2.016,11.078,0.377
		c3.354-1.794,15.011-11.948,27.213-23.706c6.063-5.844,21.584-20.75,34.486-33.125c12.903-12.375,31.566-30.428,41.475-40.117
		c29.174-28.533,31.605-30.832,40.505-38.277c4.671-3.908,11.421-9.853,15-13.211c3.579-3.356,15.057-12.12,25.507-19.473
		c16.139-11.355,22.991-15.388,45.5-26.773c14.575-7.373,27.625-14.187,29-15.14c1.375-0.952,11.432-5.907,22.35-11.012l19.85-9.279
		l79.65,0.164c81.562,0.168,104.178,0.972,132.15,4.698c13.958,1.86,31.892,5.795,35.934,7.886c1.632,0.845,5.353,2.029,8.268,2.634
		c2.915,0.605,7.324,2.222,9.8,3.591c2.475,1.369,7.2,3.523,10.5,4.789c19.623,7.518,50.853,22.669,66,32.021
		c5.5,3.396,12.925,7.905,16.5,10.021c9.891,5.852,20.938,13.354,26.5,17.993c2.75,2.295,9.887,7.871,15.859,12.394
		c20.939,15.851,57.48,51.498,72.357,70.594c2.143,2.75,8.879,11.323,14.973,19.052c6.102,7.743,17.035,23.684,24.352,35.5
		c16.959,27.398,16.725,26.977,23.951,42.948c6.656,14.707,12.078,26.177,18.117,38.328c2.141,4.305,3.895,8.58,3.9,9.5
		s1.139,4.096,2.518,7.06c1.379,2.961,3.609,9.711,4.957,15c1.346,5.287,3.812,13.635,5.482,18.551
		c1.668,4.916,3.033,9.755,3.033,10.754c0,0.998,1.322,5.977,2.938,11.062c2.021,6.361,3.453,14.081,4.588,24.746
		c0.906,8.525,2.541,19.775,3.633,25c1.658,7.937,2.213,17.238,3.367,56.5c1.746,59.401,1.754,83.521,0.035,110.5
		c-1.053,16.532-1.834,22.771-3.389,27c-1.109,3.025-2.939,8.943-4.064,13.151c-2.07,7.736-13.953,32.335-18.502,38.298
		c-5.949,7.8-28.113,31.299-56.168,59.551c-16.658,16.775-31.49,31.968-32.959,33.759c-4.945,6.034-4.201,14.18,1.58,17.273
		C1158.875,2916.837,1184.578,2917.796,1207.285,2916.085z M1418.68,1568.559c5.775-0.8,15.225-1.947,21-2.549
		c7.719-0.805,12.223-1.865,17-4.002c3.574-1.598,9.424-3.988,13-5.312c19.918-7.371,32.031-13.904,52.166-28.14
		c24.684-17.449,53.863-41.416,82.609-67.853c24.021-22.092,75.738-74.111,85.02-85.52c4.238-5.209,10.877-13.105,14.754-17.55
		c10.709-12.274,25.189-34.206,36.693-55.579c1.629-3.025,3.518-6.175,4.197-7c2.055-2.494,9.395-16.502,11.617-22.178
		c1.148-2.928,6.744-14.772,12.439-26.322c13.184-26.747,15.986-33.432,25.152-59.963c1.32-3.829,3.344-8.555,4.49-10.5
		c4.385-7.428,17.049-44.303,20.447-59.537c1.352-6.05,3.289-13.25,4.307-16c1.02-2.75,2.375-8.15,3.018-12s2.471-10.825,4.062-15.5
		c2.256-6.618,3.146-11.71,4.018-23c0.617-7.975,1.531-17.445,2.033-21.046c2.055-14.756,3.088-51.273,3.365-118.954
		c0.322-77.557-0.359-103.817-3.334-128.5c-1.061-8.8-2.225-18.7-2.584-22c-0.361-3.3-1.797-9.15-3.188-13
		c-1.393-3.85-3.312-10.375-4.27-14.5s-2.436-9.148-3.289-11.162c-0.852-2.014-2.303-7.189-3.221-11.5
		c-2-9.382-10.738-35.87-13.947-42.275c-1.256-2.509-2.861-6.361-3.566-8.562c-0.703-2.2-2.725-6.925-4.486-10.5
		c-1.764-3.575-4.736-10.075-6.605-14.445c-4.93-11.523-14.193-30.089-18.594-37.255c-14.469-23.572-27.367-42.924-32.963-49.449
		c-2.662-3.105-9.281-10.889-14.709-17.293c-5.426-6.404-12.574-13.986-15.887-16.851s-10.799-9.391-16.635-14.503
		c-16.801-14.717-32.684-24.748-62.129-39.243c-9.938-4.891-36.838-14.961-39.967-14.961c-1.885,0-19.291-6.893-27.518-10.895
		c-4.398-2.142-12.049-5.794-17-8.117c-28.852-13.545-38.625-18.955-55.902-30.944c-21.223-14.729-36.486-28.874-54.545-50.544
		c-15.219-18.263-20.645-25.438-26.533-35.074c-2.664-4.359-7.109-11.301-9.877-15.426c-2.771-4.125-9.375-14.025-14.68-22
		c-14.885-22.385-29.355-37.619-50.963-53.646c-18.49-13.718-33.605-21.546-56.859-29.446c-4.6-1.562-9.943-3.774-11.875-4.914
		c-1.934-1.141-6.721-2.744-10.641-3.564c-3.918-0.82-9.6-2.414-12.625-3.542c-6.213-2.317-38.633-7.958-60.18-10.47
		c-10.805-1.26-26.471-1.784-63.82-2.135c-60.321-0.567-93.688,0.964-145,6.655c-9.625,1.067-22.675,2.437-29,3.043
		c-6.325,0.607-15.55,2.007-20.5,3.112c-4.95,1.104-15.402,2.638-23.229,3.407c-8.348,0.821-18.89,2.632-25.5,4.382
		c-6.198,1.64-15.32,3.273-20.271,3.629s-13.05,1.692-18,2.971c-4.95,1.279-11.7,2.627-15,2.996
		c-9.646,1.079-28.237,4.47-38.5,7.023c-5.225,1.3-12.425,2.875-16,3.499s-9.463,2.193-13.084,3.487
		c-3.621,1.293-9.138,2.823-12.259,3.4s-8.783,2.414-12.583,4.082c-3.801,1.667-7.562,3.032-8.36,3.032
		c-0.798,0-7.248,1.8-14.333,4.001c-30.375,9.434-42.123,13.402-45.881,15.496c-2.2,1.226-6.7,3.225-10,4.443
		c-3.3,1.217-7.417,3.088-9.147,4.156c-1.732,1.068-5.758,2.84-8.947,3.937c-3.188,1.097-6.729,2.604-7.864,3.349
		c-1.138,0.745-5.277,2.513-9.201,3.928c-8.495,3.064-29.545,13.455-44.839,22.134c-6.05,3.434-15.274,8.648-20.5,11.592
		c-9.66,5.438-13.67,8.09-38.5,25.46c-17.702,12.384-18.701,13.146-31.506,24.005c-24.618,20.88-29.211,25.119-43.529,40.183
		c-42.4,44.608-78.499,98.559-101.581,151.817c-2.384,5.5-5.396,11.739-6.692,13.864s-2.952,5.544-3.678,7.598
		c-0.725,2.053-2.233,5.531-3.355,7.729c-2.883,5.651-11.62,29.746-13.165,36.309c-0.713,3.025-2.16,7.525-3.216,10
		c-1.057,2.475-2.584,7.361-3.396,10.857c-0.811,3.497-2.562,8.446-3.895,11c-1.331,2.554-3.105,7.914-3.944,11.913
		c-0.838,4-2.428,9.044-3.532,11.21c-1.104,2.165-2.928,7.894-4.052,12.729s-3.163,12.346-4.53,16.69
		c-1.369,4.345-3.352,11.771-4.404,16.501c-1.053,4.729-2.675,10.399-3.604,12.601c-0.928,2.199-2.297,6.591-3.044,9.759
		c-0.747,3.169-2.653,8.344-4.235,11.5c-1.584,3.157-3.204,6.865-3.602,8.24c-0.396,1.375-2.718,7-5.157,12.5
		c-9.275,20.911-14.652,30.469-23.197,41.237c-8.949,11.275-38.892,41.527-60.185,60.808c-26.544,24.034-28,25.582-28,29.773
		c0,4.771,2.123,8.921,5.965,11.655c1.646,1.173,5.815,5.589,9.266,9.814c3.447,4.225,8.633,10.332,11.521,13.572
		c4.611,5.175,5.25,6.416,5.25,10.205c0,3.632-0.778,5.329-4.925,10.739c-2.709,3.534-9.976,13.798-16.146,22.811
		c-6.172,9.011-12.665,18.184-14.431,20.384c-8.188,10.208-16.244,27.182-19.139,40.329c-3.111,14.133-1.488,44.285,3.186,59.171
		c0.776,2.475,2.113,7.871,2.972,11.99c0.856,4.12,2.672,9.925,4.033,12.897c1.361,2.976,3.156,8.346,3.988,11.935
		c0.833,3.589,2.375,7.92,3.43,9.623c1.053,1.704,2.894,6.688,4.091,11.075c1.196,4.39,2.749,9.104,3.448,10.479
		c0.698,1.375,2.686,7.604,4.412,13.844c4.992,18.023,7.997,22.593,16.081,24.45c1.375,0.314,19.15,0.662,39.5,0.771
		c47.146,0.25,123.052,2.248,187,4.926c12.65,0.529,43.925,1.432,69.5,2.005c82.756,1.854,150.427,7.091,167.834,12.983
		c3.116,1.056,8.498,2.634,11.959,3.509c3.462,0.874,8.062,2.512,10.226,3.639c2.162,1.127,6.756,3.09,10.207,4.362
		c3.451,1.271,11.899,4.636,18.774,7.477c6.875,2.84,15.478,6.26,19.115,7.599c6.2,2.28,16.238,7.221,33.885,16.674
		c4.125,2.21,14.7,7.625,23.5,12.033c8.8,4.407,20.189,10.678,25.31,13.933c9.152,5.819,16.119,9.788,39.416,22.454
		c6.448,3.506,15.674,9.204,20.5,12.663c4.826,3.458,12.375,8.248,16.774,10.644c10.771,5.864,26.269,15.312,42,25.604
		c7.15,4.678,15.025,9.567,17.5,10.868c2.476,1.299,13.578,8.37,24.674,15.714c11.097,7.343,23.021,14.925,26.501,16.85
		c3.479,1.924,11.727,7.128,18.325,11.563c6.599,4.435,16.726,10.916,22.5,14.4c5.775,3.485,16.8,10.468,24.5,15.517
		s18.275,11.673,23.5,14.721c21.615,12.609,26.876,15.719,34.513,20.394c4.404,2.698,12.279,6.998,17.5,9.556
		c5.219,2.558,15.562,7.695,22.986,11.42c23.689,11.882,29.281,14.599,39.5,19.186c9.145,4.104,14.094,6.009,35.061,13.48
		c3.881,1.384,8.605,3.324,10.5,4.312c1.893,0.987,6.814,3.009,10.939,4.489c4.125,1.481,9.75,3.61,12.5,4.73
		c2.75,1.119,8.375,3.013,12.5,4.203c4.125,1.192,10.426,3.056,14,4.141c3.576,1.084,10.551,2.826,15.5,3.871
		c4.951,1.045,11.025,2.624,13.5,3.509c2.477,0.885,8.102,2.093,12.5,2.685c4.4,0.592,11.559,2.384,15.904,3.981
		c5.416,1.992,11.238,3.216,18.5,3.89c8.822,0.817,23.377,2.608,35.096,4.317C1389.076,1570.353,1409.207,1569.871,1418.68,1568.559
		z M633.179,1020.002c-4.4-0.48-13.4-1.783-20-2.896c-6.6-1.11-16.275-2.489-21.5-3.062c-13.429-1.478-44.735-9.491-55.5-14.208
		c-10.055-4.407-31.577-15.878-41.5-22.12c-10.285-6.472-20.283-15.125-30.688-26.566c-11.119-12.227-16.933-20.753-22.452-32.935
		c-2.158-4.763-4.991-10.685-6.298-13.158c-1.305-2.475-2.884-6.525-3.509-9s-2.451-7.425-4.058-11
		c-1.876-4.174-3.471-10.257-4.457-17c-0.844-5.775-2.323-13.875-3.287-18c-1.511-6.463-1.753-12.822-1.749-46
		c0.003-37.298,0.091-39.047,2.798-56c1.537-9.625,3.227-20.561,3.752-24.301c0.526-3.74,1.865-8.58,2.977-10.756
		c1.108-2.177,2.701-7.44,3.539-11.699c0.838-4.26,2.651-10.495,4.031-13.857c1.38-3.361,3.135-8.312,3.897-11
		c4.106-14.447,13.303-38.754,17.735-46.881c23.434-42.955,28.109-50.186,46.896-72.506c23.422-27.826,54.96-51.769,80.92-61.432
		c12.289-4.573,16.634-5.401,32.541-6.203c17.914-0.902,33.408,0.847,43.852,4.949c12.938,5.084,32.012,17.663,44.95,29.651
		c5.813,5.385,27.386,30.134,33.12,37.996c4.574,6.272,17.764,27.004,21.971,34.537c1.536,2.75,3.34,5.675,4.006,6.5
		c1.916,2.369,9.006,16.524,14.023,28c5,11.433,9.559,21.603,14.57,32.5c6.984,15.19,19.235,53.727,22.01,69.235
		c0.566,3.171,2.298,9.14,3.848,13.265c1.551,4.129,3.132,10.851,3.519,14.953c0.387,4.1,1.767,10.85,3.065,15
		c2.978,9.497,3.941,15.75,6.18,40.047c3.029,32.904,2.367,62.1-2.259,99.507c-0.271,2.204-1.657,6.479-3.079,9.5
		c-1.42,3.021-3.196,8.36-3.947,11.865s-2.301,7.955-3.44,9.89c-1.142,1.936-3.121,6.089-4.396,9.232
		c-6.277,15.445-18.5,30.679-33.72,42.02c-10.237,7.629-25.025,13.396-42.361,16.516c-7.15,1.286-16.601,3.092-21,4.011
		c-6.372,1.332-15.021,1.734-42.5,1.977C656.705,1020.74,637.58,1020.483,633.179,1020.002z M561.003,830.694
		c8.33-3.479,22.67-22.538,27.942-37.138c6.361-17.608,6.13-15.876,6.103-45.5c-0.028-30.326-0.358-32.284-7.266-43.177
		c-5.543-8.74-19.967-13.189-29.329-9.048c-8.757,3.874-18.386,15.333-23.714,28.225c-1.25,3.025-3.086,6.85-4.076,8.5
		c-0.992,1.65-2.809,6.375-4.036,10.5c-1.229,4.125-3.113,9.256-4.189,11.402c-2.442,4.877-5.728,22.951-5.745,31.619
		c-0.018,8.188,2.849,18.701,6.604,24.231c4.498,6.624,13.378,15.131,19.399,18.583
		C548.837,832.415,555.351,833.057,561.003,830.694z"/>
</g>
</svg>
