<?xml version="1.0" encoding="utf-8"?>
<!-- Generator: Adobe Illustrator 15.1.0, SVG Export Plug-In . SVG Version: 6.00 Build 0)  -->
<!DOCTYPE svg PUBLIC "-//W3C//DTD SVG 1.1//EN" "http://www.w3.org/Graphics/SVG/1.1/DTD/svg11.dtd">
<svg version="1.1"
	 id="svg2" xmlns:sodipodi="http://sodipodi.sourceforge.net/DTD/sodipodi-0.dtd" inkscape:version="0.46" xmlns:inkscape="http://www.inkscape.org/namespaces/inkscape" inkscape:output_extension="org.inkscape.output.svg.inkscape" xmlns:svg="http://www.w3.org/2000/svg" xmlns:dc="http://purl.org/dc/elements/1.1/" xmlns:cc="http://creativecommons.org/ns#" xmlns:rdf="http://www.w3.org/1999/02/22-rdf-syntax-ns#" sodipodi:docname="run.svg" sodipodi:version="0.32"
	 xmlns="http://www.w3.org/2000/svg" xmlns:xlink="http://www.w3.org/1999/xlink" x="0px" y="0px" width="2152.633px"
	 height="3046.676px" viewBox="721.319 31.947 2152.633 3046.676" enable-background="new 721.319 31.947 2152.633 3046.676"
	 xml:space="preserve">
<g id="g2384_1_">
	<path id="path2386_1_" fill="#FFFFFF" d="M1245.864,3077.98c-14.066-0.868-43.175-4.958-52.864-7.428
		c-27.086-6.906-49.003-13.899-57.991-18.506c-11.757-6.023-32.125-15.456-41.382-19.163c-5.106-2.045-10.8-5.325-37.127-21.391
		c-8.8-5.37-19.375-11.819-23.5-14.331c-4.125-2.514-11.922-7.965-17.326-12.115c-5.405-4.15-13.28-9.963-17.5-12.916
		c-8.816-6.17-14.743-10.989-24.654-20.047c-3.86-3.529-9.27-8.195-12.02-10.369c-14.209-11.23-59.916-58.803-79.5-82.743
		c-4.675-5.715-10.758-12.936-13.518-16.047c-9.934-11.198-37-50.708-45.143-65.897c-3.088-5.76-7.055-12.734-8.814-15.5
		c-8.587-13.495-14.396-24.73-24.059-46.527c-4.639-10.466-15.035-31.601-16.479-33.5c-1.312-1.727-9.762-23.099-18.085-45.741
		c-1.564-4.258-3.493-8.758-4.286-10s-2.432-5.634-3.643-9.759c-1.21-4.125-3.239-9.554-4.509-12.062
		c-1.271-2.51-2.816-7.46-3.438-11c-0.621-3.541-1.992-8.985-3.047-12.1c-2.877-8.497-6.773-42.327-7.928-68.838
		c-1.029-23.627-0.273-48.648,1.921-63.551c2.934-19.921,3.951-25.334,5.43-28.872c0.891-2.132,2.315-6.62,3.165-9.976
		c0.851-3.356,3.096-8.645,4.989-11.752c1.894-3.108,3.442-6.046,3.442-6.529c0-1.445,10.685-18.988,15.252-25.041
		c5.046-6.688,19.404-18.826,28.646-24.216c8.212-4.788,22.218-9.417,36.603-12.097c26.678-4.968,40.872-7.1,53-7.961
		c30.809-2.187,68.311-4.055,99.5-4.958c33.76-0.977,45.568-1.996,51.352-4.433c4.468-1.882,13.25-10.08,16.211-15.131
		c3.52-6.008,5.315-20.418,6.414-51.484c0.856-24.215,1.932-40.298,4.047-60.5c0.518-4.95,0.949-11.824,0.959-15.277
		c0.01-3.451,1.357-13.127,2.995-21.5c1.638-8.372,3.46-19.723,4.049-25.223s1.258-10.675,1.486-11.5
		c0.987-3.571,7.41-40.046,8.012-45.5c0.364-3.3,1.731-10.05,3.039-15c1.307-4.95,2.884-12.375,3.503-16.5s2.382-10.425,3.917-14
		s3.318-9.65,3.962-13.5c0.645-3.85,2.225-9.316,3.512-12.148s2.642-6.657,3.011-8.5c0.369-1.844,2.196-8.076,4.061-13.852
		c1.863-5.775,4.559-15.187,5.989-20.913c1.43-5.728,3.197-11.578,3.926-13c0.729-1.423,2.023-5.962,2.876-10.087
		s2.669-10.021,4.037-13.102c4.468-10.063,5.94-23.859,3.236-30.33c-0.902-2.161-3.501-4.795-7.25-7.351
		c-3.214-2.19-10.667-7.522-16.562-11.851c-5.896-4.327-15.976-11.467-22.399-15.867c-6.425-4.4-16.9-11.856-23.28-16.57
		c-6.381-4.714-16.327-11.737-22.104-15.607c-5.776-3.87-14.778-10.363-20.003-14.43c-5.225-4.065-14.685-11.1-21.021-15.63
		s-15.56-11.744-20.496-16.029c-4.938-4.286-13.477-11.252-18.977-15.48c-10.662-8.197-15.562-12.39-39.68-33.946
		c-29.222-26.119-72.563-70.479-89.698-91.807c-1.989-2.475-7.947-9.675-13.241-16c-5.293-6.325-13.33-17.125-17.858-24
		s-9.683-14.3-11.453-16.5c-6.87-8.535-11.646-16.732-20.975-36c-5.326-11-10.367-21.125-11.202-22.5
		c-6.188-10.192-10.957-22.766-15.55-41c-4.823-19.15-4.948-20.038-6.972-49.5c-3.244-47.252-1.241-93.073,4.496-102.864
		c5.934-10.124,14.619-16.583,39.314-29.232c9.25-4.738,19.293-10.075,22.318-11.859c30.451-17.967,36.232-22.262,45.402-33.723
		c6.923-8.651,12.598-20.482,12.598-26.262c0-1.917-0.877-5.71-1.948-8.428c-1.071-2.719-2.675-7.746-3.562-11.174
		c-0.888-3.427-2.937-8.708-4.552-11.735s-2.938-6.336-2.938-7.352s-1.371-6.127-3.047-11.357
		c-1.675-5.23-3.676-12.999-4.446-17.262c-1.3-7.191-3.19-16.106-6.841-32.252c-0.809-3.575-1.762-9.425-2.119-13
		c-0.356-3.575-1.948-11.45-3.537-17.5s-3.371-15.992-3.961-22.093c-0.59-6.102-2.199-14.877-3.575-19.5
		c-1.683-5.653-2.976-13.812-3.949-24.907c-0.797-9.075-2.347-22.125-3.444-29c-2.146-13.436-4.724-64.396-3.823-75.606
		c0.812-10.12,6.688-18.084,22.743-30.825c12.287-9.751,37.117-25.995,49.5-32.385c2.2-1.135,7.375-4.529,11.5-7.544
		c4.125-3.014,12.668-9.003,18.985-13.31c14.904-10.161,38.45-32.88,46.809-45.166c7.936-11.664,18.916-35.756,21.62-47.436
		c0.861-3.724,2.417-8.449,3.455-10.5c1.039-2.051,2.446-7.066,3.129-11.147c0.682-4.08,2.094-10.38,3.137-14
		c1.044-3.619,3.291-12.656,4.993-20.081s4.103-16.2,5.334-19.5c1.232-3.3,2.571-7.786,2.976-9.969s2.244-6.907,4.089-10.5
		c1.845-3.592,3.67-7.881,4.056-9.531s1.605-4.8,2.709-7s3.486-8.05,5.294-13c10.064-27.561,14.724-39.335,18.397-46.5
		c1.551-3.025,6.408-12.925,10.792-22c15.714-32.521,20.271-41.61,24.569-49c4.828-8.3,8.521-14.655,17.069-29.368
		c3.153-5.428,9.092-14.428,13.196-20s10.259-14.013,13.677-18.756c17.277-23.979,52.049-61.071,78.214-83.431
		c18.673-15.958,50.287-39.551,64.5-48.135c6.325-3.821,15.325-9.347,20-12.28c13.998-8.783,20.855-12.494,37.062-20.056
		c8.49-3.962,16.562-7.953,17.938-8.87c8.327-5.55,25.303-12.706,52.5-22.13c11-3.812,21.125-7.565,22.5-8.34
		s6.09-2.387,10.479-3.582c4.388-1.194,9.42-3.063,11.182-4.152c1.763-1.089,6.382-2.643,10.266-3.453
		c3.883-0.81,9.201-2.31,11.817-3.335c2.616-1.024,11.731-3.292,20.257-5.04c8.525-1.748,18.426-4.04,22.002-5.094
		s9.876-2.388,14-2.965c4.124-0.577,10.873-2.156,14.998-3.509c4.125-1.354,12-3.161,17.5-4.016
		c5.5-0.855,12.771-2.647,16.156-3.981c3.802-1.498,11.07-3.03,19-4.006c7.064-0.87,15.729-2.249,19.255-3.065
		c3.526-0.816,11.851-1.921,18.5-2.457c6.648-0.535,20.639-1.662,31.089-2.505c66.604-5.369,77.708-6.064,119.5-7.479
		c33.321-1.128,67.24-3.2,90.26-5.514c8.117-0.816,18.917-1.493,24-1.503c11.746-0.025,28.602-2.292,35.861-4.824
		c3.091-1.078,8.621-2.427,12.287-2.998c12.671-1.973,27.422-11.924,32.41-21.864c2.271-4.529,6.87-20.084,8.766-29.659
		c2.732-13.795,17.997-34.854,32.007-44.153c7.398-4.911,20.835-10.712,37.409-16.152c12.712-4.172,14.463-4.487,30-5.386
		c9.075-0.525,20.1-1.406,24.5-1.957c26.146-3.274,65.962-5.036,114-5.042c26.95-0.003,56.65,0.455,66,1.019
		c25.91,1.562,44.985,2.965,55.682,4.096c5.325,0.563,17.475,1.413,27,1.888c14.805,0.739,19.351,1.383,31.318,4.44
		c16.592,4.238,36.771,11.211,46.236,15.978c6.928,3.489,22.61,15.431,33.479,25.493c9.752,9.029,31.425,38.745,39.915,54.731
		c4.053,7.63,8.114,15.681,9.024,17.891c1.412,3.427,10.952,21.732,14.602,28.018c0.639,1.1,2.781,6.275,4.761,11.5
		c10.357,27.334,13.014,34.137,16.008,41c1.8,4.125,3.57,8.85,3.936,10.5c0.364,1.65,1.996,5.76,3.627,9.133
		c1.631,3.373,3.596,9.723,4.367,14.112c0.771,4.389,2.145,9.729,3.05,11.867c3.583,8.458,5.79,34.627,5.896,69.888
		c0.147,49.41-1.937,59.194-17.166,80.6c-9.069,12.747-32.211,32.923-52.734,45.976c-11.799,7.504-23.428,15.984-25.003,18.232
		c-2.158,3.082-1.888,10.553,0.532,14.708c1.116,1.916,3.556,6.64,5.42,10.497c1.865,3.856,6.477,12.448,10.246,19.093
		c3.771,6.644,10.871,20.588,15.781,30.987c4.908,10.399,11.938,24.532,15.62,31.407c6.814,12.725,14.903,29.96,14.903,31.756
		c0,0.993,5.127,13.176,11.467,27.244c10.867,24.115,12.158,27.349,17.566,44c4.235,13.038,9.943,31.883,11.057,36.5
		c0.663,2.75,2.014,6.62,3.001,8.6s2.708,8.055,3.821,13.5c1.115,5.445,3.122,12.601,4.461,15.9s2.735,8.925,3.104,12.5
		s1.762,11.225,3.096,17s3.074,16.575,3.867,24c0.794,7.425,2.135,19.8,2.981,27.5c5.002,45.517,7.021,103.441,4.687,134.5
		c-1.453,19.353-4.86,51.859-6.131,58.5c-0.526,2.75-1.428,9.275-2.004,14.5s-2.119,13.55-3.43,18.5s-2.899,12.15-3.531,16
		s-2.035,9.008-3.118,11.463c-1.083,2.454-2.824,8.379-3.869,13.167s-2.802,10.475-3.905,12.637
		c-1.103,2.161-2.681,6.812-3.506,10.332c-0.826,3.521-2.85,10.469-4.497,15.44c-1.648,4.972-3.754,12.396-4.68,16.5
		s-2.493,9.062-3.483,11.021c-0.99,1.957-2.535,6.397-3.435,9.867c-0.898,3.469-2.915,8.617-4.481,11.439
		c-1.566,2.823-3.169,6.708-3.562,8.633c-0.393,1.925-1.972,6.29-3.509,9.699c-1.537,3.41-3.548,8.791-4.468,11.957
		c-0.921,3.167-2.709,7.803-3.975,10.301c-1.266,2.499-3.021,6.97-3.9,9.936c-2.763,9.311-6.443,18.116-14.051,33.607
		c-4.051,8.25-11.444,23.326-16.431,33.502s-12.85,24.352-17.475,31.5c-4.626,7.148-11.28,17.596-14.788,23.216
		c-5.697,9.126-13.404,19.419-30.879,41.243c-12.379,15.459-43.223,47.96-84.395,88.93L2304,1563.28v4.721
		c0,3.503,0.697,5.723,2.703,8.609c12.653,18.211,22.443,32.536,28.285,41.39c3.811,5.775,12.842,19.275,20.068,30
		c24.049,35.69,35.667,53.359,45.043,68.5c5.108,8.25,13.629,21.75,18.935,30s12.731,20.625,16.503,27.5s9.702,16.921,13.179,22.325
		c3.478,5.403,11.202,19.354,17.167,31c5.964,11.646,12.229,23.425,13.921,26.175c5.41,8.791,13.007,23.377,15.128,29.047
		c2.465,6.589,16.559,35.512,19.711,40.453c1.229,1.925,4.309,8.9,6.844,15.5c2.536,6.6,6.113,15.6,7.95,20
		s3.673,9.098,4.079,10.439c0.406,1.341,2.481,6.042,4.611,10.446c2.131,4.405,3.873,8.652,3.873,9.439s1.308,3.736,2.906,6.553
		c1.599,2.817,3.578,7.372,4.399,10.122c0.82,2.75,2.367,7.025,3.437,9.5s2.759,7.875,3.754,12s3.276,11.325,5.069,16
		s3.585,10.3,3.983,12.5s1.774,6.097,3.059,8.658c1.283,2.562,3.264,8.131,4.401,12.373c1.137,4.243,2.72,8.978,3.519,10.521
		c1.762,3.407,7.887,20.014,10.678,28.947c4.196,13.438,14.409,29.494,25.625,40.287c13.267,12.768,29.296,17.939,59.67,19.253
		c7.7,0.333,22.1,1.464,32,2.513c9.9,1.05,24.975,2.416,33.5,3.036c13.713,0.998,16.506,1.52,24.229,4.52
		c4.801,1.865,9.211,3.392,9.8,3.392c1.899,0,7.305,3.129,14.302,8.28c12.593,9.271,17.551,16.991,40.602,63.22
		c7.408,14.857,10.896,23.373,18.049,44.062c1.533,4.435,3.715,9.879,4.847,12.099s2.754,7.033,3.604,10.696
		s2.708,8.957,4.131,11.764c1.422,2.807,3.017,7.865,3.544,11.241s2.037,9.963,3.357,14.638c1.318,4.675,2.917,13.217,3.552,18.981
		c0.634,5.765,1.329,10.766,1.544,11.113s1.302,10.64,2.416,22.871c3.34,36.671,2.528,66.656-3.033,112.034
		c-1.112,9.075-2.285,18.741-2.607,21.479c-0.321,2.739-1.219,6.776-1.993,8.973c-0.774,2.195-2.092,8.235-2.927,13.423
		c-0.834,5.187-2.627,12.065-3.982,15.287c-1.355,3.221-3.161,8.859-4.013,12.529c-0.851,3.671-2.647,9.287-3.991,12.48
		c-1.345,3.194-2.945,8.144-3.558,10.999s-2.363,8.147-3.892,11.761c-1.527,3.612-3.746,9.846-4.931,13.853
		c-1.184,4.006-3.646,10.756-5.472,15c-5.92,13.763-32.453,66.219-36.443,72.048c-2.134,3.117-5.448,8.143-7.365,11.168
		c-13.366,21.096-16.965,26.506-22.945,34.5c-14.642,19.57-23.34,30.311-35.922,44.349c-13.471,15.029-45.786,46.838-51.951,51.136
		c-1.896,1.322-9.335,7.285-16.529,13.25c-11.942,9.902-44.776,33.102-56.894,40.199c-2.735,1.602-14.436,7.742-26,13.645
		s-23.276,11.896-26.026,13.319c-14.774,7.646-35.122,13.322-55.5,15.483c-26.056,2.763-78.519,1.984-91.267-1.354
		c-9.271-2.428-15.737-6.236-23.558-13.874c-14.305-13.969-24.739-32.075-26.688-46.308c-2.747-20.062-4.67-28.167-8.703-36.668
		c-4.303-9.068-8.724-14.122-13.377-15.29c-5.403-1.356-16.995,0.181-21.565,2.858c-2.402,1.408-7.062,3.312-10.355,4.229
		c-3.293,0.919-15.212,4.835-26.487,8.703c-18.702,6.416-25.157,9.017-48,19.339c-15.284,6.906-23.783,10.482-24.91,10.482
		c-1.645,0-22.996,8.365-33.09,12.965c-4.675,2.131-9.625,4.181-11,4.557s-4.075,1.596-6,2.711
		c-6.572,3.808-24.838,9.538-62.586,19.638c-6.097,1.631-12.82,3.69-14.939,4.576c-2.12,0.886-8.381,2.248-13.914,3.027
		s-13.211,2.614-17.061,4.077c-5.08,1.931-10.154,2.91-18.5,3.57c-6.325,0.501-17.575,1.994-25,3.318
		c-7.425,1.325-18.225,2.678-24,3.006s-22.2,1.471-36.5,2.539c-42.428,3.168-107.698,6.836-142.904,8.03
		c-18.097,0.613-43.746,1.987-57,3.054c-13.252,1.066-35.796,2.39-50.096,2.94c-52.76,2.032-70.323,3.087-84,5.043
		c-7.7,1.101-21.425,2.441-30.5,2.979c-23.432,1.387-37.965,2.782-45.753,4.396c-3.711,0.768-10.797,1.705-15.747,2.081
		c-19.163,1.457-47.053,8.822-62.299,16.452c-29.955,14.99-55.669,28.276-62.701,32.397c-18.89,11.07-39.032,19.108-67,26.735
		c-11.868,3.237-12.27,3.275-36.5,3.501C1270.525,3078.719,1253.364,3078.442,1245.864,3077.98z"/>
</g>
<defs>
	
	
		<inkscape:perspective  inkscape:vp_x="0 : 526.18109 : 1" id="perspective9" inkscape:vp_y="0 : 1000 : 0" inkscape:vp_z="744.09448 : 526.18109 : 1" sodipodi:type="inkscape:persp3d" inkscape:persp3d-origin="372.04724 : 350.78739 : 1">
		</inkscape:perspective>
</defs>
<sodipodi:namedview  bordercolor="#666666" id="base" inkscape:cy="1800" pagecolor="#ffffff" showgrid="false" inkscape:window-width="1280" inkscape:window-height="750" inkscape:pageshadow="2" inkscape:pageopacity="0.0" inkscape:window-x="-8" inkscape:window-y="-8" inkscape:current-layer="svg2" inkscape:zoom="0.12833333" gridtolerance="10.0" objecttolerance="10.0" borderopacity="1.0" guidetolerance="10.0" inkscape:cx="868.83117">
	</sodipodi:namedview>
<g id="g2384">
	<path id="path2386" fill="#010101" d="M1245.864,3077.98c-14.066-0.868-43.175-4.958-52.864-7.428
		c-27.086-6.906-49.003-13.899-57.991-18.506c-11.757-6.023-32.125-15.456-41.382-19.163c-5.106-2.045-10.8-5.325-37.127-21.391
		c-8.8-5.37-19.375-11.819-23.5-14.331c-4.125-2.514-11.922-7.965-17.326-12.115c-5.405-4.15-13.28-9.963-17.5-12.916
		c-8.816-6.17-14.743-10.989-24.654-20.047c-3.86-3.529-9.27-8.195-12.02-10.369c-14.209-11.23-59.916-58.803-79.5-82.743
		c-4.675-5.715-10.758-12.936-13.518-16.047c-9.934-11.198-37-50.708-45.143-65.897c-3.088-5.76-7.055-12.734-8.814-15.5
		c-8.587-13.495-14.396-24.73-24.059-46.527c-4.639-10.466-15.035-31.601-16.479-33.5c-1.312-1.727-9.762-23.099-18.085-45.741
		c-1.564-4.258-3.493-8.758-4.286-10s-2.432-5.634-3.643-9.759c-1.21-4.125-3.239-9.554-4.509-12.062
		c-1.271-2.51-2.816-7.46-3.438-11c-0.621-3.541-1.992-8.985-3.047-12.1c-2.877-8.497-6.773-42.327-7.928-68.838
		c-1.029-23.627-0.273-48.648,1.921-63.551c2.934-19.921,3.951-25.334,5.43-28.872c0.891-2.132,2.315-6.62,3.165-9.976
		c0.851-3.356,3.096-8.645,4.989-11.752c1.894-3.108,3.442-6.046,3.442-6.529c0-1.445,10.685-18.988,15.252-25.041
		c5.046-6.688,19.404-18.826,28.646-24.216c8.212-4.788,22.218-9.417,36.603-12.097c26.678-4.968,40.872-7.1,53-7.961
		c30.809-2.187,68.311-4.055,99.5-4.958c33.76-0.977,45.568-1.996,51.352-4.433c4.468-1.882,13.25-10.08,16.211-15.131
		c3.52-6.008,5.315-20.418,6.414-51.484c0.856-24.215,1.932-40.298,4.047-60.5c0.518-4.95,0.949-11.824,0.959-15.277
		c0.01-3.451,1.357-13.127,2.995-21.5c1.638-8.372,3.46-19.723,4.049-25.223s1.258-10.675,1.486-11.5
		c0.987-3.571,7.41-40.046,8.012-45.5c0.364-3.3,1.731-10.05,3.039-15c1.307-4.95,2.884-12.375,3.503-16.5s2.382-10.425,3.917-14
		s3.318-9.65,3.962-13.5c0.645-3.85,2.225-9.316,3.512-12.148s2.642-6.657,3.011-8.5c0.369-1.844,2.196-8.076,4.061-13.852
		c1.863-5.775,4.559-15.187,5.989-20.913c1.43-5.728,3.197-11.578,3.926-13c0.729-1.423,2.023-5.962,2.876-10.087
		s2.669-10.021,4.037-13.102c4.468-10.063,5.94-23.859,3.236-30.33c-0.902-2.161-3.501-4.795-7.25-7.351
		c-3.214-2.19-10.667-7.522-16.562-11.851c-5.896-4.327-15.976-11.467-22.399-15.867c-6.425-4.4-16.9-11.856-23.28-16.57
		c-6.381-4.714-16.327-11.737-22.104-15.607c-5.776-3.87-14.778-10.363-20.003-14.43c-5.225-4.065-14.685-11.1-21.021-15.63
		s-15.56-11.744-20.496-16.029c-4.938-4.286-13.477-11.252-18.977-15.48c-10.662-8.197-15.562-12.39-39.68-33.946
		c-29.222-26.119-72.563-70.479-89.698-91.807c-1.989-2.475-7.947-9.675-13.241-16c-5.293-6.325-13.33-17.125-17.858-24
		s-9.683-14.3-11.453-16.5c-6.87-8.535-11.646-16.732-20.975-36c-5.326-11-10.367-21.125-11.202-22.5
		c-6.188-10.192-10.957-22.766-15.55-41c-4.823-19.15-4.948-20.038-6.972-49.5c-3.244-47.252-1.241-93.073,4.496-102.864
		c5.934-10.124,14.619-16.583,39.314-29.232c9.25-4.738,19.293-10.075,22.318-11.859c30.451-17.967,36.232-22.262,45.402-33.723
		c6.923-8.651,12.598-20.482,12.598-26.262c0-1.917-0.877-5.71-1.948-8.428c-1.071-2.719-2.675-7.746-3.562-11.174
		c-0.888-3.427-2.937-8.708-4.552-11.735s-2.938-6.336-2.938-7.352s-1.371-6.127-3.047-11.357
		c-1.675-5.23-3.676-12.999-4.446-17.262c-1.3-7.191-3.19-16.106-6.841-32.252c-0.809-3.575-1.762-9.425-2.119-13
		c-0.356-3.575-1.948-11.45-3.537-17.5s-3.371-15.992-3.961-22.093c-0.59-6.102-2.199-14.877-3.575-19.5
		c-1.683-5.653-2.976-13.812-3.949-24.907c-0.797-9.075-2.347-22.125-3.444-29c-2.146-13.436-4.724-64.396-3.823-75.606
		c0.812-10.12,6.688-18.084,22.743-30.825c12.287-9.751,37.117-25.995,49.5-32.385c2.2-1.135,7.375-4.529,11.5-7.544
		c4.125-3.014,12.668-9.003,18.985-13.31c14.904-10.161,38.45-32.88,46.809-45.166c7.936-11.664,18.916-35.756,21.62-47.436
		c0.861-3.724,2.417-8.449,3.455-10.5c1.039-2.051,2.446-7.066,3.129-11.147c0.682-4.08,2.094-10.38,3.137-14
		c1.044-3.619,3.291-12.656,4.993-20.081s4.103-16.2,5.334-19.5c1.232-3.3,2.571-7.786,2.976-9.969s2.244-6.907,4.089-10.5
		c1.845-3.592,3.67-7.881,4.056-9.531s1.605-4.8,2.709-7s3.486-8.05,5.294-13c10.064-27.561,14.724-39.335,18.397-46.5
		c1.551-3.025,6.408-12.925,10.792-22c15.714-32.521,20.271-41.61,24.569-49c4.828-8.3,8.521-14.655,17.069-29.368
		c3.153-5.428,9.092-14.428,13.196-20s10.259-14.013,13.677-18.756c17.277-23.979,52.049-61.071,78.214-83.431
		c18.673-15.958,50.287-39.551,64.5-48.135c6.325-3.821,15.325-9.347,20-12.28c13.998-8.783,20.855-12.494,37.062-20.056
		c8.49-3.962,16.562-7.953,17.938-8.87c8.327-5.55,25.303-12.706,52.5-22.13c11-3.812,21.125-7.565,22.5-8.34
		s6.09-2.387,10.479-3.582c4.388-1.194,9.42-3.063,11.182-4.152c1.763-1.089,6.382-2.643,10.266-3.453
		c3.883-0.81,9.201-2.31,11.817-3.335c2.616-1.024,11.731-3.292,20.257-5.04c8.525-1.748,18.426-4.04,22.002-5.094
		s9.876-2.388,14-2.965c4.124-0.577,10.873-2.156,14.998-3.509c4.125-1.354,12-3.161,17.5-4.016
		c5.5-0.855,12.771-2.647,16.156-3.981c3.802-1.498,11.07-3.03,19-4.006c7.064-0.87,15.729-2.249,19.255-3.065
		c3.526-0.816,11.851-1.921,18.5-2.457c6.648-0.535,20.639-1.662,31.089-2.505c66.604-5.369,77.708-6.064,119.5-7.479
		c33.321-1.128,67.24-3.2,90.26-5.514c8.117-0.816,18.917-1.493,24-1.503c11.746-0.025,28.602-2.292,35.861-4.824
		c3.091-1.078,8.621-2.427,12.287-2.998c12.671-1.973,27.422-11.924,32.41-21.864c2.271-4.529,6.87-20.084,8.766-29.659
		c2.732-13.795,17.997-34.854,32.007-44.153c7.398-4.911,20.835-10.712,37.409-16.152c12.712-4.172,14.463-4.487,30-5.386
		c9.075-0.525,20.1-1.406,24.5-1.957c26.146-3.274,65.962-5.036,114-5.042c26.95-0.003,56.65,0.455,66,1.019
		c25.91,1.562,44.985,2.965,55.682,4.096c5.325,0.563,17.475,1.413,27,1.888c14.805,0.739,19.351,1.383,31.318,4.44
		c16.592,4.238,36.771,11.211,46.236,15.978c6.928,3.489,22.61,15.431,33.479,25.493c9.752,9.029,31.425,38.745,39.915,54.731
		c4.053,7.63,8.114,15.681,9.024,17.891c1.412,3.427,10.952,21.732,14.602,28.018c0.639,1.1,2.781,6.275,4.761,11.5
		c10.357,27.334,13.014,34.137,16.008,41c1.8,4.125,3.57,8.85,3.936,10.5c0.364,1.65,1.996,5.76,3.627,9.133
		c1.631,3.373,3.596,9.723,4.367,14.112c0.771,4.389,2.145,9.729,3.05,11.867c3.583,8.458,5.79,34.627,5.896,69.888
		c0.147,49.41-1.937,59.194-17.166,80.6c-9.069,12.747-32.211,32.923-52.734,45.976c-11.799,7.504-23.428,15.984-25.003,18.232
		c-2.158,3.082-1.888,10.553,0.532,14.708c1.116,1.916,3.556,6.64,5.42,10.497c1.865,3.856,6.477,12.448,10.246,19.093
		c3.771,6.644,10.871,20.588,15.781,30.987c4.908,10.399,11.938,24.532,15.62,31.407c6.814,12.725,14.903,29.96,14.903,31.756
		c0,0.993,5.127,13.176,11.467,27.244c10.867,24.115,12.158,27.349,17.566,44c4.235,13.038,9.943,31.883,11.057,36.5
		c0.663,2.75,2.014,6.62,3.001,8.6s2.708,8.055,3.821,13.5c1.115,5.445,3.122,12.601,4.461,15.9s2.735,8.925,3.104,12.5
		s1.762,11.225,3.096,17s3.074,16.575,3.867,24c0.794,7.425,2.135,19.8,2.981,27.5c5.002,45.517,7.021,103.441,4.687,134.5
		c-1.453,19.353-4.86,51.859-6.131,58.5c-0.526,2.75-1.428,9.275-2.004,14.5s-2.119,13.55-3.43,18.5s-2.899,12.15-3.531,16
		s-2.035,9.008-3.118,11.463c-1.083,2.454-2.824,8.379-3.869,13.167s-2.802,10.475-3.905,12.637
		c-1.103,2.161-2.681,6.812-3.506,10.332c-0.826,3.521-2.85,10.469-4.497,15.44c-1.648,4.972-3.754,12.396-4.68,16.5
		s-2.493,9.062-3.483,11.021c-0.99,1.957-2.535,6.397-3.435,9.867c-0.898,3.469-2.915,8.617-4.481,11.439
		c-1.566,2.823-3.169,6.708-3.562,8.633c-0.393,1.925-1.972,6.29-3.509,9.699c-1.537,3.41-3.548,8.791-4.468,11.957
		c-0.921,3.167-2.709,7.803-3.975,10.301c-1.266,2.499-3.021,6.97-3.9,9.936c-2.763,9.311-6.443,18.116-14.051,33.607
		c-4.051,8.25-11.444,23.326-16.431,33.502s-12.85,24.352-17.475,31.5c-4.626,7.148-11.28,17.596-14.788,23.216
		c-5.697,9.126-13.404,19.419-30.879,41.243c-12.379,15.459-43.223,47.96-84.395,88.93L2304,1563.28v4.721
		c0,3.503,0.697,5.723,2.703,8.609c12.653,18.211,22.443,32.536,28.285,41.39c3.811,5.775,12.842,19.275,20.068,30
		c24.049,35.69,35.667,53.359,45.043,68.5c5.108,8.25,13.629,21.75,18.935,30s12.731,20.625,16.503,27.5s9.702,16.921,13.179,22.325
		c3.478,5.403,11.202,19.354,17.167,31c5.964,11.646,12.229,23.425,13.921,26.175c5.41,8.791,13.007,23.377,15.128,29.047
		c2.465,6.589,16.559,35.512,19.711,40.453c1.229,1.925,4.309,8.9,6.844,15.5c2.536,6.6,6.113,15.6,7.95,20
		s3.673,9.098,4.079,10.439c0.406,1.341,2.481,6.042,4.611,10.446c2.131,4.405,3.873,8.652,3.873,9.439s1.308,3.736,2.906,6.553
		c1.599,2.817,3.578,7.372,4.399,10.122c0.82,2.75,2.367,7.025,3.437,9.5s2.759,7.875,3.754,12s3.276,11.325,5.069,16
		s3.585,10.3,3.983,12.5s1.774,6.097,3.059,8.658c1.283,2.562,3.264,8.131,4.401,12.373c1.137,4.243,2.72,8.978,3.519,10.521
		c1.762,3.407,7.887,20.014,10.678,28.947c4.196,13.438,14.409,29.494,25.625,40.287c13.267,12.768,29.296,17.939,59.67,19.253
		c7.7,0.333,22.1,1.464,32,2.513c9.9,1.05,24.975,2.416,33.5,3.036c13.713,0.998,16.506,1.52,24.229,4.52
		c4.801,1.865,9.211,3.392,9.8,3.392c1.899,0,7.305,3.129,14.302,8.28c12.593,9.271,17.551,16.991,40.602,63.22
		c7.408,14.857,10.896,23.373,18.049,44.062c1.533,4.435,3.715,9.879,4.847,12.099s2.754,7.033,3.604,10.696
		s2.708,8.957,4.131,11.764c1.422,2.807,3.017,7.865,3.544,11.241s2.037,9.963,3.357,14.638c1.318,4.675,2.917,13.217,3.552,18.981
		c0.634,5.765,1.329,10.766,1.544,11.113s1.302,10.64,2.416,22.871c3.34,36.671,2.528,66.656-3.033,112.034
		c-1.112,9.075-2.285,18.741-2.607,21.479c-0.321,2.739-1.219,6.776-1.993,8.973c-0.774,2.195-2.092,8.235-2.927,13.423
		c-0.834,5.187-2.627,12.065-3.982,15.287c-1.355,3.221-3.161,8.859-4.013,12.529c-0.851,3.671-2.647,9.287-3.991,12.48
		c-1.345,3.194-2.945,8.144-3.558,10.999s-2.363,8.147-3.892,11.761c-1.527,3.612-3.746,9.846-4.931,13.853
		c-1.184,4.006-3.646,10.756-5.472,15c-5.92,13.763-32.453,66.219-36.443,72.048c-2.134,3.117-5.448,8.143-7.365,11.168
		c-13.366,21.096-16.965,26.506-22.945,34.5c-14.642,19.57-23.34,30.311-35.922,44.349c-13.471,15.029-45.786,46.838-51.951,51.136
		c-1.896,1.322-9.335,7.285-16.529,13.25c-11.942,9.902-44.776,33.102-56.894,40.199c-2.735,1.602-14.436,7.742-26,13.645
		s-23.276,11.896-26.026,13.319c-14.774,7.646-35.122,13.322-55.5,15.483c-26.056,2.763-78.519,1.984-91.267-1.354
		c-9.271-2.428-15.737-6.236-23.558-13.874c-14.305-13.969-24.739-32.075-26.688-46.308c-2.747-20.062-4.67-28.167-8.703-36.668
		c-4.303-9.068-8.724-14.122-13.377-15.29c-5.403-1.356-16.995,0.181-21.565,2.858c-2.402,1.408-7.062,3.312-10.355,4.229
		c-3.293,0.919-15.212,4.835-26.487,8.703c-18.702,6.416-25.157,9.017-48,19.339c-15.284,6.906-23.783,10.482-24.91,10.482
		c-1.645,0-22.996,8.365-33.09,12.965c-4.675,2.131-9.625,4.181-11,4.557s-4.075,1.596-6,2.711
		c-6.572,3.808-24.838,9.538-62.586,19.638c-6.097,1.631-12.82,3.69-14.939,4.576c-2.12,0.886-8.381,2.248-13.914,3.027
		s-13.211,2.614-17.061,4.077c-5.08,1.931-10.154,2.91-18.5,3.57c-6.325,0.501-17.575,1.994-25,3.318
		c-7.425,1.325-18.225,2.678-24,3.006s-22.2,1.471-36.5,2.539c-42.428,3.168-107.698,6.836-142.904,8.03
		c-18.097,0.613-43.746,1.987-57,3.054c-13.252,1.066-35.796,2.39-50.096,2.94c-52.76,2.032-70.323,3.087-84,5.043
		c-7.7,1.101-21.425,2.441-30.5,2.979c-23.432,1.387-37.965,2.782-45.753,4.396c-3.711,0.768-10.797,1.705-15.747,2.081
		c-19.163,1.457-47.053,8.822-62.299,16.452c-29.955,14.99-55.669,28.276-62.701,32.397c-18.89,11.07-39.032,19.108-67,26.735
		c-11.868,3.237-12.27,3.275-36.5,3.501C1270.525,3078.719,1253.364,3078.442,1245.864,3077.98z M1928.605,2948.028
		c7.092-0.534,17.619-1.432,23.395-1.994c5.775-0.563,15.45-1.497,21.5-2.077s15.95-2.136,22-3.458s14.375-2.859,18.5-3.416
		s10.76-2.125,14.744-3.485c3.984-1.361,11.038-3.186,15.677-4.055c4.638-0.869,10.2-2.204,12.361-2.966
		c2.161-0.763,7.706-2.151,12.323-3.085c11.309-2.289,39.967-11.016,44.082-13.424c1.822-1.066,5.562-2.473,8.312-3.125
		c2.75-0.651,7.427-2.521,10.394-4.153c2.966-1.633,8.366-4.002,12-5.265c20.055-6.971,39.493-15.598,59.106-26.231
		c9.075-4.92,21.585-11.514,27.8-14.651c6.215-3.139,15.89-8.775,21.5-12.527s12.9-8.524,16.2-10.607
		c25.371-16.008,62.402-43.047,77.681-56.72c5.126-4.587,12.244-10.748,15.819-13.691c9.363-7.708,42.05-40.086,59.226-58.667
		c8.099-8.761,18.63-21.104,23.402-27.43s10.521-13.79,12.774-16.589c12.36-15.349,46.62-68.587,55.584-86.374
		c1.792-3.555,4.375-8.232,5.74-10.396c6.166-9.767,13.795-23.723,22.525-41.205c5.201-10.414,13.095-26.082,17.542-34.817
		c7.214-14.171,13.597-29.003,20.276-47.118c1.217-3.3,2.985-7.125,3.93-8.5s2.742-5.65,3.994-9.5c1.253-3.85,2.936-8.3,3.739-9.889
		c4.557-9.007,7.236-36.151,5.343-54.111c-0.638-6.05-1.557-18.425-2.043-27.5c-0.616-11.511-1.664-19.889-3.465-27.705
		c-1.42-6.162-3.038-15.838-3.598-21.5c-1.225-12.416-2.477-18.958-4.999-26.135c-1.045-2.973-2.374-9.626-2.954-14.783
		s-2.149-14.552-3.486-20.877s-3.602-18.025-5.032-26s-3.644-19-4.918-24.5s-2.837-12.78-3.474-16.178
		c-0.636-3.398-2.014-8.123-3.063-10.5c-1.048-2.377-2.441-7.473-3.095-11.322s-2.651-10.825-4.44-15.5s-3.556-10.9-3.927-13.834
		c-0.37-2.935-1.534-7.659-2.586-10.5c-1.052-2.842-3.059-10.053-4.459-16.025s-3.864-15.198-5.474-20.5
		c-1.609-5.303-3.237-11.216-3.618-13.141s-1.722-5.544-2.98-8.043c-1.259-2.498-3.061-7.224-4.004-10.5
		c-0.942-3.276-2.631-7.757-3.752-9.957s-3.285-7.825-4.811-12.5c-10.828-33.202-14.947-43.018-31.052-74
		c-7.029-13.521-7.649-14.452-10.919-16.384c-4.408-2.604-10.529-1.989-19.428,1.95c-4.4,1.949-10.774,4.608-14.165,5.911
		s-12.615,5.506-20.5,9.341c-17.769,8.641-24.923,11.874-31.335,14.16c-7.91,2.82-24.701,9.964-28.081,11.947
		c-1.695,0.994-4.845,2.368-7,3.053s-5.944,2.359-8.419,3.721c-6.951,3.825-31.525,12.418-56.5,19.756
		c-4.4,1.293-10.15,3.321-12.78,4.508c-2.629,1.187-7.962,2.82-11.851,3.632c-3.89,0.811-9.214,2.56-11.832,3.886
		c-2.617,1.327-7.859,2.951-11.648,3.609s-9.35,2.042-12.357,3.074c-3.008,1.033-11.783,3.021-19.5,4.416
		s-19.881,3.812-27.031,5.372s-15.925,3.14-19.5,3.513s-12.35,1.971-19.5,3.55s-17.95,3.171-24,3.536
		c-6.05,0.364-16.175,1.55-22.5,2.634c-26.686,4.573-30.399,4.819-82,5.421c-61.873,0.723-94.902-0.417-117.5-4.053
		c-8.8-1.416-22.525-3.067-30.5-3.669c-7.975-0.601-23.912-2.621-35.415-4.488s-22.753-3.406-25-3.419
		c-2.247-0.014-5.885-0.455-8.085-0.981s-17.5-2.982-34-5.458s-32.996-5.365-36.658-6.422s-10.823-2.463-15.913-3.124
		c-5.089-0.662-12.177-2.304-15.749-3.648c-3.573-1.345-10.127-3.134-14.565-3.976s-9.655-2.231-11.592-3.088
		c-1.938-0.855-8.022-2.562-13.522-3.792c-14.761-3.3-45.375-11.408-49.355-13.071c-1.902-0.795-6.426-2.128-10.052-2.962
		s-9.293-2.811-12.593-4.394s-7.8-3.199-10-3.593s-7.6-2.194-12-4.003c-7.577-3.113-10.549-4.173-28.5-10.16
		c-26.85-8.957-32.378-10.947-37.09-13.351c-7.275-3.712-24.123-10.603-46.41-18.981c-15.095-5.675-22.062-8.601-32.5-13.646
		c-20.971-10.136-39.072-18.327-40.5-18.327c-1.161,0-16.478-6.98-34-15.495c-8.25-4.009-16.125-7.614-17.5-8.011
		c-1.375-0.397-3.895-1.565-5.598-2.596c-1.704-1.03-6.204-3.017-10-4.413c-7.554-2.779-8.827-3.362-34.402-15.752
		c-19.131-9.268-32.112-15.126-36-16.246c-3.806-1.097-23.186-9.581-25.848-11.315c-1.291-0.842-4.517-1.562-7.168-1.601
		c-6.186-0.092-8.984,2.403-11.424,10.183c-0.99,3.16-2.811,7.771-4.045,10.246c-1.233,2.475-2.804,6.3-3.489,8.5
		c-2.324,7.455-9.863,24.119-20.584,45.5c-4.092,8.161-14.103,36.166-19.304,54c-1.523,5.225-3.58,11.041-4.57,12.924
		c-0.989,1.884-2.645,6.963-3.678,11.288s-2.555,9.172-3.382,10.771c-0.826,1.599-2.357,6.419-3.401,10.712
		s-3.489,14.105-5.433,21.806c-1.944,7.7-4.052,17.521-4.685,21.826c-0.633,4.304-2.016,10.341-3.073,13.416
		c-1.058,3.074-2.575,9.902-3.372,15.174c-0.796,5.271-2.568,12.322-3.937,15.668c-1.37,3.347-2.992,10.097-3.607,15
		c-0.614,4.904-2.415,13.416-4.001,18.916s-3.16,12.925-3.498,16.5c-0.337,3.575-1.458,11.225-2.491,17
		c-2.442,13.652-6.584,41.072-7.93,52.5c-0.583,4.95-1.947,13.95-3.031,20s-2.268,15.725-2.629,21.5
		c-0.362,5.775-1.729,16.29-3.036,23.366c-3.113,16.841-4.22,29.599-5.303,61.134c-1.008,29.334,0.056,61.412,2.278,68.74
		c1.827,6.021,6.024,13.215,8.877,15.214c2.616,1.832,8.017,2.016,11.078,0.377c3.354-1.794,15.01-11.948,27.212-23.706
		c6.064-5.844,21.584-20.75,34.487-33.125s31.566-30.428,41.474-40.117c29.174-28.533,31.606-30.832,40.505-38.277
		c4.671-3.908,11.421-9.853,15-13.211c3.579-3.357,15.057-12.12,25.507-19.473c16.139-11.355,22.991-15.388,45.5-26.774
		c14.575-7.373,27.625-14.186,29-15.139c1.375-0.952,11.432-5.908,22.35-11.012l19.849-9.279l79.651,0.164
		c81.562,0.168,104.178,0.972,132.15,4.698c13.958,1.86,31.892,5.795,35.934,7.886c1.632,0.844,5.352,2.029,8.267,2.634
		c2.915,0.605,7.325,2.221,9.8,3.59s7.2,3.524,10.5,4.789c19.623,7.518,50.852,22.669,66,32.021c5.5,3.396,12.925,7.905,16.5,10.02
		c9.891,5.852,20.939,13.354,26.5,17.994c2.75,2.295,9.887,7.871,15.859,12.393c20.94,15.85,57.48,51.498,72.357,70.594
		c2.143,2.75,8.88,11.323,14.972,19.052c6.103,7.743,17.036,23.683,24.352,35.5c16.959,27.398,16.724,26.976,23.952,42.948
		c6.656,14.707,12.078,26.176,18.117,38.328c2.14,4.305,3.895,8.58,3.9,9.5s1.139,4.096,2.518,7.059
		c1.379,2.962,3.609,9.712,4.956,15c1.347,5.287,3.814,13.635,5.483,18.551c1.668,4.916,3.033,9.755,3.033,10.754
		c0,0.998,1.322,5.977,2.938,11.062c2.022,6.361,3.453,14.081,4.587,24.746c0.907,8.525,2.542,19.775,3.634,25
		c1.657,7.936,2.212,17.238,3.366,56.5c1.746,59.401,1.754,83.52,0.036,110.5c-1.052,16.532-1.835,22.771-3.388,27
		c-1.111,3.025-2.941,8.943-4.066,13.151c-2.07,7.737-13.953,32.335-18.501,38.298c-5.949,7.8-28.114,31.299-56.169,59.551
		c-16.658,16.775-31.49,31.967-32.959,33.759c-4.945,6.034-4.2,14.179,1.581,17.273
		C1880.195,2948.78,1905.899,2949.739,1928.605,2948.028z M2140,1600.502c5.775-0.8,15.225-1.947,21-2.549
		c7.719-0.805,12.223-1.865,17-4.002c3.575-1.598,9.425-3.988,13-5.312c19.918-7.371,32.031-13.905,52.166-28.14
		c24.684-17.449,53.863-41.416,82.609-67.852c24.023-22.092,75.74-74.112,85.021-85.52c4.237-5.209,10.876-13.105,14.753-17.55
		c10.709-12.274,25.189-34.206,36.693-55.579c1.629-3.025,3.518-6.175,4.197-7c2.055-2.494,9.395-16.502,11.619-22.178
		c1.147-2.927,6.744-14.772,12.438-26.322c13.184-26.747,15.987-33.432,25.152-59.963c1.322-3.829,3.344-8.554,4.492-10.5
		c4.383-7.427,17.047-44.303,20.447-59.537c1.351-6.05,3.288-13.25,4.306-16c1.019-2.75,2.376-8.15,3.018-12s2.47-10.825,4.062-15.5
		c2.256-6.618,3.146-11.71,4.018-23c0.616-7.975,1.531-17.445,2.032-21.046c2.055-14.756,3.088-51.273,3.367-118.954
		c0.321-77.556-0.36-103.817-3.335-128.5c-1.06-8.8-2.224-18.7-2.584-22c-0.361-3.3-1.796-9.15-3.188-13s-3.312-10.375-4.269-14.5
		s-2.435-9.148-3.288-11.162s-2.303-7.189-3.222-11.5c-1.999-9.382-10.738-35.87-13.946-42.275
		c-1.257-2.509-2.862-6.362-3.567-8.562c-0.704-2.2-2.724-6.925-4.487-10.5s-4.736-10.075-6.605-14.445
		c-4.929-11.524-14.194-30.089-18.593-37.255c-14.469-23.572-27.369-42.924-32.963-49.449c-2.663-3.106-9.282-10.889-14.709-17.293
		s-12.575-13.987-15.888-16.851c-3.312-2.864-10.798-9.39-16.634-14.503c-16.802-14.717-32.684-24.748-62.13-39.243
		c-9.936-4.891-36.837-14.961-39.967-14.961c-1.884,0-19.29-6.892-27.516-10.894c-4.4-2.142-12.05-5.794-17-8.118
		c-28.852-13.544-38.626-18.955-55.902-30.944c-21.224-14.729-36.488-28.874-54.545-50.544
		c-15.219-18.263-20.646-25.438-26.534-35.074c-2.664-4.359-7.109-11.301-9.878-15.426c-2.77-4.125-9.374-14.025-14.678-22
		c-14.885-22.385-29.357-37.619-50.963-53.646c-18.492-13.718-33.607-21.546-56.861-29.446c-4.599-1.562-9.942-3.774-11.875-4.914
		c-1.933-1.141-6.72-2.744-10.639-3.564s-9.6-2.414-12.625-3.542c-6.213-2.317-38.634-7.958-60.18-10.47
		c-10.806-1.26-26.471-1.784-63.82-2.135c-60.322-0.567-93.689,0.964-145,6.655c-9.625,1.067-22.675,2.437-29,3.043
		c-6.325,0.607-15.55,2.007-20.5,3.112c-4.95,1.104-15.403,2.638-23.229,3.407c-8.347,0.821-18.889,2.632-25.5,4.382
		c-6.198,1.64-15.32,3.273-20.271,3.629s-13.05,1.692-18,2.971c-4.95,1.279-11.7,2.627-15,2.996
		c-9.647,1.079-28.238,4.47-38.5,7.023c-5.225,1.3-12.425,2.875-16,3.499s-9.463,2.193-13.084,3.487
		c-3.621,1.293-9.138,2.823-12.259,3.4c-3.121,0.577-8.783,2.414-12.583,4.082c-3.801,1.667-7.562,3.032-8.36,3.032
		s-7.248,1.8-14.333,4.001c-30.375,9.434-42.123,13.402-45.881,15.496c-2.2,1.226-6.7,3.225-10,4.443
		c-3.3,1.217-7.417,3.088-9.148,4.156c-1.732,1.068-5.758,2.84-8.947,3.937c-3.188,1.097-6.728,2.604-7.864,3.349
		c-1.138,0.745-5.278,2.513-9.201,3.928c-8.495,3.064-29.545,13.455-44.839,22.133c-6.05,3.434-15.275,8.649-20.5,11.592
		c-9.66,5.438-13.67,8.09-38.5,25.46c-17.702,12.384-18.701,13.146-31.506,24.005c-24.618,20.88-29.211,25.119-43.529,40.183
		c-42.401,44.608-78.499,98.558-101.581,151.817c-2.384,5.5-5.396,11.739-6.693,13.864s-2.952,5.544-3.677,7.598
		c-0.725,2.053-2.234,5.531-3.356,7.729c-2.883,5.652-11.62,29.747-13.165,36.309c-0.713,3.025-2.16,7.525-3.216,10
		c-1.057,2.475-2.584,7.361-3.396,10.858c-0.811,3.497-2.563,8.446-3.895,11c-1.331,2.553-3.105,7.914-3.944,11.913
		c-0.838,4-2.428,9.044-3.532,11.21c-1.104,2.165-2.928,7.893-4.052,12.728s-3.163,12.346-4.531,16.69
		c-1.369,4.345-3.351,11.771-4.404,16.501s-2.675,10.4-3.603,12.601c-0.928,2.199-2.297,6.591-3.044,9.759
		c-0.747,3.169-2.653,8.344-4.236,11.5c-1.583,3.157-3.204,6.865-3.601,8.24s-2.718,7-5.157,12.5
		c-9.276,20.911-14.653,30.469-23.198,41.237c-8.949,11.276-38.891,41.528-60.184,60.808c-26.544,24.034-28,25.582-28,29.773
		c0,4.772,2.123,8.921,5.965,11.656c1.646,1.173,5.815,5.589,9.265,9.814c3.448,4.225,8.633,10.332,11.521,13.572
		c4.611,5.175,5.25,6.416,5.25,10.205c0,3.632-0.779,5.33-4.925,10.74c-2.709,3.534-9.976,13.798-16.147,22.81
		c-6.172,9.011-12.665,18.184-14.43,20.384c-8.189,10.208-16.244,27.182-19.139,40.329c-3.111,14.133-1.488,44.285,3.186,59.171
		c0.776,2.475,2.113,7.871,2.971,11.99c0.857,4.12,2.672,9.925,4.034,12.898c1.361,2.975,3.156,8.345,3.988,11.934
		c0.833,3.589,2.375,7.92,3.429,9.623c1.053,1.704,2.894,6.688,4.091,11.076c1.197,4.389,2.749,9.104,3.448,10.479
		s2.686,7.604,4.413,13.844c4.992,18.023,7.997,22.593,16.081,24.45c1.375,0.315,19.15,0.662,39.5,0.771
		c47.146,0.25,123.052,2.249,187,4.926c12.65,0.529,43.925,1.432,69.5,2.005c82.756,1.855,150.426,7.091,167.834,12.983
		c3.116,1.056,8.498,2.634,11.959,3.509c3.462,0.874,8.062,2.512,10.225,3.639s6.756,3.09,10.207,4.362
		c3.451,1.271,11.9,4.636,18.775,7.477c6.875,2.84,15.477,6.259,19.115,7.598c6.2,2.28,16.238,7.221,33.885,16.674
		c4.125,2.21,14.7,7.625,23.5,12.033s20.189,10.678,25.309,13.933c9.153,5.819,16.12,9.788,39.416,22.454
		c6.449,3.506,15.674,9.204,20.5,12.663c4.826,3.458,12.375,8.248,16.775,10.644c10.77,5.864,26.268,15.312,42,25.604
		c7.15,4.678,15.025,9.568,17.5,10.868c2.475,1.299,13.578,8.37,24.674,15.714c11.096,7.343,23.02,14.925,26.5,16.85
		c3.479,1.924,11.727,7.128,18.326,11.563s16.725,10.916,22.5,14.401s16.8,10.468,24.5,15.516c7.7,5.049,18.275,11.673,23.5,14.721
		c21.615,12.609,26.877,15.719,34.512,20.394c4.406,2.698,12.281,6.998,17.5,9.555c5.219,2.558,15.563,7.696,22.988,11.42
		c23.689,11.882,29.281,14.599,39.5,19.186c9.143,4.104,14.092,6.008,35.059,13.48c3.882,1.384,8.607,3.324,10.5,4.312
		c1.893,0.987,6.816,3.008,10.941,4.489s9.75,3.61,12.5,4.73s8.375,3.013,12.5,4.204c4.125,1.192,10.425,3.055,14,4.14
		c3.575,1.084,10.55,2.826,15.5,3.871s11.025,2.624,13.5,3.509s8.1,2.093,12.5,2.685c4.4,0.591,11.557,2.383,15.904,3.981
		c5.416,1.992,11.237,3.216,18.5,3.89c8.822,0.817,23.377,2.608,35.096,4.317C2110.396,1602.296,2130.528,1601.814,2140,1600.502z
		 M1354.5,1051.945c-4.4-0.48-13.4-1.783-20-2.895c-6.6-1.11-16.275-2.489-21.5-3.063c-13.429-1.477-44.735-9.491-55.5-14.208
		c-10.055-4.407-31.577-15.878-41.5-22.12c-10.285-6.471-20.283-15.125-30.688-26.566c-11.119-12.227-16.932-20.753-22.452-32.935
		c-2.158-4.762-4.991-10.684-6.297-13.158c-1.305-2.475-2.884-6.525-3.509-9s-2.451-7.425-4.058-11
		c-1.876-4.174-3.471-10.257-4.457-17c-0.844-5.775-2.323-13.875-3.287-18c-1.511-6.463-1.753-12.822-1.749-46
		c0.003-37.298,0.091-39.047,2.798-56c1.537-9.625,3.226-20.561,3.752-24.301s1.865-8.58,2.976-10.756
		c1.109-2.176,2.702-7.44,3.54-11.699c0.837-4.26,2.651-10.495,4.031-13.857s3.134-8.312,3.897-11
		c4.107-14.448,13.303-38.754,17.736-46.881c23.433-42.955,28.109-50.186,46.896-72.506c23.422-27.826,54.96-51.769,80.92-61.432
		c12.289-4.573,16.634-5.401,32.541-6.203c17.914-0.902,33.408,0.847,43.852,4.949c12.938,5.084,32.011,17.664,44.95,29.652
		c5.813,5.385,27.386,30.134,33.12,37.996c4.574,6.272,17.763,27.004,21.971,34.537c1.536,2.75,3.339,5.675,4.006,6.5
		c1.915,2.369,9.005,16.525,14.023,28c5,11.433,9.559,21.603,14.57,32.5c6.985,15.191,19.236,53.727,22.01,69.235
		c0.566,3.171,2.298,9.14,3.848,13.265c1.55,4.129,3.132,10.851,3.518,14.953c0.387,4.1,1.767,10.85,3.066,15
		c2.977,9.497,3.941,15.75,6.179,40.047c3.03,32.904,2.368,62.1-2.258,99.507c-0.272,2.204-1.658,6.479-3.079,9.5
		c-1.42,3.021-3.197,8.36-3.948,11.865s-2.3,7.955-3.44,9.89c-1.142,1.935-3.121,6.089-4.397,9.232
		c-6.277,15.446-18.5,30.679-33.719,42.02c-10.238,7.629-25.026,13.395-42.362,16.515c-7.15,1.286-16.6,3.092-21,4.011
		c-6.372,1.332-15.021,1.734-42.5,1.977C1378.025,1052.684,1358.9,1052.427,1354.5,1051.945z M1282.324,862.638
		c8.33-3.48,22.67-22.538,27.943-37.138c6.361-17.608,6.129-15.876,6.102-45.5c-0.028-30.326-0.358-32.284-7.266-43.177
		c-5.543-8.74-19.966-13.189-29.329-9.048c-8.757,3.874-18.385,15.333-23.714,28.225c-1.25,3.025-3.085,6.85-4.076,8.5
		c-0.992,1.65-2.808,6.375-4.036,10.5s-3.113,9.256-4.189,11.402c-2.443,4.877-5.728,22.952-5.745,31.619
		c-0.018,8.189,2.848,18.702,6.604,24.232c4.498,6.624,13.378,15.131,19.399,18.583C1270.158,864.358,1276.672,865,1282.324,862.638
		z"/>
</g>
</svg>
