<?xml version="1.0" encoding="utf-8"?>
<!-- Generator: Adobe Illustrator 15.1.0, SVG Export Plug-In . SVG Version: 6.00 Build 0)  -->
<!DOCTYPE svg PUBLIC "-//W3C//DTD SVG 1.1//EN" "http://www.w3.org/Graphics/SVG/1.1/DTD/svg11.dtd">
<svg version="1.1"
	 id="svg2" xmlns:sodipodi="http://sodipodi.sourceforge.net/DTD/sodipodi-0.dtd" xmlns:svg="http://www.w3.org/2000/svg" xmlns:inkscape="http://www.inkscape.org/namespaces/inkscape" xmlns:dc="http://purl.org/dc/elements/1.1/" xmlns:cc="http://creativecommons.org/ns#" xmlns:rdf="http://www.w3.org/1999/02/22-rdf-syntax-ns#" sodipodi:docname="sleep.svg" sodipodi:version="0.32" inkscape:version="0.46" inkscape:output_extension="org.inkscape.output.svg.inkscape"
	 xmlns="http://www.w3.org/2000/svg" xmlns:xlink="http://www.w3.org/1999/xlink" x="0px" y="0px" width="3046.266px"
	 height="2373.963px" viewBox="273.648 368.82 3046.266 2373.963" enable-background="new 273.648 368.82 3046.266 2373.963"
	 xml:space="preserve">
<defs>
	
	
		<inkscape:perspective  inkscape:vp_x="0 : 526.18109 : 1" id="perspective9" inkscape:vp_y="0 : 1000 : 0" inkscape:vp_z="744.09448 : 526.18109 : 1" sodipodi:type="inkscape:persp3d" inkscape:persp3d-origin="372.04724 : 350.78739 : 1">
		</inkscape:perspective>
</defs>
<sodipodi:namedview  id="base" inkscape:current-layer="svg2" inkscape:cy="1400.5848" bordercolor="#666666" pagecolor="#ffffff" showgrid="false" inkscape:window-width="640" inkscape:window-height="669" inkscape:pageshadow="2" inkscape:pageopacity="0.0" inkscape:window-x="115" inkscape:window-y="95" inkscape:zoom="0.12833333" borderopacity="1.0" gridtolerance="10.0" objecttolerance="10.0" guidetolerance="10.0" inkscape:cx="1800">
	</sodipodi:namedview>
<g id="g2384_1_" transform="translate(-23.376612,-662.33768)">
	<path id="path2386_1_" fill="#FFFFFF" d="M935.893,3402.3c-7.142-1.556-17.042-3.275-22-3.82
		c-4.959-0.545-12.616-2.129-17.017-3.519c-4.4-1.391-10.999-3.002-14.664-3.581c-3.664-0.579-13.34-2.806-21.5-4.948
		c-8.159-2.142-17.536-4.548-20.836-5.347c-12.451-3.014-25.223-6.954-31.5-9.719c-3.575-1.575-9.2-3.751-12.5-4.837
		c-3.3-1.085-11.625-4.085-18.5-6.666c-6.875-2.58-16.775-6.173-22-7.983c-12.547-4.347-20.037-7.5-34.5-14.522
		c-6.6-3.205-18.075-8.607-25.5-12.005c-18.844-8.624-27.934-13.333-39.5-20.463c-5.5-3.39-14.725-8.978-20.5-12.417
		c-19.393-11.551-35.662-25.943-50.783-44.924c-11.585-14.542-12.683-16.297-26.385-42.211c-13.36-25.268-16.794-33.411-24.875-59
		c-2.866-9.075-6.473-19.425-8.015-23s-3.251-8.975-3.798-12s-2.14-7.545-3.539-10.044c-1.4-2.499-3.237-7.899-4.083-12
		c-0.845-4.101-2.394-9.931-3.441-12.956s-2.675-8.875-3.616-13c-2.332-10.221-10.597-35.16-14.085-42.5
		c-3.72-7.827-13.696-24.631-18.474-31.113c-6.948-9.43-23.225-21.262-40.456-29.41c-9.912-4.688-32.338-12.148-43.476-14.464
		c-4.111-0.854-10.175-2.416-13.475-3.47c-3.3-1.053-8.7-2.446-12-3.097c-3.3-0.649-8.475-2.42-11.5-3.934s-6.625-3.069-8-3.459
		c-1.375-0.389-7.225-3.03-13-5.869c-8.222-4.042-11.913-6.575-17.011-11.674c-7.44-7.439-10.484-13.062-15.165-28.011
		c-3.11-9.932-3.28-11.258-3.143-24.5c0.127-12.269,2.867-33.343,4.726-36.35c0.252-0.407,1.164-5.802,2.027-11.987
		s2.434-12.942,3.491-15.015s2.666-6.666,3.574-10.209c3.908-15.242,15.243-46.446,19.482-53.631c1.044-1.77,4.669-9.2,8.056-16.513
		c11.358-24.525,21.004-43.994,23.864-48.162c1.56-2.273,4.48-7.403,6.489-11.4c2.009-3.996,5.356-10.071,7.438-13.5
		c2.082-3.429,6.186-10.708,9.119-16.179c2.933-5.469,7.31-12.831,9.725-16.359s6.829-10.556,9.807-15.615
		c8.279-14.067,45.331-69.058,52.609-78.08c3.55-4.4,10.01-13.175,14.355-19.5s10.209-14.2,13.03-17.5s10.956-13.424,18.078-22.498
		c7.121-9.073,16.334-20.548,20.472-25.5c4.139-4.951,10.412-12.827,13.942-17.502s9.753-12.325,13.828-17
		c7.806-8.955,16.767-21.201,19.665-26.879c2.081-4.075,2.362-11.427,0.521-13.645c-3.979-4.795-15.088-6.45-43.48-6.48
		c-16.855-0.018-20.128-0.301-28.998-2.508c-5.498-1.368-10.706-2.488-11.572-2.488c-5.133,0-31.134-15.482-40.93-24.373
		c-6.109-5.544-24.023-26.294-28.814-33.375c-18.599-27.491-39.484-67.754-44.623-86.024c-1.35-4.8-3.171-10.442-4.047-12.538
		c-1.016-2.431-1.932-9.312-2.528-19c-1.16-18.834-1.187-91.447-0.042-109.689c0.789-12.561,1.112-14.092,4.647-22
		c5.214-11.664,7.824-15.267,18.239-25.178c10.348-9.847,19.502-16.446,37.168-26.793c6.875-4.026,15.728-9.29,19.673-11.698
		c3.945-2.407,15.195-8.224,25-12.925c20.712-9.931,31.826-17.674,46.367-32.307c10.818-10.887,17.999-22.173,21.003-33.011
		c1.016-3.667,2.774-8.83,3.908-11.475c1.133-2.645,2.55-8.026,3.147-11.961s2.397-10.456,4-14.493
		c1.841-4.638,3.298-10.795,3.96-16.729c0.575-5.164,2.096-12.473,3.377-16.241c1.281-3.768,2.643-9.29,3.024-12.271
		s2.654-13.519,5.05-23.419s4.818-20.576,5.384-23.725c0.566-3.149,1.724-7.069,2.573-8.711c0.849-1.642,2.24-5.988,3.091-9.657
		c0.852-3.67,2.829-9.212,4.396-12.315c1.567-3.104,3.391-7.653,4.052-10.111c0.662-2.458,2.124-6.271,3.249-8.475
		c1.124-2.203,3.264-7.605,4.754-12.006c6.645-19.616,15.92-42.293,23.521-57.5c7.182-14.368,11.961-24.759,14.949-32.5
		c2.556-6.62,16.473-34.178,19.372-38.356c1.008-1.454,5.981-10.941,11.051-21.083c5.07-10.142,12.273-23.191,16.008-29
		s8.969-14.386,11.631-19.061c7.421-13.033,10.624-17.688,35.371-51.404c25.18-34.306,76.144-85.893,116.466-117.891
		c24.869-19.735,30.276-23.803,42.124-31.693c6.05-4.028,14.825-10.267,19.5-13.863c4.675-3.596,13.225-9.354,19-12.794
		s15-9.137,20.5-12.657c15.852-10.146,27.973-17.736,42.5-26.613c7.425-4.537,16.65-10.488,20.5-13.225s15.55-10.627,26-17.533
		s22.15-14.917,26-17.802s11.634-8.493,17.297-12.463c5.664-3.97,14.855-10.896,20.426-15.39
		c5.57-4.495,14.614-11.631,20.099-15.859s13.618-10.852,18.075-14.718c31.796-27.583,83.533-67.248,101.104-77.513
		c5.5-3.214,12.559-7.369,15.686-9.234c3.128-1.865,7.578-4.059,9.891-4.875c2.312-0.815,5.604-2.326,7.314-3.356
		c5.035-3.034,9.147-3.963,27.609-6.235c16.222-1.998,23.312-2.188,97.047-2.608l79.547-0.452l10.453,3.535
		c5.749,1.943,13.104,4.909,16.344,6.59c3.24,1.68,6.518,3.055,7.283,3.055s3.673,1.155,6.459,2.567
		c5.213,2.642,16.845,7.019,34.367,12.931c21.092,7.118,28.072,9.668,30.133,11.008c2.574,1.674,16.876,7.551,27.867,11.451
		c4.4,1.562,9.8,3.617,12,4.568s7.6,2.727,12,3.945c4.4,1.22,9.803,3.141,12.006,4.269c2.203,1.129,6.027,2.589,8.5,3.246
		c2.472,0.657,6.744,2.45,9.494,3.985s6.8,3.356,9,4.047s6.202,2.359,8.893,3.708c2.691,1.35,7.866,3.487,11.5,4.752
		c8.604,2.994,29.712,10.653,38.607,14.009c3.85,1.453,8.8,3.68,11,4.95c2.2,1.27,5.125,2.639,6.5,3.042s5.2,2.008,8.5,3.565
		c6.211,2.932,15.84,6.877,30.5,12.498c13.476,5.167,21.265,8.368,24.5,10.069c6.74,3.543,8.51,4.423,20.5,10.186
		c6.875,3.305,17.225,8.279,23,11.055c10.102,4.855,31.325,19.719,46.602,32.637c32.152,27.188,73.491,69.205,126.398,128.472
		c29.529,33.079,35.991,40.062,53.996,58.359c13.382,13.598,23.673,23.015,32.786,30c21.009,16.104,37.591,26.771,48.604,31.266
		c2.812,1.147,11.688,5.311,19.723,9.251s15.014,7.164,15.508,7.164s2.92,1.071,5.391,2.381s12.143,4.914,21.492,8.012
		c9.35,3.097,19.025,6.354,21.5,7.239s7.875,2.604,12,3.819c4.125,1.215,9.75,3.35,12.5,4.743c2.75,1.393,6.8,3.104,9,3.802
		c2.2,0.697,6.475,2.557,9.5,4.131s8.425,4.035,12,5.469c15.724,6.305,18.947,7.695,26.5,11.428c4.4,2.174,10.7,5.617,14,7.65
		c40.195,24.771,41.43,25.614,67.12,45.806c12.894,10.135,46.177,41.966,59.443,56.852c18.066,20.271,44.565,57.953,53.888,76.629
		c2.619,5.247,8.818,17.419,13.777,27.05c9.275,18.014,12.041,24.319,17.105,38.99c1.613,4.675,4.845,13.45,7.181,19.5
		c2.337,6.05,5.705,15.275,7.486,20.5s4.18,11.082,5.329,13.016c1.149,1.933,2.613,5.982,3.253,9
		c0.64,3.017,1.981,7.102,2.981,9.079s2.991,7.768,4.425,12.868c3.096,11.011,9.929,29.317,12.517,33.537
		c1.013,1.65,2.839,5.7,4.059,9c1.221,3.3,3.029,7.158,4.02,8.573s4.791,8.366,8.446,15.448c7.58,14.685,9.916,18.218,18.498,27.979
		c8.207,9.335,18.453,23.08,24.971,33.5c2.925,4.675,7.89,12.55,11.033,17.5c3.145,4.95,10.463,18.29,16.263,29.645
		c5.801,11.354,11.771,22.582,13.266,24.951c2.586,4.096,4.342,7.973,11.959,26.404c1.818,4.4,5.42,12.95,8.004,19
		c2.583,6.05,5.797,13.925,7.14,17.5c1.344,3.575,3.38,8.3,4.524,10.5c1.934,3.717,3.304,7.325,8.729,23
		c2.279,6.588,7.021,23.019,10.654,36.923c1.283,4.908,3.242,11.038,4.354,13.622s2.709,8.646,3.551,13.473
		s2.703,12.422,4.135,16.879c2.21,6.875,2.733,10.908,3.453,26.604c1.33,29.043,1.557,30.88,4.898,39.606
		c3.836,10.016,6.471,12.739,12.281,12.693c4.962-0.04,14.924-3.25,22.758-7.333c3.025-1.577,10.45-5.189,16.5-8.027
		s15.275-7.372,20.5-10.075c36.883-19.083,41.635-20.768,81.5-28.89c30.064-6.126,78.083-6.102,110,0.055
		c8.8,1.697,19.555,3.737,23.9,4.532c4.344,0.796,11.319,2.518,15.5,3.827c4.18,1.31,9.175,2.712,11.1,3.116
		c1.925,0.405,6.38,2.257,9.9,4.115c3.521,1.859,7.121,3.384,8,3.39c0.88,0.006,4.074,1.2,7.1,2.656
		c5.358,2.577,12.811,5.847,27.897,12.236c10.924,4.627,26.554,13.157,39.603,21.613c2.75,1.781,9.748,6.021,15.553,9.419
		c5.804,3.398,13.303,8.291,16.665,10.872s12.339,9.418,19.948,15.193c27.374,20.775,63.612,56.227,77.813,76.122
		c3.289,4.608,8.607,11.741,11.82,15.853c12.761,16.332,18.736,30.581,26.847,64.025c3.043,12.55,3.299,14.942,3.641,34
		c0.336,18.758,0.14,21.774-2.304,35.5c-1.469,8.25-3.317,19.5-4.106,25c-0.79,5.5-2.824,15.85-4.52,23
		c-1.696,7.15-3.693,16.555-4.438,20.899s-2.261,10.646-3.366,14c-1.106,3.355-2.71,9.46-3.563,13.567
		c-0.854,4.105-2.626,9.298-3.938,11.537c-1.312,2.238-3.135,6.959-4.049,10.489c-0.915,3.53-2.356,7.758-3.203,9.396
		c-0.847,1.637-2.799,6.832-4.339,11.544c-9.134,27.957-14.187,40.321-26.881,65.771c-4.993,10.013-9.079,18.509-9.079,18.881
		c0,1.617-13.47,27.03-20.649,38.959c-4.317,7.175-9.426,15.858-11.351,19.297c-7.323,13.083-39.316,59.963-51.074,74.841
		c-4.703,5.95-11.035,14.193-14.072,18.318s-9.048,11.325-13.357,16c-4.311,4.675-10.508,11.875-13.772,16
		c-7.727,9.762-32.375,36.783-45.164,49.512c-5.533,5.507-13.457,13.607-17.61,18c-13.455,14.235-49.994,48.191-69.931,64.988
		c-7.286,6.139-31.556,25.449-38.406,30.56c-15.259,11.382-48.366,32.937-60.874,39.633c-7.569,4.052-15.869,8.703-18.445,10.337
		s-5.133,2.971-5.681,2.971s-3.947,1.742-7.554,3.873c-3.607,2.129-7.684,4.207-9.059,4.617c-1.375,0.409-4.781,1.773-7.57,3.031
		c-2.787,1.258-8.412,3.264-12.5,4.458c-4.086,1.194-10.22,3.268-13.63,4.607c-3.41,1.341-9.71,3.16-14,4.044
		c-4.29,0.885-10.05,2.498-12.8,3.588c-6.551,2.594-34.263,5.751-50.621,5.769c-18.403,0.019-39.531-2.438-50.879-5.918
		c-5.225-1.602-12.875-3.85-17-4.995c-23.037-6.398-38.044-11.734-48.5-17.244c-40.333-21.253-43.502-23.201-60-36.873
		c-6.05-5.014-15.561-12.18-21.136-15.925c-8.253-5.543-11.563-7.145-17.821-8.62c-7.402-1.744-8.025-1.745-16.865-0.021
		c-5.048,0.985-12.039,3.138-15.535,4.782c-3.497,1.646-8.092,3.603-10.209,4.35c-5.691,2.008-29.512,15.398-39.703,22.32
		c-3.339,2.268-9.594,5.973-13.9,8.235c-9.799,5.148-30.838,17.538-34.83,20.513c-1.65,1.229-14.7,8.27-29,15.646
		s-27.8,14.526-30,15.889c-4.463,2.761-16.366,8.176-24,10.918c-9.008,3.235-24.498,9.871-28.792,12.334
		c-2.314,1.327-5.333,2.725-6.708,3.104s-5.875,2.183-10,4.007c-4.125,1.823-10.425,4.299-14,5.5
		c-26.974,9.066-38.316,12.611-47.697,14.908c-4.508,1.104-9.908,2.876-12,3.938s-6.503,2.478-9.803,3.144
		c-3.3,0.667-9.154,2.462-13.008,3.988c-3.855,1.527-9.48,3.117-12.5,3.532c-3.021,0.415-9.045,1.818-13.387,3.117
		c-4.342,1.3-14.629,3.501-22.858,4.892c-8.229,1.392-19.978,3.606-26.105,4.923c-6.128,1.315-13.842,2.701-17.142,3.078
		c-3.3,0.378-11.318,2.007-17.817,3.62s-16.624,3.387-22.5,3.941c-10.202,0.963-15.968,2.079-28.182,5.457
		c-3.025,0.837-12.7,1.98-21.5,2.541s-20.5,1.688-26,2.503c-21.418,3.177-43.869,4.407-119.5,6.546
		c-38.36,1.086-110.296,0.51-145-1.16c-11.275-0.543-32.425-1.426-47-1.963s-31-1.645-36.5-2.461s-20.35-2.172-33-3.012
		c-16.36-1.086-25.887-2.215-33-3.911c-11.848-2.824-15.7-3.409-30.241-4.591c-6.201-0.504-14.807-2.002-19.766-3.439
		c-4.83-1.4-12.655-3.051-17.388-3.668c-4.733-0.616-15.806-2.826-24.605-4.911s-19.356-4.345-23.458-5.022s-9.952-2.097-13-3.155
		c-3.048-1.058-8.765-2.547-12.704-3.31c-3.939-0.762-9.018-2.332-11.284-3.488s-8.043-3.169-12.837-4.474
		c-4.795-1.304-11.191-3.259-14.217-4.343s-8.425-2.901-12-4.039c-12.128-3.859-25.479-8.957-30.958-11.82
		c-4.995-2.609-6.312-2.844-15.5-2.765c-7.215,0.062-11.168,0.579-14.042,1.835c-2.2,0.963-7.825,3.099-12.5,4.747
		c-8.559,3.019-35.857,16.185-40.827,19.69c-1.47,1.037-14.147,7.538-28.173,14.447c-14.025,6.908-28.2,14.201-31.5,16.205
		c-5.344,3.245-15.092,7.976-39.5,19.166c-4.125,1.892-9.75,4.527-12.5,5.856c-12.561,6.072-23.52,10.714-32.861,13.917
		c-16.437,5.638-48.202,11.888-68.902,13.558c-6.73,0.543-19.437,2.297-28.236,3.897s-19.85,3.172-24.554,3.492
		c-4.705,0.32-12.13,1.541-16.5,2.712C962.427,3406.108,954.113,3406.269,935.893,3402.3z"/>
</g>
<g id="g2384" transform="translate(-23.376612,-662.33768)">
	<path id="path2386" fill="#010101" d="M935.893,3402.3c-7.142-1.556-17.042-3.275-22-3.82c-4.959-0.545-12.616-2.129-17.017-3.519
		c-4.4-1.391-10.999-3.002-14.664-3.581c-3.664-0.579-13.34-2.806-21.5-4.948c-8.159-2.142-17.536-4.548-20.836-5.347
		c-12.451-3.014-25.223-6.954-31.5-9.719c-3.575-1.575-9.2-3.751-12.5-4.837c-3.3-1.085-11.625-4.085-18.5-6.666
		c-6.875-2.58-16.775-6.173-22-7.983c-12.547-4.347-20.037-7.5-34.5-14.522c-6.6-3.205-18.075-8.607-25.5-12.005
		c-18.844-8.624-27.934-13.333-39.5-20.463c-5.5-3.39-14.725-8.978-20.5-12.417c-19.393-11.551-35.662-25.943-50.783-44.924
		c-11.585-14.542-12.683-16.297-26.385-42.211c-13.36-25.268-16.794-33.411-24.875-59c-2.866-9.075-6.473-19.425-8.015-23
		s-3.251-8.975-3.798-12s-2.14-7.545-3.539-10.044c-1.4-2.499-3.237-7.899-4.083-12c-0.845-4.101-2.394-9.931-3.441-12.956
		s-2.675-8.875-3.616-13c-2.332-10.221-10.597-35.16-14.085-42.5c-3.72-7.827-13.696-24.631-18.474-31.113
		c-6.948-9.43-23.225-21.262-40.456-29.41c-9.912-4.688-32.338-12.148-43.476-14.464c-4.111-0.854-10.175-2.416-13.475-3.47
		c-3.3-1.053-8.7-2.446-12-3.097c-3.3-0.649-8.475-2.42-11.5-3.934s-6.625-3.069-8-3.459c-1.375-0.389-7.225-3.03-13-5.869
		c-8.222-4.042-11.913-6.575-17.011-11.674c-7.44-7.439-10.484-13.062-15.165-28.011c-3.11-9.932-3.28-11.258-3.143-24.5
		c0.127-12.269,2.867-33.343,4.726-36.35c0.252-0.407,1.164-5.802,2.027-11.987s2.434-12.942,3.491-15.015s2.666-6.666,3.574-10.209
		c3.908-15.242,15.243-46.446,19.482-53.631c1.044-1.77,4.669-9.2,8.056-16.513c11.358-24.525,21.004-43.994,23.864-48.162
		c1.56-2.273,4.48-7.403,6.489-11.4c2.009-3.996,5.356-10.071,7.438-13.5c2.082-3.429,6.186-10.708,9.119-16.179
		c2.933-5.469,7.31-12.831,9.725-16.359s6.829-10.556,9.807-15.615c8.279-14.067,45.331-69.058,52.609-78.08
		c3.55-4.4,10.01-13.175,14.355-19.5s10.209-14.2,13.03-17.5s10.956-13.424,18.078-22.498c7.121-9.073,16.334-20.548,20.472-25.5
		c4.139-4.951,10.412-12.827,13.942-17.502s9.753-12.325,13.828-17c7.806-8.955,16.767-21.201,19.665-26.879
		c2.081-4.075,2.362-11.427,0.521-13.645c-3.979-4.795-15.088-6.45-43.48-6.48c-16.855-0.018-20.128-0.301-28.998-2.508
		c-5.498-1.368-10.706-2.488-11.572-2.488c-5.133,0-31.134-15.482-40.93-24.373c-6.109-5.544-24.023-26.294-28.814-33.375
		c-18.599-27.491-39.484-67.754-44.623-86.024c-1.35-4.8-3.171-10.442-4.047-12.538c-1.016-2.431-1.932-9.312-2.528-19
		c-1.16-18.834-1.187-91.447-0.042-109.689c0.789-12.561,1.112-14.092,4.647-22c5.214-11.664,7.824-15.267,18.239-25.178
		c10.348-9.847,19.502-16.446,37.168-26.793c6.875-4.026,15.728-9.29,19.673-11.698c3.945-2.407,15.195-8.224,25-12.925
		c20.712-9.931,31.826-17.674,46.367-32.307c10.818-10.887,17.999-22.173,21.003-33.011c1.016-3.667,2.774-8.83,3.908-11.475
		c1.133-2.645,2.55-8.026,3.147-11.961s2.397-10.456,4-14.493c1.841-4.638,3.298-10.795,3.96-16.729
		c0.575-5.164,2.096-12.473,3.377-16.241c1.281-3.768,2.643-9.29,3.024-12.271s2.654-13.519,5.05-23.419s4.818-20.576,5.384-23.725
		c0.566-3.149,1.724-7.069,2.573-8.711c0.849-1.642,2.24-5.988,3.091-9.657c0.852-3.67,2.829-9.212,4.396-12.315
		c1.567-3.104,3.391-7.653,4.052-10.111c0.662-2.458,2.124-6.271,3.249-8.475c1.124-2.203,3.264-7.605,4.754-12.006
		c6.645-19.616,15.92-42.293,23.521-57.5c7.182-14.368,11.961-24.759,14.949-32.5c2.556-6.62,16.473-34.178,19.372-38.356
		c1.008-1.454,5.981-10.941,11.051-21.083c5.07-10.142,12.273-23.191,16.008-29s8.969-14.386,11.631-19.061
		c7.421-13.033,10.624-17.688,35.371-51.404c25.18-34.306,76.144-85.893,116.466-117.891c24.869-19.735,30.276-23.803,42.124-31.693
		c6.05-4.028,14.825-10.267,19.5-13.863c4.675-3.596,13.225-9.354,19-12.794s15-9.137,20.5-12.657
		c15.852-10.146,27.973-17.736,42.5-26.613c7.425-4.537,16.65-10.488,20.5-13.225s15.55-10.627,26-17.533s22.15-14.917,26-17.802
		s11.634-8.493,17.297-12.463c5.664-3.97,14.855-10.896,20.426-15.39c5.57-4.495,14.614-11.631,20.099-15.859
		s13.618-10.852,18.075-14.718c31.796-27.583,83.533-67.248,101.104-77.513c5.5-3.214,12.559-7.369,15.686-9.234
		c3.128-1.865,7.578-4.059,9.891-4.875c2.312-0.815,5.604-2.326,7.314-3.356c5.035-3.034,9.147-3.963,27.609-6.235
		c16.222-1.998,23.312-2.188,97.047-2.608l79.547-0.452l10.453,3.535c5.749,1.943,13.104,4.909,16.344,6.59
		c3.24,1.68,6.518,3.055,7.283,3.055s3.673,1.155,6.459,2.567c5.213,2.642,16.845,7.019,34.367,12.931
		c21.092,7.118,28.072,9.668,30.133,11.008c2.574,1.674,16.876,7.551,27.867,11.451c4.4,1.562,9.8,3.617,12,4.568
		s7.6,2.727,12,3.945c4.4,1.22,9.803,3.141,12.006,4.269c2.203,1.129,6.027,2.589,8.5,3.246c2.472,0.657,6.744,2.45,9.494,3.985
		s6.8,3.356,9,4.047s6.202,2.359,8.893,3.708c2.691,1.35,7.866,3.487,11.5,4.752c8.604,2.994,29.712,10.653,38.607,14.009
		c3.85,1.453,8.8,3.68,11,4.95c2.2,1.27,5.125,2.639,6.5,3.042s5.2,2.008,8.5,3.565c6.211,2.932,15.84,6.877,30.5,12.498
		c13.476,5.167,21.265,8.368,24.5,10.069c6.74,3.543,8.51,4.423,20.5,10.186c6.875,3.305,17.225,8.279,23,11.055
		c10.102,4.855,31.325,19.719,46.602,32.637c32.152,27.188,73.491,69.205,126.398,128.472
		c29.529,33.079,35.991,40.062,53.996,58.359c13.382,13.598,23.673,23.015,32.786,30c21.009,16.104,37.591,26.771,48.604,31.266
		c2.812,1.147,11.688,5.311,19.723,9.251s15.014,7.164,15.508,7.164s2.92,1.071,5.391,2.381s12.143,4.914,21.492,8.012
		c9.35,3.097,19.025,6.354,21.5,7.239s7.875,2.604,12,3.819c4.125,1.215,9.75,3.35,12.5,4.743c2.75,1.393,6.8,3.104,9,3.802
		c2.2,0.697,6.475,2.557,9.5,4.131s8.425,4.035,12,5.469c15.724,6.305,18.947,7.695,26.5,11.428c4.4,2.174,10.7,5.617,14,7.65
		c40.195,24.771,41.43,25.614,67.12,45.806c12.894,10.135,46.177,41.966,59.443,56.852c18.066,20.271,44.565,57.953,53.888,76.629
		c2.619,5.247,8.818,17.419,13.777,27.05c9.275,18.014,12.041,24.319,17.105,38.99c1.613,4.675,4.845,13.45,7.181,19.5
		c2.337,6.05,5.705,15.275,7.486,20.5s4.18,11.082,5.329,13.016c1.149,1.933,2.613,5.982,3.253,9
		c0.64,3.017,1.981,7.102,2.981,9.079s2.991,7.768,4.425,12.868c3.096,11.011,9.929,29.317,12.517,33.537
		c1.013,1.65,2.839,5.7,4.059,9c1.221,3.3,3.029,7.158,4.02,8.573s4.791,8.366,8.446,15.448c7.58,14.685,9.916,18.218,18.498,27.979
		c8.207,9.335,18.453,23.08,24.971,33.5c2.925,4.675,7.89,12.55,11.033,17.5c3.145,4.95,10.463,18.29,16.263,29.645
		c5.801,11.354,11.771,22.582,13.266,24.951c2.586,4.096,4.342,7.973,11.959,26.404c1.818,4.4,5.42,12.95,8.004,19
		c2.583,6.05,5.797,13.925,7.14,17.5c1.344,3.575,3.38,8.3,4.524,10.5c1.934,3.717,3.304,7.325,8.729,23
		c2.279,6.588,7.021,23.019,10.654,36.923c1.283,4.908,3.242,11.038,4.354,13.622s2.709,8.646,3.551,13.473
		s2.703,12.422,4.135,16.879c2.21,6.875,2.733,10.908,3.453,26.604c1.33,29.043,1.557,30.88,4.898,39.606
		c3.836,10.016,6.471,12.739,12.281,12.693c4.962-0.04,14.924-3.25,22.758-7.333c3.025-1.577,10.45-5.189,16.5-8.027
		s15.275-7.372,20.5-10.075c36.883-19.083,41.635-20.768,81.5-28.89c30.064-6.126,78.083-6.102,110,0.055
		c8.8,1.697,19.555,3.737,23.9,4.532c4.344,0.796,11.319,2.518,15.5,3.827c4.18,1.31,9.175,2.712,11.1,3.116
		c1.925,0.405,6.38,2.257,9.9,4.115c3.521,1.859,7.121,3.384,8,3.39c0.88,0.006,4.074,1.2,7.1,2.656
		c5.358,2.577,12.811,5.847,27.897,12.236c10.924,4.627,26.554,13.157,39.603,21.613c2.75,1.781,9.748,6.021,15.553,9.419
		c5.804,3.398,13.303,8.291,16.665,10.872s12.339,9.418,19.948,15.193c27.374,20.775,63.612,56.227,77.813,76.122
		c3.289,4.608,8.607,11.741,11.82,15.853c12.761,16.332,18.736,30.581,26.847,64.025c3.043,12.55,3.299,14.942,3.641,34
		c0.336,18.758,0.14,21.774-2.304,35.5c-1.469,8.25-3.317,19.5-4.106,25c-0.79,5.5-2.824,15.85-4.52,23
		c-1.696,7.15-3.693,16.555-4.438,20.899s-2.261,10.646-3.366,14c-1.106,3.355-2.71,9.46-3.563,13.567
		c-0.854,4.105-2.626,9.298-3.938,11.537c-1.312,2.238-3.135,6.959-4.049,10.489c-0.915,3.53-2.356,7.758-3.203,9.396
		c-0.847,1.637-2.799,6.832-4.339,11.544c-9.134,27.957-14.187,40.321-26.881,65.771c-4.993,10.013-9.079,18.509-9.079,18.881
		c0,1.617-13.47,27.03-20.649,38.959c-4.317,7.175-9.426,15.858-11.351,19.297c-7.323,13.083-39.316,59.963-51.074,74.841
		c-4.703,5.95-11.035,14.193-14.072,18.318s-9.048,11.325-13.357,16c-4.311,4.675-10.508,11.875-13.772,16
		c-7.727,9.762-32.375,36.783-45.164,49.512c-5.533,5.507-13.457,13.607-17.61,18c-13.455,14.235-49.994,48.191-69.931,64.988
		c-7.286,6.139-31.556,25.449-38.406,30.56c-15.259,11.382-48.366,32.937-60.874,39.633c-7.569,4.052-15.869,8.703-18.445,10.337
		s-5.133,2.971-5.681,2.971s-3.947,1.742-7.554,3.873c-3.607,2.129-7.684,4.207-9.059,4.617c-1.375,0.409-4.781,1.773-7.57,3.031
		c-2.787,1.258-8.412,3.264-12.5,4.458c-4.086,1.194-10.22,3.268-13.63,4.607c-3.41,1.341-9.71,3.16-14,4.044
		c-4.29,0.885-10.05,2.498-12.8,3.588c-6.551,2.594-34.263,5.751-50.621,5.769c-18.403,0.019-39.531-2.438-50.879-5.918
		c-5.225-1.602-12.875-3.85-17-4.995c-23.037-6.398-38.044-11.734-48.5-17.244c-40.333-21.253-43.502-23.201-60-36.873
		c-6.05-5.014-15.561-12.18-21.136-15.925c-8.253-5.543-11.563-7.145-17.821-8.62c-7.402-1.744-8.025-1.745-16.865-0.021
		c-5.048,0.985-12.039,3.138-15.535,4.782c-3.497,1.646-8.092,3.603-10.209,4.35c-5.691,2.008-29.512,15.398-39.703,22.32
		c-3.339,2.268-9.594,5.973-13.9,8.235c-9.799,5.148-30.838,17.538-34.83,20.513c-1.65,1.229-14.7,8.27-29,15.646
		s-27.8,14.526-30,15.889c-4.463,2.761-16.366,8.176-24,10.918c-9.008,3.235-24.498,9.871-28.792,12.334
		c-2.314,1.327-5.333,2.725-6.708,3.104s-5.875,2.183-10,4.007c-4.125,1.823-10.425,4.299-14,5.5
		c-26.974,9.066-38.316,12.611-47.697,14.908c-4.508,1.104-9.908,2.876-12,3.938s-6.503,2.478-9.803,3.144
		c-3.3,0.667-9.154,2.462-13.008,3.988c-3.855,1.527-9.48,3.117-12.5,3.532c-3.021,0.415-9.045,1.818-13.387,3.117
		c-4.342,1.3-14.629,3.501-22.858,4.892c-8.229,1.392-19.978,3.606-26.105,4.923c-6.128,1.315-13.842,2.701-17.142,3.078
		c-3.3,0.378-11.318,2.007-17.817,3.62s-16.624,3.387-22.5,3.941c-10.202,0.963-15.968,2.079-28.182,5.457
		c-3.025,0.837-12.7,1.98-21.5,2.541s-20.5,1.688-26,2.503c-21.418,3.177-43.869,4.407-119.5,6.546
		c-38.36,1.086-110.296,0.51-145-1.16c-11.275-0.543-32.425-1.426-47-1.963s-31-1.645-36.5-2.461s-20.35-2.172-33-3.012
		c-16.36-1.086-25.887-2.215-33-3.911c-11.848-2.824-15.7-3.409-30.241-4.591c-6.201-0.504-14.807-2.002-19.766-3.439
		c-4.83-1.4-12.655-3.051-17.388-3.668c-4.733-0.616-15.806-2.826-24.605-4.911s-19.356-4.345-23.458-5.022s-9.952-2.097-13-3.155
		c-3.048-1.058-8.765-2.547-12.704-3.31c-3.939-0.762-9.018-2.332-11.284-3.488s-8.043-3.169-12.837-4.474
		c-4.795-1.304-11.191-3.259-14.217-4.343s-8.425-2.901-12-4.039c-12.128-3.859-25.479-8.957-30.958-11.82
		c-4.995-2.609-6.312-2.844-15.5-2.765c-7.215,0.062-11.168,0.579-14.042,1.835c-2.2,0.963-7.825,3.099-12.5,4.747
		c-8.559,3.019-35.857,16.185-40.827,19.69c-1.47,1.037-14.147,7.538-28.173,14.447c-14.025,6.908-28.2,14.201-31.5,16.205
		c-5.344,3.245-15.092,7.976-39.5,19.166c-4.125,1.892-9.75,4.527-12.5,5.856c-12.561,6.072-23.52,10.714-32.861,13.917
		c-16.437,5.638-48.202,11.888-68.902,13.558c-6.73,0.543-19.437,2.297-28.236,3.897s-19.85,3.172-24.554,3.492
		c-4.705,0.32-12.13,1.541-16.5,2.712C962.427,3406.108,954.113,3406.269,935.893,3402.3z M1843.877,3303.406
		c13.75-0.513,40.3-1.415,59-2.006c18.7-0.59,43.45-1.725,55-2.522s29.55-1.938,40-2.537c28.929-1.654,42.033-2.924,53-5.132
		c5.5-1.107,14.95-2.42,21-2.916c10.303-0.846,16.362-2.122,26-5.475c2.2-0.766,8.291-1.824,13.536-2.354s12.22-1.86,15.5-2.959
		c3.28-1.1,11.341-2.956,17.913-4.127s17.146-3.626,23.5-5.455c6.353-1.83,13.326-3.647,15.495-4.038
		c2.17-0.392,6.027-1.767,8.571-3.056c2.545-1.29,7.52-3.091,11.056-4.002c3.536-0.912,7.92-2.574,9.742-3.695
		c1.822-1.12,7.223-3.297,12-4.838c21.294-6.869,40.649-14.137,49.187-18.469c11.562-5.868,39.762-19.299,41.975-19.991
		c3.462-1.083,19.886-9.282,30.025-14.988c4.675-2.631,16.363-8.84,25.975-13.797c26.338-13.585,41.273-23.873,55.525-38.25
		c8.238-8.31,16.648-22.921,18.488-32.118c0.643-3.214,2.019-8.769,3.057-12.344c3.366-11.584,4.048-22.582,4.962-80
		c0.808-50.789,1.105-57.511,2.944-66.5c1.125-5.5,2.754-15.175,3.619-21.5s3.285-18.7,5.378-27.5s4.108-17.8,4.479-20
		c0.801-4.734,6.822-23.888,9.748-31c1.131-2.75,2.905-7.922,3.944-11.494s3.002-8.747,4.362-11.5
		c3.055-6.182,8.893-22.202,12.178-33.417c1.355-4.627,3.289-10.029,4.297-12.006c1.009-1.977,2.376-5.616,3.037-8.089
		c0.662-2.472,2.685-7.194,4.493-10.494c1.81-3.3,3.851-7.8,4.536-10s2.162-5.8,3.279-8c2.178-4.285,5.779-13.936,11.195-30
		c5.527-16.393,10.544-29.869,11.914-32c0.706-1.1,1.845-3.8,2.53-6c0.685-2.2,2.741-7.375,4.568-11.5
		c3.666-8.272,7.407-19.021,11.14-32c1.344-4.675,3.746-12.1,5.336-16.5c1.591-4.4,3.189-9.35,3.554-11s2.141-6.375,3.947-10.5
		c2.95-6.736,5.825-14.655,10.163-28c0.805-2.475,2.781-8.55,4.392-13.5s4.259-13.95,5.886-20
		c5.219-19.412,8.129-28.868,10.616-34.5c1.337-3.025,3.13-8.65,3.985-12.5s2.613-9.312,3.906-12.137
		c1.293-2.826,2.682-7.101,3.086-9.5c0.404-2.4,1.994-8.188,3.533-12.863s3.979-13.675,5.423-20c1.443-6.325,3.684-14.65,4.979-18.5
		s2.675-9.438,3.065-12.417c0.392-2.979,2-8.288,3.574-11.796s3.378-9.396,4.01-13.083c0.631-3.688,2.211-9.404,3.51-12.704
		s3.226-10.05,4.281-15c1.055-4.95,3.329-15.075,5.054-22.5s3.593-16.781,4.151-20.791c0.559-4.011,1.692-9.186,2.519-11.5
		c0.826-2.315,2.367-10.136,3.425-17.38c1.057-7.243,2.812-15.431,3.901-18.193s2.506-8.985,3.148-13.829
		c0.644-4.844,2.264-14.432,3.602-21.307c4.583-23.546,4.921-42.398,0.963-53.566c-0.793-2.237-2.226-7.638-3.186-12
		c-0.959-4.363-2.875-10.184-4.258-12.934c-1.384-2.75-3.529-8.15-4.771-12c-5.989-18.594-18.708-45.946-27.2-58.5
		c-1.674-2.475-5.648-9.45-8.831-15.5c-5.688-10.808-18.115-31.069-21.47-35c-0.938-1.1-5.762-8.384-10.718-16.187
		c-8.245-12.979-11.109-16.932-22.535-31.093c-2.094-2.597-6.724-8.859-10.287-13.918c-3.564-5.059-10.176-13.384-14.692-18.5
		s-11.584-13.353-15.706-18.303c-19.943-23.953-55.163-58.609-73.006-71.84c-5.225-3.874-11.75-8.715-14.5-10.757
		c-14.53-10.791-29.524-16.569-45.625-17.584c-9.35-0.589-27.591,0.808-36.866,2.821c-2.47,0.537-9.02,1.611-14.554,2.389
		c-5.533,0.776-13.099,2.556-16.811,3.952c-3.712,1.397-9.816,2.976-13.565,3.508c-3.749,0.531-10.173,2.311-14.275,3.952
		c-4.102,1.643-10.798,3.478-14.881,4.078s-11.022,2.137-15.423,3.414s-14.3,3.309-22,4.514c-7.7,1.204-18.608,3.274-24.24,4.6
		c-5.633,1.325-14.406,2.916-19.496,3.535c-5.092,0.619-12.992,2.208-17.558,3.531c-4.566,1.323-12.893,2.896-18.504,3.497
		s-15.171,2.364-21.244,3.92c-6.072,1.555-16.647,3.329-23.5,3.941c-6.852,0.612-17.187,1.991-22.965,3.063
		c-5.778,1.071-16.354,2.412-23.5,2.979c-7.146,0.566-20.193,1.676-28.993,2.466c-55.585,4.989-108.249,6.383-136.5,3.611
		c-30.227-2.964-50.997-8.822-64.586-18.216c-15.459-10.687-28.891-23.593-38.379-36.876c-18.348-25.686-24.058-36.273-28.043-52
		c-1.185-4.675-3.216-12.169-4.513-16.652s-2.646-11.009-2.996-14.5s-1.308-11.072-2.126-16.848
		c-4.805-33.894,1.919-76.78,15.586-99.406c7.901-13.082,31.068-36.396,50.89-51.213c22.46-16.79,27.603-20.419,36.667-25.867
		c4.4-2.646,15.875-9.768,25.5-15.826c9.625-6.06,23.575-14.138,31-17.95c12.687-6.515,19.894-10.507,33-18.277
		c6.03-3.576,13.502-7.413,31-15.922c6.325-3.076,15.1-7.665,19.5-10.197c16.348-9.411,29.914-16.315,36.104-18.376
		c7.782-2.59,10.396-5.5,10.396-11.577c0-4.238-0.424-4.801-17.75-23.548c-9.763-10.562-24.055-25.761-31.759-33.772
		c-7.705-8.012-17.198-17.942-21.096-22.067s-14.693-14.945-23.991-24.045c-14.757-14.442-22.096-20.791-46.824-40.505
		c-2.794-2.228-10.255-7.599-16.58-11.937c-6.325-4.337-14.896-10.39-19.045-13.449c-4.149-3.061-12.249-8.646-18-12.412
		c-5.75-3.767-20.355-13.348-32.455-21.29c-12.1-7.943-25.165-16.183-29.034-18.31c-3.868-2.127-13.094-7.876-20.5-12.774
		c-7.406-4.899-19.541-12.208-26.966-16.242s-16.107-8.955-19.294-10.936s-8.411-5.237-11.61-7.238
		c-3.198-2.001-13.866-7.919-23.705-13.152c-9.84-5.233-22.841-12.372-28.891-15.862c-6.05-3.491-15.275-8.299-20.5-10.683
		c-11.916-5.438-37.794-18.502-50.5-25.495c-4.073-2.241-22.4-10.294-25.5-11.204c-1.375-0.403-8.88-3.824-16.678-7.601
		c-7.798-3.775-14.453-6.865-14.789-6.865s-4.081-1.547-8.322-3.438c-12.87-5.738-25.285-10.38-33.711-12.604
		c-4.4-1.161-10.318-2.954-13.151-3.984c-2.833-1.029-8.908-2.531-13.5-3.337s-11.866-2.65-16.165-4.098
		c-6.249-2.105-10.46-2.748-21-3.206c-15.291-0.665-20.78,0.157-34.475,5.164c-10.911,3.988-18.9,7.979-34.209,17.084
		c-10.69,6.358-30.506,13.911-39.318,14.985c-2.3,0.281-18.582,0.903-36.182,1.383c-31.819,0.867-32.062,0.891-43,4.064
		c-13.336,3.87-28.479,11.72-38.079,19.739c-3.807,3.18-11.947,9.712-18.091,14.517s-22.48,19.646-36.305,32.982
		c-13.823,13.337-28.171,26.948-31.883,30.248c-3.711,3.3-10.774,10.062-15.695,15.027s-17.497,17.156-27.947,27.092
		s-24.945,23.717-32.212,30.625c-31.3,29.755-73.299,66.756-75.773,66.756c-2.118,0-4.515-2.891-4.515-5.445
		c0-1.267,0.675-4.217,1.5-6.555s1.5-6.438,1.5-9.11c0-3.957-0.542-5.464-2.922-8.124c-2.655-2.969-3.412-3.254-8.33-3.142
		c-6.575,0.151-6.153-0.063-27.513,14.05c-34.321,22.678-61.83,49.434-70.764,68.826c-4.687,10.174-7.364,17.166-8.97,23.429
		c-0.907,3.536-2.752,8.605-4.101,11.267c-1.349,2.66-3.068,8.317-3.821,12.571c-0.753,4.253-2.338,10.165-3.521,13.138
		c-1.184,2.973-2.788,8.427-3.565,12.121c-0.776,3.694-2.711,10.037-4.297,14.096s-3.477,9.629-4.2,12.379s-2.535,7.475-4.026,10.5
		c-1.49,3.025-3.037,6.625-3.436,8c-0.4,1.375-2.443,6.1-4.542,10.5c-7.136,14.96-13.974,30.311-17.895,40.168
		c-7.18,18.049-11.251,26.744-22.394,47.832c-0.872,1.65-3.379,7.05-5.571,12c-8.262,18.656-14.405,32.034-15.155,33
		c-1.53,1.974-17.95,34.354-19.84,39.126c-2.807,7.086-9.516,20.412-20.577,40.874c-5.353,9.9-10.783,20.475-12.068,23.5
		c-2.501,5.884-6.945,14.064-15.485,28.5c-2.928,4.95-8.005,14.175-11.283,20.5c-12.64,24.394-30.557,49.723-45.154,63.835
		c-8.042,7.774-11.112,10.011-18.363,13.375c-12.071,5.601-14.695,7.823-18.758,15.89c-6.914,13.73-6.93,13.883-6.808,67.9
		c0.113,50.282,0.679,60.972,4.774,90.223c1.33,9.503,2.669,21.348,2.976,26.321c0.353,5.722,1.62,12.519,3.449,18.5
		c1.59,5.201,3.435,13.227,4.099,17.834c0.664,4.608,1.661,9.558,2.216,11s2.567,8.697,4.473,16.122
		c4.458,17.376,16.335,51.434,20.249,58.067c1.158,1.962,2.96,6.013,4.005,9c1.045,2.988,3.299,8.357,5.008,11.933
		c1.71,3.575,3.109,7.096,3.109,7.824c0.002,2.775,15.414,32.516,21.702,41.878c8.445,12.572,9.91,14.135,13.976,14.897
		c4.727,0.887,8.646-1.059,13.016-6.458c2.065-2.553,7.16-8.241,11.321-12.642c4.162-4.4,10.236-11.375,13.499-15.5
		s9.355-11.325,13.539-16s12.049-14.125,17.477-21c5.429-6.875,11.961-14.75,14.517-17.5s9.09-10.625,14.521-17.5
		c5.43-6.875,13.742-17,18.471-22.5s12.383-14.725,17.01-20.5s12.037-14.55,16.467-19.5c4.431-4.95,11.405-13.05,15.501-18
		c4.095-4.95,11.073-12.844,15.506-17.542c4.434-4.698,10.459-11.448,13.391-15c6.438-7.801,28.997-32.662,42.143-46.443
		c5.255-5.508,12.431-13.39,15.946-17.515c3.517-4.125,10.917-12.233,16.447-18.02c5.529-5.786,17.704-18.811,27.054-28.945
		c48.896-52.996,164.622-168.595,180.178-179.979c3.667-2.684,6.322-2.171,6.322,1.221c0,4.732-16.61,28.304-31.487,44.683
		c-4.226,4.653-11.1,12.753-15.274,18s-10.479,12.432-14.011,15.966s-10.989,11.635-16.573,18
		c-5.584,6.366-13.57,15.174-17.748,19.574s-10.027,10.803-13.001,14.228c-2.973,3.425-9.455,10.647-14.405,16.05
		c-46.47,50.712-68.943,78.826-90.107,112.723c-13.065,20.926-16.258,26.881-21.173,39.5c-5.269,13.525-7.746,21.054-11.19,34
		c-1.536,5.775-3.702,12.525-4.812,15c-1.109,2.475-2.731,9.092-3.604,14.703s-2.506,12.586-3.629,15.5
		c-1.125,2.913-2.708,10.247-3.519,16.297c-0.812,6.05-2.361,15.95-3.444,22c-2.529,14.119-5.718,38.469-6.548,50
		c-0.356,4.95-1.727,15.3-3.044,23s-2.838,20.525-3.38,28.5s-1.675,18.027-2.518,22.338c-2.307,11.797-2.053,17.945,0.881,21.356
		c2.247,2.612,3.021,2.831,11.227,3.168c10.382,0.426,29.645-1.297,44.304-3.963c5.743-1.045,12.718-1.915,15.5-1.934
		c2.781-0.019,10.231-0.685,16.557-1.481c59.448-7.482,140.329-7.929,188-1.038c5.225,0.755,12.65,1.664,16.5,2.02
		s9.334,1.3,12.188,2.1s9.482,2.338,14.73,3.418c5.249,1.08,11.747,3.08,14.44,4.444c2.693,1.365,7.089,3.018,9.769,3.674
		c2.681,0.655,8.021,2.701,11.869,4.545c3.849,1.845,7.476,3.354,8.061,3.354c1.627,0,24.114,9.303,34.082,14.1
		c4.874,2.345,13.137,7.034,18.361,10.42s12.2,7.66,15.5,9.498c10.281,5.725,20.385,12.871,38,26.878
		c35.886,28.534,57.363,51.337,92.871,98.604c2.893,3.85,8.067,11.725,11.499,17.5c3.433,5.775,9.625,15.9,13.761,22.5
		c6.827,10.896,13.36,23.574,26.021,50.5c2.457,5.225,6.005,12.65,7.885,16.5c3.869,7.926,7.975,17.85,10.134,24.5
		c0.805,2.475,3.506,11.025,6.003,19c2.498,7.975,5.825,18.1,7.394,22.5s3.374,10.444,4.014,13.432s2.403,8.387,3.921,12
		c1.518,3.612,3.287,10.283,3.934,14.822c0.646,4.54,2.014,10.691,3.038,13.669s3.47,16.813,5.434,30.745
		c7.318,51.904,6.561,42.966,9.621,113.549c1.219,28.092,0.862,44.91-2.02,95.283c-0.843,14.746-4.282,37.501-7.631,50.5
		c-2.259,8.764-6.39,15.848-16.703,28.64c-5.046,6.259-11.621,14.524-14.611,18.37c-15.377,19.771-90.657,94.905-150.782,150.49
		c-16.848,15.575-18.235,17.238-18.973,22.736c-0.47,3.504-0.219,4.267,1.823,5.546c1.303,0.815,5.519,1.733,9.368,2.04
		c3.85,0.308,13.75,1.905,22,3.552s20.4,3.729,27,4.629s16.937,2.761,22.971,4.136c6.034,1.376,14.81,2.926,19.5,3.443
		c4.691,0.519,13.029,2.281,18.529,3.918s14.05,3.422,19,3.969s14.85,2.324,22,3.951c23.903,5.438,62.048,10.346,94,12.093
		C1626.829,3305.386,1810.474,3304.652,1843.877,3303.406z M1403.044,1640.671c-1.431-1.431-0.421-2.532,6.307-6.885
		c7.294-4.718,15.427-8.424,30.526-13.91c4.95-1.799,13.95-5.174,20-7.501c10.014-3.852,19.354-7.314,34.5-12.79
		c10.403-3.762,25.518-8.145,35.5-10.295c5.5-1.185,15.175-3.424,21.5-4.977s13.975-3.134,17-3.512c3.025-0.379,8.875-1.725,13-2.99
		c9.179-2.816,11.099-3.195,22.648-4.465c5.032-0.553,15.913-2.356,24.181-4.007c15.013-2.998,15.076-3.002,50.634-3.002
		c38.191,0,40.512,0.271,43.906,5.117c2.447,3.493,2.021,7.134-1.192,10.213c-5.607,5.373-17.491,6.72-84.677,9.596
		c-18.566,0.795-23.482,1.344-31.5,3.517c-5.225,1.416-14.45,3.04-20.5,3.607s-15.275,2.099-20.5,3.402s-11.975,2.661-15,3.017
		c-8.392,0.986-20.333,3.398-32.5,6.566c-6.05,1.574-13.828,3.358-17.284,3.964c-3.456,0.606-8.233,1.937-10.615,2.958
		c-2.382,1.021-8.104,2.61-12.716,3.531c-4.611,0.922-10.859,2.794-13.885,4.16c-3.025,1.367-9.55,3.323-14.5,4.347
		s-10.35,2.381-12,3.017c-3.025,1.166-29.785,7.988-31.333,7.988C1404.086,1641.338,1403.41,1641.038,1403.044,1640.671z
		 M953.877,3259.858c3.85-0.868,11.828-2.229,17.729-3.022c6.915-0.93,12.425-2.291,15.5-3.829
		c2.624-1.312,8.146-3.187,12.271-4.166s8.806-2.44,10.401-3.246s5.646-2.362,9-3.46c19.398-6.346,51.897-30.709,71.722-53.768
		c10.753-12.508,28.081-38.198,33.744-50.029c5.168-10.799,10.791-24.769,13.1-32.547c0.986-3.326,2.932-8.291,4.32-11.034
		c1.391-2.742,3.081-7.896,3.759-11.452c0.677-3.557,2.252-8.941,3.499-11.967s3.226-10.856,4.396-17.403
		c1.172-6.547,2.344-12.248,2.604-12.669c1.242-2.01,5.469-37.467,6.43-53.928c0.593-10.175,1.513-23.45,2.043-29.5
		c2.439-27.806-0.09-69.997-4.931-82.28c-5.203-13.2-9.279-19.445-21.025-32.22c-8.669-9.427-13.304-13.055-33.062-25.876
		c-28.06-18.209-40.861-24.595-68.5-34.168c-4.4-1.523-10.475-3.933-13.5-5.354s-6.625-2.597-8-2.614
		c-1.375-0.017-5.65-1.173-9.5-2.568c-14.357-5.207-46.867-9.946-75-10.934c-37.9-1.331-70.392,2.454-86.488,10.074
		c-20.061,9.497-42.298,25.957-63.077,46.691c-17.181,17.143-31.175,34.614-47.267,59.013
		c-16.066,24.359-21.555,35.075-30.827,60.197c-1.617,4.379-3.813,9.376-4.882,11.105c-1.069,1.729-2.673,6.696-3.564,11.038
		s-2.085,8.773-2.652,9.849c-6.137,11.629-7.263,65.937-1.731,83.546c1.123,3.575,2.929,10.226,4.014,14.778
		c1.084,4.554,3.139,10.584,4.566,13.401c1.428,2.816,3.196,6.967,3.932,9.221c6.599,20.25,15.853,37.162,32.335,59.1
		c4.132,5.5,9.244,12.311,11.361,15.135c3.643,4.862,32.924,33.658,39.222,38.571c9.465,7.385,39.266,27.378,46.06,30.901
		c8.697,4.511,20.59,9.318,35.568,14.377c5.262,1.777,10.743,4.001,12.179,4.942c1.437,0.94,6.155,2.329,10.486,3.085
		c4.331,0.757,11,2.058,14.82,2.891c3.82,0.834,8.071,1.729,9.446,1.989C919.519,3262.701,947.054,3261.396,953.877,3259.858z
		 M2838.376,3189.424c18.327-5.68,29.527-9.02,32.5-9.691c5.191-1.173,22.688-8.439,30.5-12.666
		c7.714-4.174,26.621-14.975,42.5-24.277c4.95-2.899,12.758-8.125,17.351-11.611c4.593-3.487,9.318-7.01,10.5-7.828
		c14.938-10.343,20.799-14.725,30.149-22.545c6.05-5.059,13.91-11.528,17.468-14.376c24.965-19.983,66.972-61.465,91.654-90.507
		c21.538-25.343,59.778-78.688,72.464-101.084c3.427-6.05,10.629-18.232,16.006-27.072c5.377-8.839,13.408-23.689,17.847-33
		s9.395-19.402,11.013-22.428c10.928-20.419,15.688-31.428,25.512-59c2.057-5.775,5.037-13.425,6.623-17
		c1.585-3.575,3.599-9.398,4.475-12.939c0.876-3.543,2.408-8.043,3.404-10c2.385-4.686,9.562-32.387,11.457-44.221
		c6.86-42.842,7.85-62.291,4.111-80.84c-0.942-4.675-2.374-11.744-3.182-15.708c-2.781-13.647-10.154-24.598-19.659-29.198
		c-8.906-4.311-30.443-4.996-48.626-1.547c-9.098,1.726-28.492,9.311-37.218,14.557c-3.108,1.868-7.833,4.707-10.5,6.31
		c-37.771,22.69-74.48,55.406-118.524,105.632c-6.972,7.95-15.65,18.28-19.286,22.955c-17.009,21.871-33.823,44.484-40.524,54.5
		c-4.049,6.05-10.159,14.678-13.579,19.174c-3.42,4.495-9.49,13.72-13.489,20.5c-4,6.779-10.061,16.602-13.469,21.826
		c-10.288,15.772-19.033,30.145-22.344,36.72c-1.722,3.421-5.228,9.721-7.789,14c-11.964,19.982-18.744,32.514-28.285,52.28
		c-3.318,6.875-8.283,16.55-11.031,21.5c-6.418,11.562-12.745,24.646-14.99,31c-0.971,2.75-6.074,13.775-11.34,24.5
		c-12.525,25.512-17.062,36.059-26.76,62.213c-1.573,4.242-3.975,9.417-5.338,11.5s-2.775,5.137-3.141,6.787
		c-0.363,1.65-2.139,6.375-3.943,10.5c-8.869,20.264-18.408,57.824-19.244,75.771c-0.515,11.053-0.465,11.393,2.546,17.5
		c3.775,7.658,8.772,12.649,17.22,17.201C2819.796,3193.327,2825.372,3193.453,2838.376,3189.424z"/>
</g>
</svg>
