<?xml version="1.0" encoding="utf-8"?>
<!-- Generator: Adobe Illustrator 15.1.0, SVG Export Plug-In . SVG Version: 6.00 Build 0)  -->
<!DOCTYPE svg PUBLIC "-//W3C//DTD SVG 1.1//EN" "http://www.w3.org/Graphics/SVG/1.1/DTD/svg11.dtd">
<svg version="1.1"
	 id="svg2" xmlns:sodipodi="http://sodipodi.sourceforge.net/DTD/sodipodi-0.dtd" xmlns:svg="http://www.w3.org/2000/svg" xmlns:inkscape="http://www.inkscape.org/namespaces/inkscape" xmlns:dc="http://purl.org/dc/elements/1.1/" xmlns:cc="http://creativecommons.org/ns#" xmlns:rdf="http://www.w3.org/1999/02/22-rdf-syntax-ns#" sodipodi:docname="wave.svg" sodipodi:version="0.32" inkscape:version="0.46" inkscape:output_extension="org.inkscape.output.svg.inkscape"
	 xmlns="http://www.w3.org/2000/svg" xmlns:xlink="http://www.w3.org/1999/xlink" x="0px" y="0px" width="2450.772px"
	 height="3046.681px" viewBox="572.549 31.873 2450.772 3046.681" enable-background="new 572.549 31.873 2450.772 3046.681"
	 xml:space="preserve">
<defs>
	
	
		<inkscape:perspective  inkscape:vp_x="0 : 526.18109 : 1" id="perspective9" inkscape:vp_y="0 : 1000 : 0" inkscape:vp_z="744.09448 : 526.18109 : 1" sodipodi:type="inkscape:persp3d" inkscape:persp3d-origin="372.04724 : 350.78739 : 1">
		</inkscape:perspective>
</defs>
<sodipodi:namedview  id="base" inkscape:current-layer="svg2" inkscape:cy="1800" bordercolor="#666666" pagecolor="#ffffff" showgrid="false" inkscape:window-width="640" inkscape:window-height="669" inkscape:pageshadow="2" inkscape:pageopacity="0.0" inkscape:window-x="23" inkscape:window-y="23" inkscape:zoom="0.12833333" borderopacity="1.0" gridtolerance="10.0" objecttolerance="10.0" guidetolerance="10.0" inkscape:cx="868.83117">
	</sodipodi:namedview>
<g id="g2384_1_">
	<path id="path2386_1_" fill="#FFFFFF" d="M2312.5,3078.357c-10.361-0.689-36.465-3.165-50-4.742
		c-7.15-0.833-17.275-1.941-22.5-2.465c-8.76-0.876-48.228-7.885-57.5-10.211c-2.2-0.552-8.725-2.144-14.5-3.537
		c-5.775-1.393-12.844-3.614-15.707-4.936c-2.865-1.322-8.199-3.098-11.855-3.945s-9.713-2.887-13.46-4.531s-7.337-2.99-7.978-2.99
		c-1.242,0-24.841-7.559-36.5-11.691c-3.85-1.364-9.973-3.514-13.605-4.777c-3.633-1.263-7.707-3.018-9.054-3.9
		c-1.347-0.882-5.019-2.488-8.162-3.569c-3.143-1.081-7.843-3.118-10.446-4.527c-2.603-1.408-11.032-5.212-18.732-8.451
		s-16.696-7.101-19.992-8.581c-8.431-3.786-39.295-24.484-46.615-31.262c-13.166-12.189-25.7-28.768-35.34-46.74
		c-7.21-13.445-12.031-20.135-20.974-29.101c-6.241-6.258-9.444-8.646-14.079-10.5l-6-2.399l-193.5-0.015
		c-195.519-0.016-197.016-0.04-212.258-3.422c-2.333-0.518-10.542-1.663-18.242-2.546c-8.79-1.007-17.391-2.687-23.111-4.513
		c-5.258-1.678-13.546-3.359-19.593-3.975c-5.764-0.587-13.966-1.733-18.226-2.548c-11.303-2.163-20.351-1.86-32.707,1.095
		c-9.105,2.177-11.96,3.372-18.403,7.707c-12.443,8.371-21.151,17.595-31.831,33.716c-30.521,46.073-47.289,64.079-73.129,78.528
		c-18.035,10.085-33,16.151-48,19.456c-16.539,3.645-53.967,9.507-70.5,11.042c-6.325,0.588-17.8,1.961-25.5,3.052
		s-22.325,2.42-32.5,2.952s-27.05,1.491-37.5,2.13c-32.346,1.978-96.363,2.209-124.875,0.45c-13.819-0.852-31.2-1.835-38.625-2.185
		c-7.425-0.351-21.15-1.896-30.5-3.434c-9.35-1.539-20.375-3.077-24.5-3.42c-7.214-0.599-12.606-1.506-41.861-7.043
		c-7.349-1.391-14.338-2.529-15.532-2.529c-1.193,0-4.631-0.677-7.639-1.504c-3.007-0.828-10.231-2.596-16.053-3.931
		c-5.822-1.334-13.022-3.544-16-4.91c-2.979-1.366-8.79-3.588-12.915-4.937c-7.376-2.412-9.494-3.246-31.5-12.401
		c-16.343-6.798-25.859-12.438-41.746-24.738c-15.304-11.849-17.383-13.89-29.134-28.579
		c-10.227-12.785-14.839-21.884-18.257-36.018c-2.429-10.041-2.782-13.49-2.813-27.482c-0.061-26.681,4.898-44.186,19.381-68.417
		c10.074-16.854,16.84-26.172,28.155-38.774c11.036-12.291,34.437-34.219,45.414-42.555c13.618-10.341,41.369-29.789,47.643-33.389
		c12.642-7.254,17.512-10.156,26.357-15.711c8.408-5.279,14.519-8.458,38.5-20.024c5.225-2.521,13.55-6.857,18.5-9.638
		c4.95-2.781,15.121-8.133,22.602-11.893c36.557-18.373,50.87-28.456,50.892-35.852c0.004-1.238-2.186-6.863-4.865-12.5
		s-6.028-13.398-7.44-17.248c-3.542-9.655-10.299-24.736-17.473-39c-6.344-12.613-12.503-26.283-13.742-30.5
		c-0.829-2.823-6.649-16.297-12.533-29.016c-2.167-4.684-3.939-8.93-3.939-9.436s-1.528-3.873-3.396-7.484
		c-1.868-3.61-3.94-8.59-4.604-11.064c-0.666-2.475-1.92-5.85-2.789-7.5s-2.8-7.275-4.29-12.5c-1.491-5.225-4.071-13.55-5.733-18.5
		c-5.207-15.506-9.018-27.761-10.71-34.439c-0.896-3.543-2.542-8.227-3.655-10.41c-1.114-2.184-2.623-7.661-3.354-12.173
		c-0.73-4.513-2.264-11.304-3.408-15.091s-2.713-11.837-3.486-17.887c-0.772-6.05-2.308-16.4-3.41-23
		c-3.729-22.311-5.156-33.943-6.199-50.5c-0.572-9.075-1.476-20.325-2.009-25c-0.532-4.675-1.245-23.35-1.585-41.5
		c-0.542-29.049-0.367-35.515,1.465-54c1.145-11.55,2.359-24.375,2.7-28.5c0.66-7.99,3.597-26.224,5.972-37.082
		c0.792-3.621,2.136-11.271,2.986-17c0.852-5.73,2.432-13.118,3.512-16.418c1.081-3.3,2.68-9.795,3.553-14.434
		s2.477-10.175,3.562-12.303c1.086-2.129,2.891-7.559,4.01-12.066c1.12-4.509,2.883-10.223,3.916-12.697s2.829-8.309,3.991-12.964
		c1.163-4.655,2.77-10.034,3.572-11.954c0.802-1.92,2.594-8.012,3.981-13.536c1.387-5.525,3.569-12.746,4.85-16.046
		c1.279-3.3,2.64-7.8,3.021-10c0.383-2.2,2.022-6.627,3.646-9.838s3.441-8.127,4.041-10.925c0.601-2.799,2.335-7.86,3.855-11.248
		c1.521-3.389,3.092-7.697,3.491-9.575c0.4-1.878,2.265-8.039,4.144-13.691c1.878-5.652,4.319-14.792,5.426-20.311
		s2.835-12.144,3.843-14.723c1.007-2.579,2.347-7.692,2.977-11.362c0.631-3.671,2.285-9.696,3.676-13.391
		c1.39-3.694,3.185-11.398,3.988-17.12c0.803-5.723,2.341-13.872,3.416-18.11c5.278-20.794,5.338-76.401,0.106-99.885
		c-1.12-5.031-2.709-15.203-3.529-22.604c-0.845-7.624-2.594-16.944-4.035-21.506c-1.398-4.427-3.009-11.799-3.579-16.381
		s-2.111-12.606-3.426-17.831c-1.313-5.225-3.077-13.775-3.919-19c-0.843-5.225-3.066-15.8-4.943-23.5
		c-1.876-7.7-3.729-16.228-4.117-18.95c-0.388-2.722-1.994-8.572-3.569-13c-1.575-4.427-3.33-11.542-3.9-15.81
		c-0.569-4.268-2.159-10.43-3.533-13.694c-1.374-3.264-3.184-10.194-4.021-15.399c-0.838-5.206-2.186-11.344-2.996-13.641
		c-0.81-2.296-1.913-6.949-2.451-10.34c-3.884-24.475-5.479-33.457-7.571-42.666c-1.313-5.775-2.893-14.775-3.51-20
		c-0.618-5.225-2.194-13.775-3.504-19s-2.856-13.775-3.436-19c-0.58-5.225-1.95-13.325-3.046-18
		c-2.646-11.29-3.649-18.005-4.959-33.182c-0.602-6.975-1.768-16.424-2.591-21c-1.5-8.34-2.832-25.841-6.153-80.818
		c-1.427-23.628-1.764-43.234-1.695-98.5c0.083-67.57,0.305-75.111,4.453-151.5c0.583-10.725,1.971-24.44,3.084-30.479
		c1.114-6.038,2.618-17.288,3.344-25c0.964-10.25,2.009-15.813,3.885-20.686c1.412-3.665,3.266-11.004,4.119-16.309
		s2.27-11.306,3.146-13.335c0.877-2.03,2.617-7.517,3.867-12.191c4.585-17.142,14.55-41.712,20.481-50.5
		c1.485-2.2,5.315-8.05,8.512-13c17.982-27.847,43.632-54.604,68.921-71.899c11.501-7.864,28.799-15.602,40.443-18.089
		c3.662-0.782,10.483-2.597,15.158-4.032c7.869-2.416,9.983-2.619,28.5-2.738c19.416-0.125,20.511-0.022,37.5,3.531
		c9.625,2.014,26.05,5.665,36.5,8.114c20.018,4.691,39.64,8.62,43,8.609c8.297-0.028,13.608-4.549,22.502-19.147
		c3.467-5.691,9.855-15.902,14.196-22.69c4.34-6.788,11.303-18.714,15.472-26.5c4.17-7.787,10.812-19.108,14.76-25.158
		c3.947-6.05,9.629-14.938,12.624-19.75c2.995-4.813,8.467-13.138,12.159-18.5c18.008-26.152,35.711-52.204,39.514-58.146
		C1228.189,444.191,1235,428.498,1235,420c0-9.863-9.248-30.01-21.117-46.006c-13.495-18.187-17.922-25.195-30.941-48.994
		c-3.159-5.775-6.26-12.525-6.891-15s-2.041-6.646-3.135-9.268c-2.915-6.994-5.284-31.258-4.515-46.232
		c1.62-31.533,7.98-48.026,33.164-86c8.977-13.536,32.197-38.786,45.98-50c5.408-4.4,11.436-9.399,13.394-11.108
		c8.14-7.106,26.513-20.222,34.74-24.798c4.852-2.698,14.191-8.06,20.756-11.915c14.659-8.609,23.449-12.363,44.064-18.821
		c8.8-2.757,20.875-6.573,26.834-8.481s14.733-3.931,19.5-4.496s11.141-1.652,14.166-2.416c23.534-5.944,55.334-6.135,79.5-0.476
		c4.4,1.03,10.7,2.155,14,2.5c10.116,1.058,50.795,14.411,65,21.336c6.789,3.31,25.773,15.807,38,25.015
		c7.759,5.843,28.252,25.883,34.659,33.893c8.069,10.086,14.672,20.787,22.688,36.767c6.242,12.443,8.559,16.023,13.588,21.004
		c3.336,3.303,7.189,6.509,8.564,7.125c1.375,0.617,6.775,3.157,12,5.646c6.223,2.964,11.57,4.771,15.5,5.238
		c3.3,0.392,11.361,1.789,17.914,3.105c16.17,3.247,38.38,4.337,89.086,4.373c30.654,0.021,49.969,0.557,71.5,1.983
		c28.279,1.873,72.656,5.488,80,6.517c1.925,0.27,8.93,0.938,15.566,1.484c6.637,0.547,16.335,1.873,21.551,2.946
		c5.217,1.073,14.355,2.476,20.308,3.117c5.952,0.641,14.029,2.26,17.949,3.598c3.919,1.337,11.849,3.137,17.621,3.999
		s13.312,2.627,16.754,3.923s9.069,2.84,12.505,3.432c9.267,1.596,42.885,9.856,53.492,13.145
		c5.086,1.577,10.063,2.866,11.061,2.866c0.998,0,4.937,1.533,8.754,3.406c3.816,1.873,8.793,3.899,11.059,4.503
		c2.265,0.604,6.99,2.392,10.5,3.975c3.51,1.582,7.887,3.201,9.727,3.597s6.574,2.192,10.521,3.99s8.74,3.603,10.654,4.01
		c5.364,1.143,20.511,7.738,42.479,18.497c11,5.387,25.4,12.385,32,15.551c6.6,3.165,13.881,7.041,16.18,8.613
		c2.3,1.571,4.604,2.857,5.122,2.857s4.29,2.187,8.384,4.858c4.093,2.672,12.588,7.683,18.878,11.136s16.387,9.709,22.437,13.9
		s17.75,12.025,26,17.407s19.05,12.963,24,16.846c4.95,3.884,13.725,10.356,19.5,14.385s14.1,10.557,18.5,14.507
		c4.4,3.951,12.062,10.239,17.027,13.975s12.84,10.326,17.5,14.645c4.66,4.319,12.522,11.226,17.473,15.348s12.15,10.433,16,14.023
		s10.375,9.432,14.5,12.98c4.125,3.548,12.691,11.185,19.037,16.971c6.345,5.786,15.994,14.119,21.441,18.52
		c5.448,4.4,13.981,11.393,18.963,15.538c15.339,12.766,23.922,18.866,45.414,32.28c12.547,7.83,19.068,7.306,31.278-2.516
		c3.501-2.816,8.166-5.916,10.366-6.89c13.289-5.878,46.832-6.951,80-2.56c10.45,1.384,20.95,3.214,23.334,4.066
		c2.385,0.854,7.334,2.066,11,2.696s9.141,2.378,12.166,3.886c3.025,1.507,8.2,3.513,11.5,4.456s8.25,2.973,11,4.51
		s6.8,3.368,9,4.07c7.42,2.367,27.928,13.145,38.5,20.233c24.944,16.725,34.086,23.776,46.95,36.219
		c7.398,7.155,16.131,15.935,19.407,19.51c8.256,9.011,27.457,35.052,32.073,43.5c5.409,9.898,18.28,38.68,21.019,47
		c1.268,3.85,3.23,9.025,4.362,11.5c1.131,2.475,2.359,6.975,2.729,10c0.37,3.025,1.799,9.965,3.176,15.421
		c4.585,18.169,4.859,69.543,0.466,87.079c-1.104,4.4-2.542,11.375-3.198,15.5c-0.657,4.125-2.503,10.517-4.104,14.203
		c-1.601,3.687-3.193,8.187-3.54,10s-1.746,5.531-3.11,8.262c-1.363,2.73-3.52,7.681-4.791,11
		c-3.47,9.059-9.574,22.402-12.826,28.035c-5.76,9.975-31.768,48.16-37.119,54.5c-3.018,3.575-9.713,11.675-14.88,18
		c-5.166,6.325-15.405,17.38-22.753,24.567c-21.645,21.171-34.332,29.51-52.594,34.569c-19.722,5.465-21.623,5.701-52.881,6.594
		l-30.116,0.859l-6.845,3.455c-3.764,1.9-7.689,4.628-8.722,6.062c-2.378,3.3-7.414,18.527-8.729,26.394
		c-0.552,3.3-1.913,11.175-3.025,17.5c-4.913,27.951-6.993,39.968-8.047,46.5c-0.621,3.85-1.973,9.141-3.003,11.757
		s-2.526,7.89-3.325,11.719s-2.554,8.89-3.901,11.243c-1.347,2.354-2.97,6.081-3.607,8.281c-0.637,2.2-2.695,7.375-4.573,11.5
		c-4.82,10.583-10.33,23.548-12.75,30c-2.618,6.979-12.053,25.08-21.92,42.055c-3.055,5.255-6.451,11.555-7.548,14
		c-2.026,4.517-5.22,9.698-20.104,32.616c-18.916,29.127-43.483,63.938-53.162,75.329c-2.57,3.025-8.95,11.002-14.177,17.727
		c-22.521,28.977-56.994,65.361-99.632,105.157c-31.489,29.392-42.292,39.3-49.505,45.408c-9.701,8.217-9.47,12.791,1.234,24.407
		c3.88,4.211,10.943,13.293,15.697,20.181c4.753,6.889,11.567,16.09,15.144,20.447c3.576,4.358,11.457,14.954,17.514,23.548
		s13.533,18.924,16.614,22.956c5.773,7.553,11.32,15.214,19.041,26.299c2.439,3.503,8.025,11.09,12.411,16.859
		c4.386,5.769,11.198,15.444,15.139,21.5s10.749,15.961,15.13,22.011c4.38,6.05,11.025,15.95,14.767,22
		c6.643,10.74,12.74,19.831,22.807,34c2.735,3.85,6.497,9.925,8.36,13.5s5.397,9.65,7.855,13.5c2.457,3.85,5.692,9.025,7.189,11.5
		c1.496,2.475,4.166,6.75,5.934,9.5s7.378,12.65,12.469,22c5.09,9.35,11.282,20.6,13.76,25
		c6.745,11.976,14.863,27.727,15.735,30.526c0.424,1.36,3.59,8.323,7.036,15.474c9.561,19.832,16.922,36.253,19.727,44
		c4.385,12.115,8.886,25.709,11.256,34c1.258,4.4,3.453,10.589,4.877,13.753s2.875,7.664,3.225,10s1.914,7.213,3.477,10.838
		c1.563,3.624,3.338,9.925,3.943,14s2.172,11.459,3.481,16.409c3.985,15.063,9.827,65.402,11.593,99.889
		c1.604,31.34-0.008,77.773-3.544,102.111c-4.204,28.932-7.488,38.311-16.901,48.264c-9.97,10.541-18.088,13.21-40.162,13.201
		c-7.7-0.003-16.7-0.418-20-0.924c-3.3-0.505-10.725-1.635-16.5-2.512c-5.775-0.875-13.2-2.473-16.5-3.548
		c-3.3-1.076-9.461-2.837-13.691-3.913s-9.181-2.738-11-3.692c-1.82-0.954-6.908-2.722-11.309-3.927s-10.25-3.113-13-4.239
		c-6.525-2.673-32.09-10.599-40.889-12.676c-3.789-0.895-8.158-2.282-9.711-3.085c-1.551-0.803-5.827-2.156-9.502-3.009
		c-3.674-0.853-8.92-2.685-11.658-4.072s-7.737-3.107-11.109-3.822s-9.316-2.276-13.211-3.469c-6.817-2.089-7.263-2.106-12-0.499
		c-7.022,2.385-11.854,6.015-21.52,16.172c-13.736,14.435-20.408,25.007-30.451,48.25c-2.494,5.775-6.072,13.65-7.949,17.5
		s-3.731,8.339-4.121,9.976c-0.391,1.637-1.931,5.687-3.424,9s-3.036,7.6-3.429,9.524c-2.6,12.748-14.875,48.206-19.04,55
		c-1.18,1.925-8.096,15.425-15.369,30s-14.922,29.2-16.998,32.5c-7.546,11.998-11.255,18.569-18.706,33.145
		c-4.177,8.171-7.962,15.306-8.412,15.855s-3.833,5.95-7.519,12c-7.224,11.859-8.299,16.078-5.276,20.691
		c2.256,3.443,6.916,4.429,27.294,5.771c9.35,0.617,21.275,1.807,26.5,2.646s15.8,2.337,23.5,3.331c9.333,1.204,16,2.644,20,4.317
		c3.3,1.382,8.414,3.021,11.364,3.642s8.351,2.436,12,4.033c3.649,1.597,8.886,3.796,11.636,4.886
		c2.75,1.091,8.375,3.329,12.5,4.975c11.343,4.525,21.99,10.573,38,21.585c20,13.756,22.986,16.079,38.152,29.686
		c7.318,6.565,13.596,11.938,13.95,11.938c1.593,0,33.708,36.021,44.58,50c15.369,19.763,19.239,25.816,29.466,46.102
		c11.113,22.04,14.625,29.914,15.892,35.629c0.582,2.623,1.968,7.694,3.08,11.27c2.747,8.828,4.181,29.803,3.021,44.202
		c-1.081,13.438-4.584,23.633-12.026,35.007c-9.979,15.251-35.366,35.076-60.615,47.336c-23.725,11.519-30.119,14.455-31.483,14.455
		c-0.7,0-3.578,1.312-6.396,2.918c-2.816,1.604-7.866,3.625-11.223,4.488c-3.355,0.864-7.755,2.263-9.777,3.107
		c-6.967,2.911-49.439,11.277-63.565,12.521c-6.295,0.555-14.396,1.455-18,2.002c-19.771,2.996-39.525,4.12-77.556,4.413
		C2336.5,3078.618,2315.8,3078.577,2312.5,3078.357z"/>
</g>
<g id="g2384">
	<path id="path2386" fill="#010101" d="M2312.5,3078.357c-10.361-0.689-36.465-3.165-50-4.742c-7.15-0.833-17.275-1.941-22.5-2.465
		c-8.76-0.876-48.228-7.885-57.5-10.211c-2.2-0.552-8.725-2.144-14.5-3.537c-5.775-1.393-12.844-3.614-15.707-4.936
		c-2.865-1.322-8.199-3.098-11.855-3.945s-9.713-2.887-13.46-4.531s-7.337-2.99-7.978-2.99c-1.242,0-24.841-7.559-36.5-11.691
		c-3.85-1.364-9.973-3.514-13.605-4.777c-3.633-1.263-7.707-3.018-9.054-3.9c-1.347-0.882-5.019-2.488-8.162-3.569
		c-3.143-1.081-7.843-3.118-10.446-4.527c-2.603-1.408-11.032-5.212-18.732-8.451s-16.696-7.101-19.992-8.581
		c-8.431-3.786-39.295-24.484-46.615-31.262c-13.166-12.189-25.7-28.768-35.34-46.74c-7.21-13.445-12.031-20.135-20.974-29.101
		c-6.241-6.258-9.444-8.646-14.079-10.5l-6-2.399l-193.5-0.015c-195.519-0.016-197.016-0.04-212.258-3.422
		c-2.333-0.518-10.542-1.663-18.242-2.546c-8.79-1.007-17.391-2.687-23.111-4.513c-5.258-1.678-13.546-3.359-19.593-3.975
		c-5.764-0.587-13.966-1.733-18.226-2.548c-11.303-2.163-20.351-1.86-32.707,1.095c-9.105,2.177-11.96,3.372-18.403,7.707
		c-12.443,8.371-21.151,17.595-31.831,33.716c-30.521,46.073-47.289,64.079-73.129,78.528c-18.035,10.085-33,16.151-48,19.456
		c-16.539,3.645-53.967,9.507-70.5,11.042c-6.325,0.588-17.8,1.961-25.5,3.052s-22.325,2.42-32.5,2.952s-27.05,1.491-37.5,2.13
		c-32.346,1.978-96.363,2.209-124.875,0.45c-13.819-0.852-31.2-1.835-38.625-2.185c-7.425-0.351-21.15-1.896-30.5-3.434
		c-9.35-1.539-20.375-3.077-24.5-3.42c-7.214-0.599-12.606-1.506-41.861-7.043c-7.349-1.391-14.338-2.529-15.532-2.529
		c-1.193,0-4.631-0.677-7.639-1.504c-3.007-0.828-10.231-2.596-16.053-3.931c-5.822-1.334-13.022-3.544-16-4.91
		c-2.979-1.366-8.79-3.588-12.915-4.937c-7.376-2.412-9.494-3.246-31.5-12.401c-16.343-6.798-25.859-12.438-41.746-24.738
		c-15.304-11.849-17.383-13.89-29.134-28.579c-10.227-12.785-14.839-21.884-18.257-36.018c-2.429-10.041-2.782-13.49-2.813-27.482
		c-0.061-26.681,4.898-44.186,19.381-68.417c10.074-16.854,16.84-26.172,28.155-38.774c11.036-12.291,34.437-34.219,45.414-42.555
		c13.618-10.341,41.369-29.789,47.643-33.389c12.642-7.254,17.512-10.156,26.357-15.711c8.408-5.279,14.519-8.458,38.5-20.024
		c5.225-2.521,13.55-6.857,18.5-9.638c4.95-2.781,15.121-8.133,22.602-11.893c36.557-18.373,50.87-28.456,50.892-35.852
		c0.004-1.238-2.186-6.863-4.865-12.5s-6.028-13.398-7.44-17.248c-3.542-9.655-10.299-24.736-17.473-39
		c-6.344-12.613-12.503-26.283-13.742-30.5c-0.829-2.823-6.649-16.297-12.533-29.016c-2.167-4.684-3.939-8.93-3.939-9.436
		s-1.528-3.873-3.396-7.484c-1.868-3.61-3.94-8.59-4.604-11.064c-0.666-2.475-1.92-5.85-2.789-7.5s-2.8-7.275-4.29-12.5
		c-1.491-5.225-4.071-13.55-5.733-18.5c-5.207-15.506-9.018-27.761-10.71-34.439c-0.896-3.543-2.542-8.227-3.655-10.41
		c-1.114-2.184-2.623-7.661-3.354-12.173c-0.73-4.513-2.264-11.304-3.408-15.091s-2.713-11.837-3.486-17.887
		c-0.772-6.05-2.308-16.4-3.41-23c-3.729-22.311-5.156-33.943-6.199-50.5c-0.572-9.075-1.476-20.325-2.009-25
		c-0.532-4.675-1.245-23.35-1.585-41.5c-0.542-29.049-0.367-35.515,1.465-54c1.145-11.55,2.359-24.375,2.7-28.5
		c0.66-7.99,3.597-26.224,5.972-37.082c0.792-3.621,2.136-11.271,2.986-17c0.852-5.73,2.432-13.118,3.512-16.418
		c1.081-3.3,2.68-9.795,3.553-14.434s2.477-10.175,3.562-12.303c1.086-2.129,2.891-7.559,4.01-12.066
		c1.12-4.509,2.883-10.223,3.916-12.697s2.829-8.309,3.991-12.964c1.163-4.655,2.77-10.034,3.572-11.954
		c0.802-1.92,2.594-8.012,3.981-13.536c1.387-5.525,3.569-12.746,4.85-16.046c1.279-3.3,2.64-7.8,3.021-10
		c0.383-2.2,2.022-6.627,3.646-9.838s3.441-8.127,4.041-10.925c0.601-2.799,2.335-7.86,3.855-11.248
		c1.521-3.389,3.092-7.697,3.491-9.575c0.4-1.878,2.265-8.039,4.144-13.691c1.878-5.652,4.319-14.792,5.426-20.311
		s2.835-12.144,3.843-14.723c1.007-2.579,2.347-7.692,2.977-11.362c0.631-3.671,2.285-9.696,3.676-13.391
		c1.39-3.694,3.185-11.398,3.988-17.12c0.803-5.723,2.341-13.872,3.416-18.11c5.278-20.794,5.338-76.401,0.106-99.885
		c-1.12-5.031-2.709-15.203-3.529-22.604c-0.845-7.624-2.594-16.944-4.035-21.506c-1.398-4.427-3.009-11.799-3.579-16.381
		s-2.111-12.606-3.426-17.831c-1.313-5.225-3.077-13.775-3.919-19c-0.843-5.225-3.066-15.8-4.943-23.5
		c-1.876-7.7-3.729-16.228-4.117-18.95c-0.388-2.722-1.994-8.572-3.569-13c-1.575-4.427-3.33-11.542-3.9-15.81
		c-0.569-4.268-2.159-10.43-3.533-13.694c-1.374-3.264-3.184-10.194-4.021-15.399c-0.838-5.206-2.186-11.344-2.996-13.641
		c-0.81-2.296-1.913-6.949-2.451-10.34c-3.884-24.475-5.479-33.457-7.571-42.666c-1.313-5.775-2.893-14.775-3.51-20
		c-0.618-5.225-2.194-13.775-3.504-19s-2.856-13.775-3.436-19c-0.58-5.225-1.95-13.325-3.046-18
		c-2.646-11.29-3.649-18.005-4.959-33.182c-0.602-6.975-1.768-16.424-2.591-21c-1.5-8.34-2.832-25.841-6.153-80.818
		c-1.427-23.628-1.764-43.234-1.695-98.5c0.083-67.57,0.305-75.111,4.453-151.5c0.583-10.725,1.971-24.44,3.084-30.479
		c1.114-6.038,2.618-17.288,3.344-25c0.964-10.25,2.009-15.813,3.885-20.686c1.412-3.665,3.266-11.004,4.119-16.309
		s2.27-11.306,3.146-13.335c0.877-2.03,2.617-7.517,3.867-12.191c4.585-17.142,14.55-41.712,20.481-50.5
		c1.485-2.2,5.315-8.05,8.512-13c17.982-27.847,43.632-54.604,68.921-71.899c11.501-7.864,28.799-15.602,40.443-18.089
		c3.662-0.782,10.483-2.597,15.158-4.032c7.869-2.416,9.983-2.619,28.5-2.738c19.416-0.125,20.511-0.022,37.5,3.531
		c9.625,2.014,26.05,5.665,36.5,8.114c20.018,4.691,39.64,8.62,43,8.609c8.297-0.028,13.608-4.549,22.502-19.147
		c3.467-5.691,9.855-15.902,14.196-22.69c4.34-6.788,11.303-18.714,15.472-26.5c4.17-7.787,10.812-19.108,14.76-25.158
		c3.947-6.05,9.629-14.938,12.624-19.75c2.995-4.813,8.467-13.138,12.159-18.5c18.008-26.152,35.711-52.204,39.514-58.146
		C1228.189,444.191,1235,428.498,1235,420c0-9.863-9.248-30.01-21.117-46.006c-13.495-18.187-17.922-25.195-30.941-48.994
		c-3.159-5.775-6.26-12.525-6.891-15s-2.041-6.646-3.135-9.268c-2.915-6.994-5.284-31.258-4.515-46.232
		c1.62-31.533,7.98-48.026,33.164-86c8.977-13.536,32.197-38.786,45.98-50c5.408-4.4,11.436-9.399,13.394-11.108
		c8.14-7.106,26.513-20.222,34.74-24.798c4.852-2.698,14.191-8.06,20.756-11.915c14.659-8.609,23.449-12.363,44.064-18.821
		c8.8-2.757,20.875-6.573,26.834-8.481s14.733-3.931,19.5-4.496s11.141-1.652,14.166-2.416c23.534-5.944,55.334-6.135,79.5-0.476
		c4.4,1.03,10.7,2.155,14,2.5c10.116,1.058,50.795,14.411,65,21.336c6.789,3.31,25.773,15.807,38,25.015
		c7.759,5.843,28.252,25.883,34.659,33.893c8.069,10.086,14.672,20.787,22.688,36.767c6.242,12.443,8.559,16.023,13.588,21.004
		c3.336,3.303,7.189,6.509,8.564,7.125c1.375,0.617,6.775,3.157,12,5.646c6.223,2.964,11.57,4.771,15.5,5.238
		c3.3,0.392,11.361,1.789,17.914,3.105c16.17,3.247,38.38,4.337,89.086,4.373c30.654,0.021,49.969,0.557,71.5,1.983
		c28.279,1.873,72.656,5.488,80,6.517c1.925,0.27,8.93,0.938,15.566,1.484c6.637,0.547,16.335,1.873,21.551,2.946
		c5.217,1.073,14.355,2.476,20.308,3.117c5.952,0.641,14.029,2.26,17.949,3.598c3.919,1.337,11.849,3.137,17.621,3.999
		s13.312,2.627,16.754,3.923s9.069,2.84,12.505,3.432c9.267,1.596,42.885,9.856,53.492,13.145
		c5.086,1.577,10.063,2.866,11.061,2.866c0.998,0,4.937,1.533,8.754,3.406c3.816,1.873,8.793,3.899,11.059,4.503
		c2.265,0.604,6.99,2.392,10.5,3.975c3.51,1.582,7.887,3.201,9.727,3.597s6.574,2.192,10.521,3.99s8.74,3.603,10.654,4.01
		c5.364,1.143,20.511,7.738,42.479,18.497c11,5.387,25.4,12.385,32,15.551c6.6,3.165,13.881,7.041,16.18,8.613
		c2.3,1.571,4.604,2.857,5.122,2.857s4.29,2.187,8.384,4.858c4.093,2.672,12.588,7.683,18.878,11.136s16.387,9.709,22.437,13.9
		s17.75,12.025,26,17.407s19.05,12.963,24,16.846c4.95,3.884,13.725,10.356,19.5,14.385s14.1,10.557,18.5,14.507
		c4.4,3.951,12.062,10.239,17.027,13.975s12.84,10.326,17.5,14.645c4.66,4.319,12.522,11.226,17.473,15.348s12.15,10.433,16,14.023
		s10.375,9.432,14.5,12.98c4.125,3.548,12.691,11.185,19.037,16.971c6.345,5.786,15.994,14.119,21.441,18.52
		c5.448,4.4,13.981,11.393,18.963,15.538c15.339,12.766,23.922,18.866,45.414,32.28c12.547,7.83,19.068,7.306,31.278-2.516
		c3.501-2.816,8.166-5.916,10.366-6.89c13.289-5.878,46.832-6.951,80-2.56c10.45,1.384,20.95,3.214,23.334,4.066
		c2.385,0.854,7.334,2.066,11,2.696s9.141,2.378,12.166,3.886c3.025,1.507,8.2,3.513,11.5,4.456s8.25,2.973,11,4.51
		s6.8,3.368,9,4.07c7.42,2.367,27.928,13.145,38.5,20.233c24.944,16.725,34.086,23.776,46.95,36.219
		c7.398,7.155,16.131,15.935,19.407,19.51c8.256,9.011,27.457,35.052,32.073,43.5c5.409,9.898,18.28,38.68,21.019,47
		c1.268,3.85,3.23,9.025,4.362,11.5c1.131,2.475,2.359,6.975,2.729,10c0.37,3.025,1.799,9.965,3.176,15.421
		c4.585,18.169,4.859,69.543,0.466,87.079c-1.104,4.4-2.542,11.375-3.198,15.5c-0.657,4.125-2.503,10.517-4.104,14.203
		c-1.601,3.687-3.193,8.187-3.54,10s-1.746,5.531-3.11,8.262c-1.363,2.73-3.52,7.681-4.791,11
		c-3.47,9.059-9.574,22.402-12.826,28.035c-5.76,9.975-31.768,48.16-37.119,54.5c-3.018,3.575-9.713,11.675-14.88,18
		c-5.166,6.325-15.405,17.38-22.753,24.567c-21.645,21.171-34.332,29.51-52.594,34.569c-19.722,5.465-21.623,5.701-52.881,6.594
		l-30.116,0.859l-6.845,3.455c-3.764,1.9-7.689,4.628-8.722,6.062c-2.378,3.3-7.414,18.527-8.729,26.394
		c-0.552,3.3-1.913,11.175-3.025,17.5c-4.913,27.951-6.993,39.968-8.047,46.5c-0.621,3.85-1.973,9.141-3.003,11.757
		s-2.526,7.89-3.325,11.719s-2.554,8.89-3.901,11.243c-1.347,2.354-2.97,6.081-3.607,8.281c-0.637,2.2-2.695,7.375-4.573,11.5
		c-4.82,10.583-10.33,23.548-12.75,30c-2.618,6.979-12.053,25.08-21.92,42.055c-3.055,5.255-6.451,11.555-7.548,14
		c-2.026,4.517-5.22,9.698-20.104,32.616c-18.916,29.127-43.483,63.938-53.162,75.329c-2.57,3.025-8.95,11.002-14.177,17.727
		c-22.521,28.977-56.994,65.361-99.632,105.157c-31.489,29.392-42.292,39.3-49.505,45.408c-9.701,8.217-9.47,12.791,1.234,24.407
		c3.88,4.211,10.943,13.293,15.697,20.181c4.753,6.889,11.567,16.09,15.144,20.447c3.576,4.358,11.457,14.954,17.514,23.548
		s13.533,18.924,16.614,22.956c5.773,7.553,11.32,15.214,19.041,26.299c2.439,3.503,8.025,11.09,12.411,16.859
		c4.386,5.769,11.198,15.444,15.139,21.5s10.749,15.961,15.13,22.011c4.38,6.05,11.025,15.95,14.767,22
		c6.643,10.74,12.74,19.831,22.807,34c2.735,3.85,6.497,9.925,8.36,13.5s5.397,9.65,7.855,13.5c2.457,3.85,5.692,9.025,7.189,11.5
		c1.496,2.475,4.166,6.75,5.934,9.5s7.378,12.65,12.469,22c5.09,9.35,11.282,20.6,13.76,25
		c6.745,11.976,14.863,27.727,15.735,30.526c0.424,1.36,3.59,8.323,7.036,15.474c9.561,19.832,16.922,36.253,19.727,44
		c4.385,12.115,8.886,25.709,11.256,34c1.258,4.4,3.453,10.589,4.877,13.753s2.875,7.664,3.225,10s1.914,7.213,3.477,10.838
		c1.563,3.624,3.338,9.925,3.943,14s2.172,11.459,3.481,16.409c3.985,15.063,9.827,65.402,11.593,99.889
		c1.604,31.34-0.008,77.773-3.544,102.111c-4.204,28.932-7.488,38.311-16.901,48.264c-9.97,10.541-18.088,13.21-40.162,13.201
		c-7.7-0.003-16.7-0.418-20-0.924c-3.3-0.505-10.725-1.635-16.5-2.512c-5.775-0.875-13.2-2.473-16.5-3.548
		c-3.3-1.076-9.461-2.837-13.691-3.913s-9.181-2.738-11-3.692c-1.82-0.954-6.908-2.722-11.309-3.927s-10.25-3.113-13-4.239
		c-6.525-2.673-32.09-10.599-40.889-12.676c-3.789-0.895-8.158-2.282-9.711-3.085c-1.551-0.803-5.827-2.156-9.502-3.009
		c-3.674-0.853-8.92-2.685-11.658-4.072s-7.737-3.107-11.109-3.822s-9.316-2.276-13.211-3.469c-6.817-2.089-7.263-2.106-12-0.499
		c-7.022,2.385-11.854,6.015-21.52,16.172c-13.736,14.435-20.408,25.007-30.451,48.25c-2.494,5.775-6.072,13.65-7.949,17.5
		s-3.731,8.339-4.121,9.976c-0.391,1.637-1.931,5.687-3.424,9s-3.036,7.6-3.429,9.524c-2.6,12.748-14.875,48.206-19.04,55
		c-1.18,1.925-8.096,15.425-15.369,30s-14.922,29.2-16.998,32.5c-7.546,11.998-11.255,18.569-18.706,33.145
		c-4.177,8.171-7.962,15.306-8.412,15.855s-3.833,5.95-7.519,12c-7.224,11.859-8.299,16.078-5.276,20.691
		c2.256,3.443,6.916,4.429,27.294,5.771c9.35,0.617,21.275,1.807,26.5,2.646s15.8,2.337,23.5,3.331c9.333,1.204,16,2.644,20,4.317
		c3.3,1.382,8.414,3.021,11.364,3.642s8.351,2.436,12,4.033c3.649,1.597,8.886,3.796,11.636,4.886
		c2.75,1.091,8.375,3.329,12.5,4.975c11.343,4.525,21.99,10.573,38,21.585c20,13.756,22.986,16.079,38.152,29.686
		c7.318,6.565,13.596,11.938,13.95,11.938c1.593,0,33.708,36.021,44.58,50c15.369,19.763,19.239,25.816,29.466,46.102
		c11.113,22.04,14.625,29.914,15.892,35.629c0.582,2.623,1.968,7.694,3.08,11.27c2.747,8.828,4.181,29.803,3.021,44.202
		c-1.081,13.438-4.584,23.633-12.026,35.007c-9.979,15.251-35.366,35.076-60.615,47.336c-23.725,11.519-30.119,14.455-31.483,14.455
		c-0.7,0-3.578,1.312-6.396,2.918c-2.816,1.604-7.866,3.625-11.223,4.488c-3.355,0.864-7.755,2.263-9.777,3.107
		c-6.967,2.911-49.439,11.277-63.565,12.521c-6.295,0.555-14.396,1.455-18,2.002c-19.771,2.996-39.525,4.12-77.556,4.413
		C2336.5,3078.618,2315.8,3078.577,2312.5,3078.357z M1703,2840.643c11.275-0.908,26.668-2.324,34.207-3.146
		c7.539-0.823,18.178-1.496,23.645-1.496c23.154,0,54.463-5.179,63.756-10.545c14.251-8.23,25.85-22.736,31.393-39.261
		c5.539-16.516,7.246-20.81,10.338-26.009c1.861-3.127,5.338-9.061,7.729-13.186c12.064-20.819,19.165-30.504,42.625-58.139
		c33.303-39.23,94.637-95.612,154.309-141.852c10.175-7.885,20.975-16.443,24-19.021c3.025-2.577,9.325-7.47,14-10.872
		c8.821-6.421,30.248-22.208,59.5-43.841c9.35-6.914,23.3-16.657,31-21.652s17.825-11.954,22.5-15.465s12.463-8.92,17.308-12.021
		s13.62-8.991,19.5-13.091c5.881-4.099,21.268-14.525,34.192-23.171c34.383-22.998,40.078-26.862,55.184-37.443
		c7.525-5.272,20.351-14.113,28.5-19.647c13.485-9.158,31.559-22.801,43.418-32.771c2.531-2.128,5.399-5.55,6.374-7.604
		c1.962-4.133,1.817-8.042-0.954-25.91c-0.854-5.5-1.986-20.441-2.518-33.202c-1.003-24.075-2.416-42.479-4.055-52.798
		c-0.523-3.3-1.398-15.9-1.944-28c-0.545-12.1-1.232-24.25-1.527-27s-1.43-16.475-2.522-30.5s-2.844-32.475-3.89-41
		s-2.185-20-2.53-25.5c-0.669-10.659-2.832-25.738-4.518-31.5c-0.563-1.925-1.472-8.45-2.019-14.5
		c-1.312-14.525-2.771-23.584-5.068-31.5c-1.038-3.575-2.31-10.802-2.825-16.06s-2.081-14.934-3.479-21.5
		c-1.396-6.567-3.245-16.451-4.107-21.964c-0.861-5.513-2.722-14.963-4.133-21s-3.385-14.802-4.386-19.477
		s-2.759-10.584-3.905-13.131c-1.146-2.547-2.726-7.946-3.511-12c-0.785-4.053-2.592-9.895-4.017-12.981
		c-1.424-3.086-3.449-8.711-4.5-12.5c-1.052-3.788-2.822-9.588-3.936-12.888c-1.112-3.3-3.136-9.825-4.496-14.5
		c-3.118-10.722-8.889-26.613-11.578-31.884c-1.132-2.221-2.064-4.617-2.071-5.326c-0.007-0.71-1.41-3.99-3.118-7.29
		c-3.104-5.998-5.788-12.763-12.898-32.5c-4.701-13.053-7.867-20.839-13.419-33c-5.473-11.989-5.902-13.476-4.603-15.904
		c0.582-1.089,5.67-4.27,11.305-7.068c12.735-6.325,22.184-11.443,26.746-14.488c1.925-1.285,9.8-5.686,17.5-9.778
		c14.943-7.943,57.519-36.751,73.367-49.642c5.151-4.19,13.539-10.87,18.639-14.844c5.099-3.973,13.934-11.625,19.633-17.005
		c5.699-5.379,14.637-13.673,19.861-18.431c22.662-20.635,59.44-58.751,75.935-78.697c30.281-36.618,29.878-36.105,53.9-68.458
		c2.934-3.951,9.588-13.935,14.787-22.185c5.198-8.25,12.084-18.825,15.301-23.5s10.544-17.725,16.283-29s12.566-24.505,15.171-29.4
		c4.743-8.913,14.604-34.066,14.645-37.353c0.012-0.961,1.143-4.897,2.514-8.747s3.154-9.809,3.963-13.241
		c0.808-3.433,2.627-8.993,4.043-12.356c2.109-5.012,3.036-10.389,5.128-29.76c2.18-20.186,2.649-30.296,3.212-69.143
		c0.742-51.24-0.178-120.434-1.841-138.5c-0.608-6.6-1.753-20.1-2.545-30c-1.438-17.978-1.941-20.854-4.834-27.569
		c-0.845-1.963-2.243-7.64-3.106-12.614s-2.471-11.666-3.572-14.869c-1.103-3.203-2.476-8.776-3.051-12.386
		c-1.038-6.506-8.227-29.947-12.132-39.562c-1.117-2.75-2.827-7.729-3.801-11.065s-2.797-8.061-4.053-10.5
		c-2.264-4.398-4.686-10.704-11.883-30.935c-7.037-19.781-10.792-28.239-22.415-50.5c-1.436-2.75-4.234-8.825-6.218-13.5
		c-7.084-16.694-14.577-30.815-22.022-41.5c-1.15-1.65-4.863-8.175-8.252-14.5c-9.4-17.546-33.178-53.492-47.623-72
		c-3.65-4.675-9.425-12.277-12.834-16.896c-7.346-9.948-8.035-10.782-31.143-37.701c-17.501-20.388-49.023-52.711-73.097-74.954
		c-36.205-33.452-88.337-73.753-120.46-93.121c-6.875-4.146-16.775-10.193-22-13.44s-17.6-9.902-27.5-14.791
		c-35.195-17.378-47.039-23.097-47.835-23.097c-0.442,0-5.387-1.767-10.985-3.925c-12.374-4.772-26.68-9.521-36.461-12.104
		c-4.005-1.058-9.18-3.017-11.5-4.354c-2.32-1.337-7.711-3.139-11.98-4.004c-4.269-0.865-9.091-2.26-10.716-3.101
		c-4.983-2.577-47.161-11.756-62.522-13.606c-4.95-0.596-13.275-1.963-18.5-3.037s-15.938-2.605-23.809-3.403
		c-7.869-0.798-18.669-2.338-24-3.423c-12.388-2.52-24.221-3.8-46.691-5.052c-9.9-0.551-26.1-1.717-36-2.591
		c-13.434-1.186-35.757-1.714-88-2.083c-71.588-0.505-107.428,0.326-132.5,3.074c-7.425,0.813-19.8,1.934-27.5,2.489
		c-9.468,0.683-17.723,1.969-25.5,3.975c-6.325,1.631-13.75,3.265-16.5,3.632c-16.486,2.201-55.558,14.724-75,24.038
		c-13.833,6.626-22.722,10.709-44,20.212c-8.727,3.897-18.191,8.913-26,13.779c-2.75,1.714-9.95,5.633-16,8.708
		c-14.261,7.25-32.666,17.928-39,22.625c-2.75,2.04-8.15,5.669-12,8.065c-14.433,8.981-29.786,19.459-38.745,26.439
		c-5.091,3.966-13.201,10.067-18.024,13.56c-4.823,3.491-11.798,9.118-15.5,12.503s-11.563,10.329-17.471,15.431
		c-13.627,11.771-42.864,41.482-58.7,59.653c-13.533,15.528-24.05,29.249-37.941,49.5c-5.094,7.425-11.417,16.589-14.054,20.365
		c-2.636,3.775-7.618,12.325-11.072,19c-3.453,6.674-7.721,14.609-9.481,17.635c-10.534,18.092-18.431,34.414-21.663,44.777
		c-1.077,3.453-3.283,9.078-4.902,12.5c-1.619,3.423-2.938,6.897-2.93,7.723s-1.528,4.65-3.414,8.5
		c-3.299,6.736-4.291,9.393-10.092,27c-4.873,14.792-6.354,20.17-8.844,32.112c-5.154,24.732-6.857,46.604-4.664,59.888
		c0.545,3.3,1.455,10.881,2.022,16.847c1.394,14.657,10.466,56.834,13.479,62.66c0.875,1.692,2.445,7.075,3.489,11.962
		s3.013,11.083,4.375,13.771c1.361,2.688,2.992,7.733,3.623,11.212s2.021,8.541,3.088,11.248c1.067,2.708,3.072,10.184,4.455,16.612
		c1.384,6.429,3.85,16.416,5.479,22.195c1.631,5.778,3.44,13.081,4.021,16.229c0.582,3.146,1.893,7.644,2.912,9.993
		s2.558,8.771,3.417,14.271c0.86,5.5,2.713,13.365,4.117,17.478c1.552,4.541,3.123,12.609,4.003,20.544
		c0.797,7.187,2.102,15.972,2.899,19.522c1.934,8.606,2.404,12.853,4.1,36.956c2.108,29.975,5.261,66.688,6.956,81
		c0.814,6.875,1.94,17.344,2.503,23.265c0.562,5.92,1.961,14.44,3.108,18.934c1.146,4.493,2.697,13.599,3.444,20.235
		c0.858,7.627,2.29,14.519,3.891,18.731c1.394,3.665,3.213,10.865,4.044,16c0.832,5.134,2.398,12.035,3.482,15.335
		c5.405,16.464,5.426,63.957,0.033,77.638c-1.08,2.741-2.403,7.095-2.939,9.673c-0.536,2.579-2.506,7.84-4.375,11.689
		c-9.606,19.777-14.188,29.287-20.477,42.5c-3.796,7.975-10.446,20.01-14.778,26.743s-10.507,16.515-13.724,21.735
		c-3.216,5.222-8.518,12.987-11.781,17.258c-3.264,4.27-8.282,11.096-11.152,15.168c-5.059,7.176-18.683,24.735-31.111,40.096
		c-15.271,18.876-45.648,53.467-70.107,79.834c-50.84,54.808-81.843,89.07-92.75,102.502c-4.394,5.41-10.662,12.835-13.93,16.5
		c-3.269,3.665-9.383,11.164-13.588,16.664c-4.204,5.5-12.008,15.479-17.341,22.178c-5.333,6.697-13.646,17.947-18.475,25
		c-4.827,7.052-11.779,16.872-15.447,21.822s-10.643,15.75-15.498,24c-4.856,8.25-10.184,17.004-11.839,19.453
		c-7.059,10.446-18.119,31.344-24.107,45.547c-2.552,6.05-7.969,17.782-12.037,26.07c-4.07,8.289-7.86,17.129-8.424,19.644
		c-0.564,2.516-2.376,8.333-4.027,12.93c-1.65,4.596-4.109,13.081-5.464,18.856s-3.118,12.075-3.919,14s-1.984,7.1-2.63,11.5
		c-0.646,4.4-2.041,11.45-3.1,15.667c-2.627,10.462-2.622,26.331,0.01,34.978c1.063,3.496,2.247,8.155,2.628,10.355
		c0.973,5.615,9.615,25.481,14.337,32.958c11.38,18.019,36.677,49.565,60.577,75.542c5.82,6.325,17.656,19.371,26.303,28.992
		s19.547,21.546,24.223,26.5s10.51,11.482,12.964,14.508s7.49,8.906,11.191,13.069s10.468,12.356,15.036,18.206
		s12.601,15.943,17.85,22.43c11.3,13.967,35.618,46.688,45.182,60.795c3.729,5.5,11.767,16.75,17.86,25
		c10.847,14.684,39.861,58.137,49.411,74c2.649,4.4,8.074,12.95,12.057,19s8.928,14.15,10.99,18
		c4.027,7.52,7.418,13.221,13.974,23.5c7.856,12.317,11.438,18.739,21.803,39.088c5.719,11.227,12.038,23.337,14.043,26.912
		c8.133,14.498,13.046,25.664,21.563,49c1.706,4.675,4,10.145,5.099,12.154c1.099,2.011,2.886,7.227,3.972,11.591
		s2.863,9.944,3.95,12.4c1.086,2.456,2.488,7.815,3.115,11.91c2.16,14.108,10.866,34.136,18.732,43.092
		c7.037,8.014,20.777,20.831,28.882,26.942c3.946,2.976,12.946,8.525,20,12.333c7.053,3.808,14.733,8.215,17.067,9.794
		c4.919,3.327,30.892,16.453,40.912,20.674c15.316,6.454,23.376,10.084,25.551,11.507c1.262,0.825,5.444,2.603,9.294,3.948
		s9.25,3.374,12,4.508c12.239,5.046,35.367,10.409,56.5,13.102c4.675,0.595,11.425,1.732,15,2.527s13.7,1.909,22.5,2.477
		c8.8,0.566,22.75,1.942,31,3.057c23.432,3.166,43.19,3.787,112,3.523C1667.201,2842.353,1687.4,2841.898,1703,2840.643z
		 M2128.872,1199.347c-0.99-1.194-1.372-4.906-1.372-13.347c0-12.21,0.837-15,4.5-15c3.264,0,3.982,2.487,4.243,14.683
		c0.192,8.998-0.086,12.409-1.115,13.655C2133.375,1201.461,2130.63,1201.464,2128.872,1199.347z M2329,1195.476
		c-0.825-0.161-8.025-1.036-16-1.943s-19.225-2.752-25-4.1s-13.948-3.092-18.162-3.876c-4.215-0.785-9.39-2.303-11.5-3.373
		c-2.111-1.07-7.428-2.926-11.816-4.124c-4.388-1.198-9.338-2.997-11-3.998c-1.662-1-4.821-2.345-7.021-2.987
		c-3.837-1.121-10.257-3.881-26.5-11.388c-4.125-1.907-10.3-5.429-13.723-7.827c-3.422-2.397-10.279-7.193-15.239-10.657
		c-10.447-7.297-27.29-23.61-34.767-33.674c-9.77-13.149-25.586-44.169-27.768-54.456c-0.766-3.614-2.068-8.472-2.894-10.793
		c-5.355-15.062-5.074-80.644,0.426-99.326c1.06-3.601,2.42-10.125,3.022-14.5c0.671-4.872,2.169-10.084,3.866-13.453
		c1.524-3.025,3.349-7.975,4.054-11c0.706-3.025,2.525-8.2,4.045-11.5s3.22-7.575,3.779-9.5c4.825-16.601,15.436-39.073,30.691-65
		c17.679-30.046,31.726-48.288,55.471-72.038c21.632-21.636,35.15-32.089,61.035-47.194c5.225-3.049,12.621-7.394,16.438-9.655
		c3.814-2.262,7.564-4.112,8.332-4.112s4.475-1.352,8.237-3.003s11.263-4.082,16.667-5.4c5.404-1.319,13.426-3.36,17.826-4.535
		c12.706-3.396,41.505-5.308,60.5-4.018c19.917,1.353,24.54,2.111,41.518,6.814c15.806,4.378,24.447,8.389,38.27,17.76
		c24.455,16.581,38.385,31.815,57.464,62.844c11.772,19.147,20.174,39.223,26.588,63.538c1.089,4.125,2.884,9.975,3.989,13
		s2.525,9.325,3.154,14s2.273,13.45,3.654,19.5c3.269,14.32,4.646,40.066,3.824,71.5c-0.517,19.741-0.993,25.115-2.982,33.601
		c-1.303,5.556-3.107,15.455-4.013,22c-0.904,6.545-2.954,15.844-4.555,20.664c-1.602,4.821-2.911,9.95-2.911,11.398
		s-1.562,7.179-3.472,12.735c-1.909,5.556-4.19,13.252-5.069,17.102s-3.178,10.6-5.11,15c-5.443,12.396-20.732,42.565-26.753,52.789
		c-8.652,14.694-25.063,32.93-36.596,40.663c-7.244,4.857-25.449,14.435-30.5,16.045c-2.2,0.702-6.073,2.314-8.607,3.584
		c-2.533,1.27-8.688,3.016-13.674,3.881c-4.987,0.865-10.97,2.245-13.295,3.065s-9.222,1.937-15.326,2.481
		c-6.104,0.544-16.048,1.656-22.098,2.471C2375.922,1195.77,2334.267,1196.503,2329,1195.476z M2349.055,1009.179
		c5.417-3.438,16.137-14.954,18.443-19.815c1.402-2.956,1.619-5.927,1.288-17.708l-0.397-14.155l-5.411-10.5
		c-11.117-21.573-19.136-30.863-31.728-36.759c-13.043-6.107-20.191-5.027-30.554,4.616c-7.528,7.006-8.648,10.264-8.675,25.243
		c-0.022,13.032,0.731,16.867,4.5,22.899c1.202,1.925,2.525,4.625,2.939,6c2.29,7.602,13.294,21.82,24.439,31.579
		C2338.067,1012.983,2341.311,1014.093,2349.055,1009.179z M1929,1048.921c-4.678-2.166-8.058-3.563-21.5-8.892
		c-17.504-6.937-38.912-19.369-41.909-24.338c-0.87-1.443-0.687-2.11,0.909-3.306c2.674-2.002,5.531-1.374,21.081,4.63
		c28.206,10.892,53.286,26.172,52.219,31.814C1939.332,1051.302,1934.234,1051.345,1929,1048.921z M1577.405,1000.893
		c-1.389-1.535-1.892-3.547-1.854-7.414c0.043-4.392,0.684-6.259,3.719-10.83c9.355-14.089,29.393-23.986,35.73-17.648
		c6.366,6.366-3.055,19.942-22.954,33.079C1583.891,1003.464,1580.345,1004.145,1577.405,1000.893z M1975.5,993.971
		c-3.3-1.057-8.475-2.432-11.5-3.055s-8.2-2.266-11.5-3.65c-3.3-1.384-8.7-3.316-12-4.294c-15.385-4.557-36.418-13.495-62.5-26.562
		c-11.275-5.648-22.422-10.927-24.77-11.729c-8.773-3-18.822-10.423-16.82-12.425c1-1,17.873,2.879,23.59,5.423
		c3.025,1.347,9.23,3.32,13.791,4.386c4.56,1.064,10.026,2.822,12.147,3.904s6.94,2.833,10.709,3.891
		c11.503,3.229,34.267,10.193,45.353,13.876c9.997,3.321,36.969,16.456,45.5,22.157c4.733,3.163,5.577,6.239,2.334,8.511
		C1986.885,996.47,1982.93,996.35,1975.5,993.971z M1635.422,943.499c-6.643-1.248-13.487-2.999-15.211-3.89
		c-1.723-0.892-6.398-2.308-10.389-3.146c-3.99-0.84-9.098-2.606-11.35-3.926c-2.252-1.32-7.442-3.28-11.533-4.357
		c-4.092-1.076-10.14-3.062-13.439-4.414c-3.3-1.351-11.4-4.4-18-6.777c-24.519-8.828-34.51-13.158-55-23.834
		c-25.734-13.409-33.277-17.736-42.124-24.171c-24.776-18.02-38.885-30.918-49.811-45.541c-3.264-4.368-7.26-9.677-8.88-11.796
		c-8.289-10.843-18.727-37.084-22.135-55.646c-0.857-4.675-2.29-10.975-3.183-14c-1.227-4.16-1.738-11.456-2.101-29.942
		l-0.479-24.443l3.693-15.557c3.288-13.849,6.232-24.46,11.253-40.558c2.102-6.74,8.65-21.571,11.579-26.225
		c1.307-2.076,4.764-8.051,7.683-13.275c7.669-13.728,18.307-30.85,22.167-35.677c1.835-2.294,5.557-7.019,8.271-10.497
		c14.635-18.759,20.876-25.807,36.218-40.898c9.266-9.114,19.097-18.335,21.847-20.489s7.925-6.419,11.5-9.478
		c8.693-7.437,15.961-12.637,25-17.889c4.125-2.396,10.431-6.318,14.014-8.715c3.582-2.396,6.957-4.359,7.5-4.361
		c0.542-0.003,3.012-1.381,5.486-3.062c6.195-4.211,19.212-10.205,29.135-13.417c4.556-1.475,9.427-3.255,10.824-3.956
		c1.397-0.7,6.234-2.256,10.75-3.455c4.515-1.199,10.14-3.025,12.5-4.057c2.359-1.031,8.198-2.598,12.975-3.481
		c4.775-0.884,11.555-2.688,15.062-4.008c3.509-1.321,9.727-2.693,13.816-3.051c4.091-0.356,15.088-1.854,24.438-3.329
		c15.717-2.478,19.264-2.677,47-2.646c27.74,0.031,31.205,0.234,46,2.7c8.8,1.466,18.475,2.96,21.5,3.319s8.425,1.919,12,3.467
		c3.575,1.547,8.3,3.122,10.5,3.499c7.043,1.208,30.579,12.016,40.296,18.504c8.054,5.379,21.997,20.291,29.226,31.258
		c6.621,10.045,14.269,29.403,16.679,42.22c0.828,4.4,2.655,11.825,4.061,16.5c2.456,8.168,2.572,9.739,2.991,40.246
		c0.455,33.047-0.17,42.495-3.748,56.754c-1.035,4.125-2.193,10.425-2.572,14c-0.8,7.521-11.744,51.754-13.804,55.785
		c-0.763,1.493-1.708,4.29-2.099,6.215c-0.738,3.628-6.109,16.351-12.03,28.5c-1.876,3.85-6.913,14.626-11.194,23.946
		c-7.49,16.31-10.457,21.621-21.817,39.054c-2.867,4.4-7.134,11.142-9.481,14.98c-4.545,7.438-6.128,9.55-21.088,28.157
		c-18.242,22.69-37.614,42.222-55.918,56.379c-6.325,4.892-15.779,12.192-21.01,16.224c-5.23,4.032-14.006,9.972-19.5,13.2
		c-5.495,3.229-15.84,9.298-22.99,13.488c-17.099,10.02-27.301,14.609-36.708,16.512
		C1654.023,946.417,1650.297,946.293,1635.422,943.499z M1652,712.181c11.384-4.554,22.106-11.261,27.102-16.95
		c3.869-4.405,8.896-14.79,8.897-18.376c0.001-3.367-5.4-16.13-9.038-21.354c-4.169-5.988-11.98-13.208-16.179-14.954
		c-4.961-2.063-12.372-1.92-17.282,0.334c-11.422,5.242-42.068,33.603-48.75,45.114c-6.155,10.604-4.914,17.764,4.377,25.238
		c6.281,5.054,9.838,5.805,25.873,5.46C1641.385,716.384,1641.584,716.348,1652,712.181z"/>
</g>
</svg>
